<?xml version="1.0" encoding="UTF-8" standalone="no"?>
<!DOCTYPE svg PUBLIC "-//W3C//DTD SVG 1.1//EN" "http://www.w3.org/Graphics/SVG/1.1/DTD/svg11.dtd">
<svg width="100%" height="100%" viewBox="0 0 322 84" version="1.1" xmlns="http://www.w3.org/2000/svg" xmlns:xlink="http://www.w3.org/1999/xlink" xml:space="preserve" xmlns:serif="http://www.serif.com/" style="fill-rule:evenodd;clip-rule:evenodd;stroke-linejoin:round;stroke-miterlimit:2;">
    <path d="M13.683,66.35L14.893,66.35L19.613,79.55L18.443,79.55L17.223,76.12L11.363,76.12L10.113,79.55L8.943,79.55L13.683,66.35ZM11.693,75.09L16.893,75.09L14.303,67.72L14.273,67.72L11.693,75.09Z" style="fill:rgb(48,48,48);fill-rule:nonzero;"/>
    <path d="M25.963,66.35L28.663,66.35C30.07,66.35 31.222,66.631 32.118,67.195C33.015,67.758 33.68,68.536 34.113,69.53C34.547,70.523 34.763,71.66 34.763,72.94C34.763,74.226 34.548,75.366 34.118,76.36C33.688,77.353 33.025,78.133 32.128,78.7C31.232,79.266 30.077,79.55 28.663,79.55L25.963,79.55L25.963,66.35ZM27.033,67.39L27.033,78.51L28.573,78.51C29.747,78.51 30.705,78.273 31.448,77.8C32.192,77.326 32.738,76.671 33.088,75.835C33.438,74.998 33.617,74.04 33.623,72.96C33.63,71.88 33.458,70.92 33.108,70.08C32.758,69.24 32.212,68.581 31.468,68.105C30.725,67.628 29.76,67.39 28.573,67.39L27.033,67.39Z" style="fill:rgb(48,48,48);fill-rule:nonzero;"/>
    <path d="M40.913,66.11C41.64,66.11 42.262,66.195 42.778,66.365C43.295,66.535 43.698,66.715 43.988,66.905C44.278,67.095 44.45,67.22 44.503,67.28L43.903,68.2C43.797,68.113 43.62,67.986 43.373,67.82C43.127,67.653 42.805,67.501 42.408,67.365C42.012,67.228 41.54,67.16 40.993,67.16C40.133,67.16 39.455,67.34 38.958,67.7C38.462,68.06 38.213,68.563 38.213,69.21C38.213,69.863 38.498,70.398 39.068,70.815C39.638,71.231 40.35,71.633 41.203,72.02C41.643,72.22 42.09,72.443 42.543,72.69C42.997,72.936 43.412,73.225 43.788,73.555C44.165,73.885 44.468,74.27 44.698,74.71C44.928,75.15 45.043,75.66 45.043,76.24C45.043,76.94 44.858,77.556 44.488,78.09C44.118,78.623 43.605,79.04 42.948,79.34C42.292,79.64 41.537,79.79 40.683,79.79C39.923,79.79 39.235,79.691 38.618,79.495C38.002,79.298 37.505,79.096 37.128,78.89C36.752,78.683 36.54,78.556 36.493,78.51L37.153,77.55C37.267,77.636 37.483,77.775 37.803,77.965C38.123,78.155 38.532,78.331 39.028,78.495C39.525,78.658 40.093,78.74 40.733,78.74C41.76,78.74 42.542,78.498 43.078,78.015C43.615,77.531 43.883,76.92 43.883,76.18C43.883,75.613 43.712,75.126 43.368,74.72C43.025,74.313 42.585,73.956 42.048,73.65C41.512,73.343 40.953,73.053 40.373,72.78C39.753,72.493 39.193,72.186 38.693,71.86C38.193,71.533 37.795,71.153 37.498,70.72C37.202,70.286 37.053,69.766 37.053,69.16C37.053,68.566 37.223,68.041 37.563,67.585C37.903,67.128 38.365,66.768 38.948,66.505C39.532,66.241 40.187,66.11 40.913,66.11Z" style="fill:rgb(48,48,48);fill-rule:nonzero;"/>
    <path d="M47.353,66.35L48.453,66.35L48.453,78.52L53.833,78.52L53.833,79.55L47.353,79.55L47.353,66.35Z" style="fill:rgb(48,48,48);fill-rule:nonzero;"/>
    <path d="M60.173,71.34L62.013,71.34L62.013,68.94C62.013,68.086 62.145,67.413 62.408,66.92C62.672,66.426 63.007,66.075 63.413,65.865C63.82,65.655 64.233,65.55 64.653,65.55C65.16,65.55 65.552,65.621 65.828,65.765C66.105,65.908 66.267,66 66.313,66.04L65.833,66.92C65.8,66.886 65.688,66.816 65.498,66.71C65.308,66.603 65.04,66.55 64.693,66.55C64.44,66.55 64.192,66.611 63.948,66.735C63.705,66.858 63.503,67.101 63.343,67.465C63.183,67.828 63.103,68.37 63.103,69.09L63.103,71.34L65.583,71.34L65.583,72.34L63.103,72.34L63.103,79.55L62.013,79.55L62.013,72.34L60.173,72.34L60.173,71.34Z" style="fill:rgb(48,48,48);fill-rule:nonzero;"/>
    <path d="M70.913,79.79C70.093,79.79 69.367,79.598 68.733,79.215C68.1,78.831 67.602,78.313 67.238,77.66C66.875,77.006 66.693,76.276 66.693,75.47C66.693,74.663 66.875,73.93 67.238,73.27C67.602,72.61 68.1,72.083 68.733,71.69C69.367,71.296 70.093,71.1 70.913,71.1C71.733,71.1 72.458,71.296 73.088,71.69C73.718,72.083 74.213,72.61 74.573,73.27C74.933,73.93 75.113,74.663 75.113,75.47C75.113,76.276 74.933,77.006 74.573,77.66C74.213,78.313 73.718,78.831 73.088,79.215C72.458,79.598 71.733,79.79 70.913,79.79ZM70.913,78.78C71.54,78.78 72.087,78.635 72.553,78.345C73.02,78.055 73.383,77.66 73.643,77.16C73.903,76.66 74.033,76.096 74.033,75.47C74.033,74.843 73.903,74.275 73.643,73.765C73.383,73.255 73.02,72.851 72.553,72.555C72.087,72.258 71.54,72.11 70.913,72.11C70.287,72.11 69.738,72.258 69.268,72.555C68.798,72.851 68.433,73.255 68.173,73.765C67.913,74.275 67.783,74.843 67.783,75.47C67.783,76.096 67.913,76.66 68.173,77.16C68.433,77.66 68.798,78.055 69.268,78.345C69.738,78.635 70.287,78.78 70.913,78.78Z" style="fill:rgb(48,48,48);fill-rule:nonzero;"/>
    <path d="M78.383,79.55L77.293,79.55L77.293,71.34L78.383,71.34L78.383,72.65C78.463,72.456 78.615,72.24 78.838,72C79.062,71.76 79.348,71.55 79.698,71.37C80.048,71.19 80.45,71.1 80.903,71.1C81.283,71.1 81.612,71.15 81.888,71.25C82.165,71.35 82.357,71.446 82.463,71.54L81.983,72.48C81.89,72.4 81.727,72.315 81.493,72.225C81.26,72.135 80.973,72.09 80.633,72.09C80.18,72.09 79.783,72.245 79.443,72.555C79.103,72.865 78.842,73.233 78.658,73.66C78.475,74.086 78.383,74.48 78.383,74.84L78.383,79.55Z" style="fill:rgb(48,48,48);fill-rule:nonzero;"/>
    <path d="M91.353,71.1C91.92,71.1 92.433,71.19 92.893,71.37C93.353,71.55 93.68,71.72 93.873,71.88L93.333,72.65C93.187,72.516 92.942,72.373 92.598,72.22C92.255,72.066 91.863,71.99 91.423,71.99C90.89,71.99 90.435,72.103 90.058,72.33C89.682,72.556 89.493,72.876 89.493,73.29C89.493,73.703 89.683,74.03 90.063,74.27C90.443,74.51 90.947,74.71 91.573,74.87C92.047,74.99 92.478,75.14 92.868,75.32C93.258,75.5 93.568,75.745 93.798,76.055C94.028,76.365 94.143,76.776 94.143,77.29C94.143,77.863 93.99,78.335 93.683,78.705C93.377,79.075 92.973,79.348 92.473,79.525C91.973,79.701 91.437,79.79 90.863,79.79C90.183,79.79 89.593,79.685 89.093,79.475C88.593,79.265 88.24,79.07 88.033,78.89L88.593,78.02C88.767,78.2 89.053,78.385 89.453,78.575C89.853,78.765 90.32,78.86 90.853,78.86C91.473,78.86 91.987,78.715 92.393,78.425C92.8,78.135 93.003,77.756 93.003,77.29C93.003,76.943 92.905,76.665 92.708,76.455C92.512,76.245 92.257,76.08 91.943,75.96C91.63,75.84 91.297,75.733 90.943,75.64C90.49,75.533 90.068,75.385 89.678,75.195C89.288,75.005 88.973,74.753 88.733,74.44C88.493,74.126 88.373,73.736 88.373,73.27C88.373,72.83 88.51,72.448 88.783,72.125C89.057,71.801 89.418,71.55 89.868,71.37C90.318,71.19 90.813,71.1 91.353,71.1Z" style="fill:rgb(48,48,48);fill-rule:nonzero;"/>
    <path d="M103.063,79.55L103.063,77.83C103.017,78.01 102.862,78.255 102.598,78.565C102.335,78.875 101.972,79.156 101.508,79.41C101.045,79.663 100.493,79.79 99.853,79.79C99.113,79.79 98.432,79.616 97.808,79.27C97.185,78.923 96.685,78.426 96.308,77.78C95.932,77.133 95.743,76.356 95.743,75.45C95.743,74.543 95.932,73.765 96.308,73.115C96.685,72.465 97.185,71.966 97.808,71.62C98.432,71.273 99.113,71.1 99.853,71.1C100.487,71.1 101.037,71.22 101.503,71.46C101.97,71.7 102.337,71.973 102.603,72.28C102.87,72.586 103.02,72.843 103.053,73.05L103.053,71.34L104.153,71.34L104.153,79.55L103.063,79.55ZM96.843,75.45C96.843,76.143 96.995,76.741 97.298,77.245C97.602,77.748 97.993,78.135 98.473,78.405C98.953,78.675 99.457,78.81 99.983,78.81C100.857,78.81 101.582,78.506 102.158,77.9C102.735,77.293 103.023,76.476 103.023,75.45C103.023,74.43 102.735,73.613 102.158,73C101.582,72.386 100.857,72.08 99.983,72.08C99.457,72.08 98.953,72.216 98.473,72.49C97.993,72.763 97.602,73.151 97.298,73.655C96.995,74.158 96.843,74.756 96.843,75.45Z" style="fill:rgb(48,48,48);fill-rule:nonzero;"/>
    <path d="M105.753,71.34L107.593,71.34L107.593,68.94C107.593,68.086 107.725,67.413 107.988,66.92C108.252,66.426 108.587,66.075 108.993,65.865C109.4,65.655 109.813,65.55 110.233,65.55C110.74,65.55 111.132,65.621 111.408,65.765C111.685,65.908 111.847,66 111.893,66.04L111.413,66.92C111.38,66.886 111.268,66.816 111.078,66.71C110.888,66.603 110.62,66.55 110.273,66.55C110.02,66.55 109.772,66.611 109.528,66.735C109.285,66.858 109.083,67.101 108.923,67.465C108.763,67.828 108.683,68.37 108.683,69.09L108.683,71.34L111.163,71.34L111.163,72.34L108.683,72.34L108.683,79.55L107.593,79.55L107.593,72.34L105.753,72.34L105.753,71.34Z" style="fill:rgb(48,48,48);fill-rule:nonzero;"/>
    <path d="M113.393,75.58C113.4,76.153 113.515,76.69 113.738,77.19C113.962,77.69 114.3,78.093 114.753,78.4C115.207,78.706 115.777,78.86 116.463,78.86C117.023,78.86 117.492,78.768 117.868,78.585C118.245,78.401 118.545,78.188 118.768,77.945C118.992,77.701 119.15,77.483 119.243,77.29L119.953,77.99C119.58,78.563 119.12,79.006 118.573,79.32C118.027,79.633 117.303,79.79 116.403,79.79C115.53,79.79 114.785,79.595 114.168,79.205C113.552,78.815 113.082,78.283 112.758,77.61C112.435,76.936 112.273,76.18 112.273,75.34C112.273,74.54 112.433,73.82 112.753,73.18C113.073,72.54 113.535,72.033 114.138,71.66C114.742,71.286 115.47,71.1 116.323,71.1C117.097,71.1 117.77,71.27 118.343,71.61C118.917,71.95 119.36,72.421 119.673,73.025C119.987,73.628 120.143,74.33 120.143,75.13L120.123,75.58L113.393,75.58ZM119.003,74.63C118.997,74.27 118.908,73.888 118.738,73.485C118.568,73.081 118.292,72.738 117.908,72.455C117.525,72.171 117,72.03 116.333,72.03C115.633,72.03 115.078,72.168 114.668,72.445C114.258,72.721 113.96,73.06 113.773,73.46C113.587,73.86 113.477,74.25 113.443,74.63L119.003,74.63Z" style="fill:rgb(48,48,48);fill-rule:nonzero;"/>
    <path d="M123.583,77.47C123.943,77.47 124.252,77.596 124.508,77.85C124.765,78.103 124.893,78.433 124.893,78.84C124.893,79.506 124.703,80.103 124.323,80.63C123.943,81.156 123.503,81.556 123.003,81.83L122.423,81.27C122.703,81.136 123.007,80.931 123.333,80.655C123.66,80.378 123.863,80.063 123.943,79.71C123.797,79.783 123.633,79.82 123.453,79.82C123.147,79.82 122.887,79.706 122.673,79.48C122.46,79.253 122.353,78.993 122.353,78.7C122.353,78.333 122.47,78.036 122.703,77.81C122.937,77.583 123.23,77.47 123.583,77.47Z" style="fill:rgb(48,48,48);fill-rule:nonzero;"/>
    <path d="M133.633,83.71L132.523,83.71L132.523,71.34L133.663,71.34L133.663,73.05C133.697,72.83 133.857,72.566 134.143,72.26C134.43,71.953 134.815,71.683 135.298,71.45C135.782,71.216 136.343,71.1 136.983,71.1C137.723,71.1 138.393,71.273 138.993,71.62C139.593,71.966 140.068,72.465 140.418,73.115C140.768,73.765 140.943,74.543 140.943,75.45C140.943,76.356 140.767,77.133 140.413,77.78C140.06,78.426 139.582,78.923 138.978,79.27C138.375,79.616 137.7,79.79 136.953,79.79C136.307,79.79 135.738,79.665 135.248,79.415C134.758,79.165 134.373,78.885 134.093,78.575C133.813,78.265 133.66,78.016 133.633,77.83L133.633,83.71ZM139.843,75.45C139.843,74.756 139.702,74.158 139.418,73.655C139.135,73.151 138.765,72.763 138.308,72.49C137.852,72.216 137.36,72.08 136.833,72.08C136.253,72.08 135.723,72.22 135.243,72.5C134.763,72.78 134.38,73.171 134.093,73.675C133.807,74.178 133.663,74.77 133.663,75.45C133.663,76.136 133.807,76.73 134.093,77.23C134.38,77.73 134.763,78.118 135.243,78.395C135.723,78.671 136.253,78.81 136.833,78.81C137.36,78.81 137.852,78.675 138.308,78.405C138.765,78.135 139.135,77.748 139.418,77.245C139.702,76.741 139.843,76.143 139.843,75.45Z" style="fill:rgb(48,48,48);fill-rule:nonzero;"/>
    <path d="M146.503,79.79C145.683,79.79 144.957,79.598 144.323,79.215C143.69,78.831 143.192,78.313 142.828,77.66C142.465,77.006 142.283,76.276 142.283,75.47C142.283,74.663 142.465,73.93 142.828,73.27C143.192,72.61 143.69,72.083 144.323,71.69C144.957,71.296 145.683,71.1 146.503,71.1C147.323,71.1 148.048,71.296 148.678,71.69C149.308,72.083 149.803,72.61 150.163,73.27C150.523,73.93 150.703,74.663 150.703,75.47C150.703,76.276 150.523,77.006 150.163,77.66C149.803,78.313 149.308,78.831 148.678,79.215C148.048,79.598 147.323,79.79 146.503,79.79ZM146.503,78.78C147.13,78.78 147.677,78.635 148.143,78.345C148.61,78.055 148.973,77.66 149.233,77.16C149.493,76.66 149.623,76.096 149.623,75.47C149.623,74.843 149.493,74.275 149.233,73.765C148.973,73.255 148.61,72.851 148.143,72.555C147.677,72.258 147.13,72.11 146.503,72.11C145.877,72.11 145.328,72.258 144.858,72.555C144.388,72.851 144.023,73.255 143.763,73.765C143.503,74.275 143.373,74.843 143.373,75.47C143.373,76.096 143.503,76.66 143.763,77.16C144.023,77.66 144.388,78.055 144.858,78.345C145.328,78.635 145.877,78.78 146.503,78.78Z" style="fill:rgb(48,48,48);fill-rule:nonzero;"/>
    <rect x="152.873" y="65.79" width="1.13" height="13.76" style="fill:rgb(48,48,48);fill-rule:nonzero;"/>
    <path d="M157.563,67.99C157.33,67.99 157.128,67.905 156.958,67.735C156.788,67.565 156.703,67.363 156.703,67.13C156.703,66.89 156.788,66.685 156.958,66.515C157.128,66.345 157.33,66.26 157.563,66.26C157.803,66.26 158.012,66.345 158.188,66.515C158.365,66.685 158.453,66.89 158.453,67.13C158.453,67.363 158.367,67.565 158.193,67.735C158.02,67.905 157.81,67.99 157.563,67.99ZM156.993,79.55L156.993,71.34L158.103,71.34L158.103,79.55L156.993,79.55Z" style="fill:rgb(48,48,48);fill-rule:nonzero;"/>
    <path d="M164.633,78.81C165.227,78.81 165.7,78.716 166.053,78.53C166.407,78.343 166.623,78.216 166.703,78.15L167.293,79.01C167.24,79.056 167.09,79.143 166.843,79.27C166.597,79.396 166.278,79.515 165.888,79.625C165.498,79.735 165.057,79.79 164.563,79.79C163.91,79.79 163.275,79.626 162.658,79.3C162.042,78.973 161.537,78.488 161.143,77.845C160.75,77.201 160.553,76.4 160.553,75.44C160.553,74.48 160.75,73.678 161.143,73.035C161.537,72.391 162.042,71.908 162.658,71.585C163.275,71.261 163.91,71.1 164.563,71.1C165.057,71.1 165.492,71.161 165.868,71.285C166.245,71.408 166.55,71.541 166.783,71.685C167.017,71.828 167.167,71.933 167.233,72L166.653,72.85C166.567,72.77 166.357,72.621 166.023,72.405C165.69,72.188 165.227,72.08 164.633,72.08C164.153,72.08 163.683,72.21 163.223,72.47C162.763,72.73 162.383,73.11 162.083,73.61C161.783,74.11 161.633,74.72 161.633,75.44C161.633,76.16 161.783,76.77 162.083,77.27C162.383,77.77 162.763,78.151 163.223,78.415C163.683,78.678 164.153,78.81 164.633,78.81Z" style="fill:rgb(48,48,48);fill-rule:nonzero;"/>
    <path d="M172.293,78.47L175.323,71.34L176.473,71.34L170.983,83.71L169.833,83.71L171.683,79.55L168.313,71.34L169.483,71.34L172.293,78.47Z" style="fill:rgb(48,48,48);fill-rule:nonzero;"/>
    <rect x="177.923" y="74.5" width="5.15" height="0.99" style="fill:rgb(48,48,48);fill-rule:nonzero;"/>
    <path d="M192.413,79.55L192.413,77.83C192.367,78.01 192.212,78.255 191.948,78.565C191.685,78.875 191.322,79.156 190.858,79.41C190.395,79.663 189.843,79.79 189.203,79.79C188.463,79.79 187.782,79.616 187.158,79.27C186.535,78.923 186.035,78.426 185.658,77.78C185.282,77.133 185.093,76.356 185.093,75.45C185.093,74.543 185.282,73.765 185.658,73.115C186.035,72.465 186.535,71.966 187.158,71.62C187.782,71.273 188.463,71.1 189.203,71.1C189.837,71.1 190.387,71.22 190.853,71.46C191.32,71.7 191.687,71.973 191.953,72.28C192.22,72.586 192.37,72.843 192.403,73.05L192.403,71.34L193.503,71.34L193.503,79.55L192.413,79.55ZM186.193,75.45C186.193,76.143 186.345,76.741 186.648,77.245C186.952,77.748 187.343,78.135 187.823,78.405C188.303,78.675 188.807,78.81 189.333,78.81C190.207,78.81 190.932,78.506 191.508,77.9C192.085,77.293 192.373,76.476 192.373,75.45C192.373,74.43 192.085,73.613 191.508,73C190.932,72.386 190.207,72.08 189.333,72.08C188.807,72.08 188.303,72.216 187.823,72.49C187.343,72.763 186.952,73.151 186.648,73.655C186.345,74.158 186.193,74.756 186.193,75.45Z" style="fill:rgb(48,48,48);fill-rule:nonzero;"/>
    <path d="M200.993,72.73L198.823,79.55L197.503,79.55L195.503,71.34L196.693,71.34L198.263,78.31L200.403,71.5L201.573,71.5L203.703,78.31L205.293,71.34L206.483,71.34L204.483,79.55L203.163,79.55L200.993,72.73Z" style="fill:rgb(48,48,48);fill-rule:nonzero;"/>
    <path d="M215.333,79.55L215.333,77.83C215.287,78.01 215.132,78.255 214.868,78.565C214.605,78.875 214.242,79.156 213.778,79.41C213.315,79.663 212.763,79.79 212.123,79.79C211.383,79.79 210.702,79.616 210.078,79.27C209.455,78.923 208.955,78.426 208.578,77.78C208.202,77.133 208.013,76.356 208.013,75.45C208.013,74.543 208.202,73.765 208.578,73.115C208.955,72.465 209.455,71.966 210.078,71.62C210.702,71.273 211.383,71.1 212.123,71.1C212.757,71.1 213.307,71.22 213.773,71.46C214.24,71.7 214.607,71.973 214.873,72.28C215.14,72.586 215.29,72.843 215.323,73.05L215.323,71.34L216.423,71.34L216.423,79.55L215.333,79.55ZM209.113,75.45C209.113,76.143 209.265,76.741 209.568,77.245C209.872,77.748 210.263,78.135 210.743,78.405C211.223,78.675 211.727,78.81 212.253,78.81C213.127,78.81 213.852,78.506 214.428,77.9C215.005,77.293 215.293,76.476 215.293,75.45C215.293,74.43 215.005,73.613 214.428,73C213.852,72.386 213.127,72.08 212.253,72.08C211.727,72.08 211.223,72.216 210.743,72.49C210.263,72.763 209.872,73.151 209.568,73.655C209.265,74.158 209.113,74.756 209.113,75.45Z" style="fill:rgb(48,48,48);fill-rule:nonzero;"/>
    <path d="M220.133,79.55L219.043,79.55L219.043,71.34L220.133,71.34L220.133,72.65C220.213,72.456 220.365,72.24 220.588,72C220.812,71.76 221.098,71.55 221.448,71.37C221.798,71.19 222.2,71.1 222.653,71.1C223.033,71.1 223.362,71.15 223.638,71.25C223.915,71.35 224.107,71.446 224.213,71.54L223.733,72.48C223.64,72.4 223.477,72.315 223.243,72.225C223.01,72.135 222.723,72.09 222.383,72.09C221.93,72.09 221.533,72.245 221.193,72.555C220.853,72.865 220.592,73.233 220.408,73.66C220.225,74.086 220.133,74.48 220.133,74.84L220.133,79.55Z" style="fill:rgb(48,48,48);fill-rule:nonzero;"/>
    <path d="M225.833,75.58C225.84,76.153 225.955,76.69 226.178,77.19C226.402,77.69 226.74,78.093 227.193,78.4C227.647,78.706 228.217,78.86 228.903,78.86C229.463,78.86 229.932,78.768 230.308,78.585C230.685,78.401 230.985,78.188 231.208,77.945C231.432,77.701 231.59,77.483 231.683,77.29L232.393,77.99C232.02,78.563 231.56,79.006 231.013,79.32C230.467,79.633 229.743,79.79 228.843,79.79C227.97,79.79 227.225,79.595 226.608,79.205C225.992,78.815 225.522,78.283 225.198,77.61C224.875,76.936 224.713,76.18 224.713,75.34C224.713,74.54 224.873,73.82 225.193,73.18C225.513,72.54 225.975,72.033 226.578,71.66C227.182,71.286 227.91,71.1 228.763,71.1C229.537,71.1 230.21,71.27 230.783,71.61C231.357,71.95 231.8,72.421 232.113,73.025C232.427,73.628 232.583,74.33 232.583,75.13L232.563,75.58L225.833,75.58ZM231.443,74.63C231.437,74.27 231.348,73.888 231.178,73.485C231.008,73.081 230.732,72.738 230.348,72.455C229.965,72.171 229.44,72.03 228.773,72.03C228.073,72.03 227.518,72.168 227.108,72.445C226.698,72.721 226.4,73.06 226.213,73.46C226.027,73.86 225.917,74.25 225.883,74.63L231.443,74.63Z" style="fill:rgb(48,48,48);fill-rule:nonzero;"/>
    <path d="M248.653,71.1C249.553,71.1 250.24,71.401 250.713,72.005C251.187,72.608 251.423,73.536 251.423,74.79L251.423,79.55L250.323,79.55L250.323,75.09C250.323,74.05 250.182,73.285 249.898,72.795C249.615,72.305 249.113,72.06 248.393,72.06C248.02,72.06 247.655,72.161 247.298,72.365C246.942,72.568 246.645,72.893 246.408,73.34C246.172,73.786 246.053,74.37 246.053,75.09L246.053,79.55L244.993,79.55L244.993,75.09C244.993,74.05 244.812,73.285 244.448,72.795C244.085,72.305 243.61,72.06 243.023,72.06C242.65,72.06 242.288,72.158 241.938,72.355C241.588,72.551 241.3,72.871 241.073,73.315C240.847,73.758 240.733,74.35 240.733,75.09L240.733,79.55L239.623,79.55L239.623,71.34L240.733,71.34L240.733,72.64C240.8,72.433 240.95,72.21 241.183,71.97C241.417,71.73 241.72,71.525 242.093,71.355C242.467,71.185 242.897,71.1 243.383,71.1C243.883,71.1 244.302,71.215 244.638,71.445C244.975,71.675 245.235,71.948 245.418,72.265C245.602,72.581 245.717,72.866 245.763,73.12C245.857,72.806 246.035,72.495 246.298,72.185C246.562,71.875 246.893,71.616 247.293,71.41C247.693,71.203 248.147,71.1 248.653,71.1Z" style="fill:rgb(48,48,48);fill-rule:nonzero;"/>
    <path d="M254.923,67.99C254.69,67.99 254.488,67.905 254.318,67.735C254.148,67.565 254.063,67.363 254.063,67.13C254.063,66.89 254.148,66.685 254.318,66.515C254.488,66.345 254.69,66.26 254.923,66.26C255.163,66.26 255.372,66.345 255.548,66.515C255.725,66.685 255.813,66.89 255.813,67.13C255.813,67.363 255.727,67.565 255.553,67.735C255.38,67.905 255.17,67.99 254.923,67.99ZM254.353,79.55L254.353,71.34L255.463,71.34L255.463,79.55L254.353,79.55Z" style="fill:rgb(48,48,48);fill-rule:nonzero;"/>
    <path d="M262.143,83.93C261.117,83.93 260.29,83.77 259.663,83.45C259.037,83.13 258.58,82.76 258.293,82.34L259.123,81.61C259.243,81.783 259.41,81.973 259.623,82.18C259.837,82.386 260.14,82.565 260.533,82.715C260.927,82.865 261.453,82.94 262.113,82.94C262.767,82.94 263.315,82.793 263.758,82.5C264.202,82.206 264.538,81.813 264.768,81.32C264.998,80.826 265.113,80.286 265.113,79.7L265.113,77.83C265.067,78.01 264.912,78.255 264.648,78.565C264.385,78.875 264.022,79.156 263.558,79.41C263.095,79.663 262.543,79.79 261.903,79.79C261.163,79.79 260.482,79.616 259.858,79.27C259.235,78.923 258.735,78.426 258.358,77.78C257.982,77.133 257.793,76.356 257.793,75.45C257.793,74.543 257.982,73.765 258.358,73.115C258.735,72.465 259.235,71.966 259.858,71.62C260.482,71.273 261.163,71.1 261.903,71.1C262.537,71.1 263.087,71.22 263.553,71.46C264.02,71.7 264.387,71.973 264.653,72.28C264.92,72.586 265.07,72.843 265.103,73.05L265.103,71.34L266.203,71.34L266.203,79.79C266.203,80.69 266.02,81.448 265.653,82.065C265.287,82.681 264.797,83.146 264.183,83.46C263.57,83.773 262.89,83.93 262.143,83.93ZM258.893,75.45C258.893,76.143 259.045,76.741 259.348,77.245C259.652,77.748 260.043,78.135 260.523,78.405C261.003,78.675 261.507,78.81 262.033,78.81C262.907,78.81 263.632,78.506 264.208,77.9C264.785,77.293 265.073,76.476 265.073,75.45C265.073,74.43 264.785,73.613 264.208,73C263.632,72.386 262.907,72.08 262.033,72.08C261.507,72.08 261.003,72.216 260.523,72.49C260.043,72.763 259.652,73.151 259.348,73.655C259.045,74.158 258.893,74.756 258.893,75.45Z" style="fill:rgb(48,48,48);fill-rule:nonzero;"/>
    <path d="M269.993,79.55L268.903,79.55L268.903,71.34L269.993,71.34L269.993,72.65C270.073,72.456 270.225,72.24 270.448,72C270.672,71.76 270.958,71.55 271.308,71.37C271.658,71.19 272.06,71.1 272.513,71.1C272.893,71.1 273.222,71.15 273.498,71.25C273.775,71.35 273.967,71.446 274.073,71.54L273.593,72.48C273.5,72.4 273.337,72.315 273.103,72.225C272.87,72.135 272.583,72.09 272.243,72.09C271.79,72.09 271.393,72.245 271.053,72.555C270.713,72.865 270.452,73.233 270.268,73.66C270.085,74.086 269.993,74.48 269.993,74.84L269.993,79.55Z" style="fill:rgb(48,48,48);fill-rule:nonzero;"/>
    <path d="M281.893,79.55L281.893,77.83C281.847,78.01 281.692,78.255 281.428,78.565C281.165,78.875 280.802,79.156 280.338,79.41C279.875,79.663 279.323,79.79 278.683,79.79C277.943,79.79 277.262,79.616 276.638,79.27C276.015,78.923 275.515,78.426 275.138,77.78C274.762,77.133 274.573,76.356 274.573,75.45C274.573,74.543 274.762,73.765 275.138,73.115C275.515,72.465 276.015,71.966 276.638,71.62C277.262,71.273 277.943,71.1 278.683,71.1C279.317,71.1 279.867,71.22 280.333,71.46C280.8,71.7 281.167,71.973 281.433,72.28C281.7,72.586 281.85,72.843 281.883,73.05L281.883,71.34L282.983,71.34L282.983,79.55L281.893,79.55ZM275.673,75.45C275.673,76.143 275.825,76.741 276.128,77.245C276.432,77.748 276.823,78.135 277.303,78.405C277.783,78.675 278.287,78.81 278.813,78.81C279.687,78.81 280.412,78.506 280.988,77.9C281.565,77.293 281.853,76.476 281.853,75.45C281.853,74.43 281.565,73.613 280.988,73C280.412,72.386 279.687,72.08 278.813,72.08C278.287,72.08 277.783,72.216 277.303,72.49C276.823,72.763 276.432,73.151 276.128,73.655C275.825,74.158 275.673,74.756 275.673,75.45Z" style="fill:rgb(48,48,48);fill-rule:nonzero;"/>
    <path d="M284.803,71.34L286.523,71.34L286.523,67.97L287.623,67.97L287.623,71.34L289.863,71.34L289.863,72.35L287.623,72.35L287.623,77.25C287.623,77.81 287.725,78.205 287.928,78.435C288.132,78.665 288.383,78.78 288.683,78.78C288.963,78.78 289.178,78.73 289.328,78.63C289.478,78.53 289.567,78.463 289.593,78.43L290.113,79.28C290.06,79.333 289.893,79.431 289.613,79.575C289.333,79.718 288.96,79.79 288.493,79.79C287.933,79.79 287.465,79.611 287.088,79.255C286.712,78.898 286.523,78.326 286.523,77.54L286.523,72.35L284.803,72.35L284.803,71.34Z" style="fill:rgb(48,48,48);fill-rule:nonzero;"/>
    <path d="M292.613,67.99C292.38,67.99 292.178,67.905 292.008,67.735C291.838,67.565 291.753,67.363 291.753,67.13C291.753,66.89 291.838,66.685 292.008,66.515C292.178,66.345 292.38,66.26 292.613,66.26C292.853,66.26 293.062,66.345 293.238,66.515C293.415,66.685 293.503,66.89 293.503,67.13C293.503,67.363 293.417,67.565 293.243,67.735C293.07,67.905 292.86,67.99 292.613,67.99ZM292.043,79.55L292.043,71.34L293.153,71.34L293.153,79.55L292.043,79.55Z" style="fill:rgb(48,48,48);fill-rule:nonzero;"/>
    <path d="M299.703,79.79C298.883,79.79 298.157,79.598 297.523,79.215C296.89,78.831 296.392,78.313 296.028,77.66C295.665,77.006 295.483,76.276 295.483,75.47C295.483,74.663 295.665,73.93 296.028,73.27C296.392,72.61 296.89,72.083 297.523,71.69C298.157,71.296 298.883,71.1 299.703,71.1C300.523,71.1 301.248,71.296 301.878,71.69C302.508,72.083 303.003,72.61 303.363,73.27C303.723,73.93 303.903,74.663 303.903,75.47C303.903,76.276 303.723,77.006 303.363,77.66C303.003,78.313 302.508,78.831 301.878,79.215C301.248,79.598 300.523,79.79 299.703,79.79ZM299.703,78.78C300.33,78.78 300.877,78.635 301.343,78.345C301.81,78.055 302.173,77.66 302.433,77.16C302.693,76.66 302.823,76.096 302.823,75.47C302.823,74.843 302.693,74.275 302.433,73.765C302.173,73.255 301.81,72.851 301.343,72.555C300.877,72.258 300.33,72.11 299.703,72.11C299.077,72.11 298.528,72.258 298.058,72.555C297.588,72.851 297.223,73.255 296.963,73.765C296.703,74.275 296.573,74.843 296.573,75.47C296.573,76.096 296.703,76.66 296.963,77.16C297.223,77.66 297.588,78.055 298.058,78.345C298.528,78.635 299.077,78.78 299.703,78.78Z" style="fill:rgb(48,48,48);fill-rule:nonzero;"/>
    <path d="M310.073,71.1C310.587,71.1 311.088,71.211 311.578,71.435C312.068,71.658 312.473,72.01 312.793,72.49C313.113,72.97 313.273,73.596 313.273,74.37L313.273,79.55L312.143,79.55L312.143,74.64C312.143,73.72 311.928,73.056 311.498,72.65C311.068,72.243 310.52,72.04 309.853,72.04C309.413,72.04 308.987,72.168 308.573,72.425C308.16,72.681 307.822,73.03 307.558,73.47C307.295,73.91 307.163,74.406 307.163,74.96L307.163,79.55L306.053,79.55L306.053,71.34L307.163,71.34L307.163,72.93C307.21,72.69 307.368,72.428 307.638,72.145C307.908,71.861 308.255,71.616 308.678,71.41C309.102,71.203 309.567,71.1 310.073,71.1Z" style="fill:rgb(48,48,48);fill-rule:nonzero;"/>
    <path d="M318.583,71.1C319.15,71.1 319.663,71.19 320.123,71.37C320.583,71.55 320.91,71.72 321.103,71.88L320.563,72.65C320.417,72.516 320.172,72.373 319.828,72.22C319.485,72.066 319.093,71.99 318.653,71.99C318.12,71.99 317.665,72.103 317.288,72.33C316.912,72.556 316.723,72.876 316.723,73.29C316.723,73.703 316.913,74.03 317.293,74.27C317.673,74.51 318.177,74.71 318.803,74.87C319.277,74.99 319.708,75.14 320.098,75.32C320.488,75.5 320.798,75.745 321.028,76.055C321.258,76.365 321.373,76.776 321.373,77.29C321.373,77.863 321.22,78.335 320.913,78.705C320.607,79.075 320.203,79.348 319.703,79.525C319.203,79.701 318.667,79.79 318.093,79.79C317.413,79.79 316.823,79.685 316.323,79.475C315.823,79.265 315.47,79.07 315.263,78.89L315.823,78.02C315.997,78.2 316.283,78.385 316.683,78.575C317.083,78.765 317.55,78.86 318.083,78.86C318.703,78.86 319.217,78.715 319.623,78.425C320.03,78.135 320.233,77.756 320.233,77.29C320.233,76.943 320.135,76.665 319.938,76.455C319.742,76.245 319.487,76.08 319.173,75.96C318.86,75.84 318.527,75.733 318.173,75.64C317.72,75.533 317.298,75.385 316.908,75.195C316.518,75.005 316.203,74.753 315.963,74.44C315.723,74.126 315.603,73.736 315.603,73.27C315.603,72.83 315.74,72.448 316.013,72.125C316.287,71.801 316.648,71.55 317.098,71.37C317.548,71.19 318.043,71.1 318.583,71.1Z" style="fill:rgb(48,48,48);fill-rule:nonzero;"/>
    <g id="Icon">
        <path id="Wheel" d="M50.809,31.39C51.346,31.39 51.787,31.815 51.808,32.352C51.821,32.577 51.829,32.78 51.824,32.902C51.461,42.153 42.501,51.249 31.328,51.249C20.213,51.249 10.889,42.27 11.251,33.067C11.26,32.839 11.275,32.576 11.295,32.311C11.336,31.791 11.77,31.391 12.291,31.391C14.064,31.39 18.012,31.39 19.969,31.39C20.247,31.391 20.513,31.507 20.702,31.712C20.891,31.916 20.987,32.19 20.965,32.468C20.952,32.621 20.943,32.769 20.938,32.902C20.748,37.73 25.45,41.622 31.281,41.622C37.016,41.622 41.951,37.816 42.137,33.067C42.137,33.067 42.137,33.066 42.137,33.066C42.174,32.13 42.943,31.39 43.88,31.39C45.953,31.39 49.229,31.39 50.809,31.39Z" style="fill:rgb(48,48,48);"/>
        <path id="Guard" d="M60.855,22.803L0.096,22.803C-0.661,27.421 3.127,30.062 8.775,30.062L50.532,30.069C54.864,30.069 58.694,27.038 60.855,22.803ZM62.479,16.857L4.426,16.857C3.809,16.857 3.226,17.141 2.847,17.628C2.312,18.322 1.877,18.973 1.529,19.53L60.236,19.473C61.65,19.473 62.138,18.344 62.479,16.857ZM6.39,13.554C6.39,13.554 54.507,13.58 61.963,13.584C62.508,13.585 62.953,13.149 62.964,12.604C63.035,7.486 61.72,2.557 56.575,0.753C43.924,-3.141 10.683,9.115 6.39,13.554Z" style="fill:rgb(0,151,231);"/>
    </g>
    <path id="Name" d="M88.574,2.318C91.43,2.318 93.92,2.636 96.044,3.272C98.168,3.908 99.86,4.586 101.12,5.306C102.38,6.026 103.142,6.494 103.406,6.71L99.014,13.982C98.654,13.67 98.012,13.238 97.088,12.686C96.164,12.134 95.048,11.63 93.74,11.174C92.432,10.718 91.022,10.49 89.51,10.49C87.326,10.49 85.58,10.898 84.272,11.714C82.964,12.53 82.31,13.742 82.31,15.35C82.31,16.934 83.084,18.278 84.632,19.382C86.18,20.486 88.442,21.614 91.418,22.766C93.698,23.654 95.846,24.752 97.862,26.06C99.878,27.368 101.51,28.982 102.758,30.902C104.006,32.822 104.63,35.15 104.63,37.886C104.63,40.91 103.826,43.436 102.218,45.464C100.61,47.492 98.492,49.016 95.864,50.036C93.236,51.056 90.386,51.566 87.314,51.566C84.17,51.566 81.362,51.2 78.89,50.468C76.418,49.736 74.414,48.956 72.878,48.128C71.342,47.3 70.442,46.754 70.178,46.49L74.75,38.93C75.134,39.218 75.968,39.716 77.252,40.424C78.536,41.132 80.072,41.786 81.86,42.386C83.648,42.986 85.49,43.286 87.386,43.286C90.002,43.286 91.97,42.746 93.29,41.666C94.61,40.586 95.27,39.182 95.27,37.454C95.27,35.486 94.346,33.86 92.498,32.576C90.65,31.292 88.154,30.014 85.01,28.742C82.898,27.854 80.936,26.816 79.124,25.628C77.312,24.44 75.854,22.976 74.75,21.236C73.646,19.496 73.094,17.354 73.094,14.81C73.094,12.29 73.808,10.094 75.236,8.222C76.664,6.35 78.554,4.898 80.906,3.866C83.258,2.834 85.814,2.318 88.574,2.318Z" style="fill:rgb(48,48,48);fill-rule:nonzero;"/>
    <path d="M125.51,44.33C127.07,44.33 128.342,44.066 129.326,43.538C130.31,43.01 130.958,42.614 131.27,42.35L135.518,48.614C135.014,49.046 133.862,49.646 132.062,50.414C130.262,51.182 128.03,51.566 125.366,51.566C122.222,51.566 119.42,50.936 116.96,49.676C114.5,48.416 112.556,46.616 111.128,44.276C109.7,41.936 108.986,39.146 108.986,35.906C108.986,32.642 109.7,29.846 111.128,27.518C112.556,25.19 114.5,23.402 116.96,22.154C119.42,20.906 122.222,20.282 125.366,20.282C127.982,20.282 130.19,20.684 131.99,21.488C133.79,22.292 134.954,22.922 135.482,23.378L131.162,29.678C130.898,29.438 130.292,29.018 129.344,28.418C128.396,27.818 127.118,27.518 125.51,27.518C124.166,27.518 122.9,27.866 121.712,28.562C120.524,29.258 119.558,30.236 118.814,31.496C118.07,32.756 117.698,34.226 117.698,35.906C117.698,37.61 118.07,39.092 118.814,40.352C119.558,41.612 120.524,42.59 121.712,43.286C122.9,43.982 124.166,44.33 125.51,44.33Z" style="fill:rgb(48,48,48);fill-rule:nonzero;"/>
    <path d="M153.842,51.566C150.698,51.566 147.902,50.894 145.454,49.55C143.006,48.206 141.08,46.364 139.676,44.024C138.272,41.684 137.57,39.014 137.57,36.014C137.57,33.014 138.272,30.332 139.676,27.968C141.08,25.604 143.006,23.732 145.454,22.352C147.902,20.972 150.698,20.282 153.842,20.282C157.01,20.282 159.8,20.972 162.212,22.352C164.624,23.732 166.514,25.604 167.882,27.968C169.25,30.332 169.934,33.014 169.934,36.014C169.934,39.014 169.25,41.684 167.882,44.024C166.514,46.364 164.624,48.206 162.212,49.55C159.8,50.894 157.01,51.566 153.842,51.566ZM153.842,44.006C156.122,44.006 157.94,43.25 159.296,41.738C160.652,40.226 161.33,38.306 161.33,35.978C161.33,33.65 160.652,31.712 159.296,30.164C157.94,28.616 156.122,27.842 153.842,27.842C151.562,27.842 149.732,28.616 148.352,30.164C146.972,31.712 146.282,33.65 146.282,35.978C146.282,38.306 146.972,40.226 148.352,41.738C149.732,43.25 151.562,44.006 153.842,44.006Z" style="fill:rgb(48,48,48);fill-rule:nonzero;"/>
    <path d="M189.302,51.566C186.158,51.566 183.362,50.894 180.914,49.55C178.466,48.206 176.54,46.364 175.136,44.024C173.732,41.684 173.03,39.014 173.03,36.014C173.03,33.014 173.732,30.332 175.136,27.968C176.54,25.604 178.466,23.732 180.914,22.352C183.362,20.972 186.158,20.282 189.302,20.282C192.47,20.282 195.26,20.972 197.672,22.352C200.084,23.732 201.974,25.604 203.342,27.968C204.71,30.332 205.394,33.014 205.394,36.014C205.394,39.014 204.71,41.684 203.342,44.024C201.974,46.364 200.084,48.206 197.672,49.55C195.26,50.894 192.47,51.566 189.302,51.566ZM189.302,44.006C191.582,44.006 193.4,43.25 194.756,41.738C196.112,40.226 196.79,38.306 196.79,35.978C196.79,33.65 196.112,31.712 194.756,30.164C193.4,28.616 191.582,27.842 189.302,27.842C187.022,27.842 185.192,28.616 183.812,30.164C182.432,31.712 181.742,33.65 181.742,35.978C181.742,38.306 182.432,40.226 183.812,41.738C185.192,43.25 187.022,44.006 189.302,44.006Z" style="fill:rgb(48,48,48);fill-rule:nonzero;"/>
    <path d="M207.77,21.146L213.098,21.146L213.098,9.014L222.098,9.014L222.098,21.146L229.118,21.146L229.118,28.706L222.098,28.706L222.098,39.47C222.098,42.446 223.046,43.934 224.942,43.934C225.686,43.934 226.304,43.784 226.796,43.484C227.288,43.184 227.582,42.974 227.678,42.854L230.882,49.37C230.642,49.61 229.742,50.036 228.182,50.648C226.622,51.26 224.714,51.566 222.458,51.566C219.746,51.566 217.508,50.786 215.744,49.226C213.98,47.666 213.098,45.23 213.098,41.918L213.098,28.706L207.77,28.706L207.77,21.146Z" style="fill:rgb(48,48,48);fill-rule:nonzero;"/>
    <path d="M241.178,37.994C241.25,39.962 241.994,41.588 243.41,42.872C244.826,44.156 246.83,44.798 249.422,44.798C251.726,44.798 253.634,44.402 255.146,43.61C256.658,42.818 257.726,42.038 258.35,41.27L262.202,46.958C261.17,48.23 259.646,49.316 257.63,50.216C255.614,51.116 252.686,51.566 248.846,51.566C245.582,51.566 242.72,50.93 240.26,49.658C237.8,48.386 235.88,46.556 234.5,44.168C233.12,41.78 232.43,38.918 232.43,35.582C232.43,32.702 233.048,30.11 234.284,27.806C235.52,25.502 237.308,23.672 239.648,22.316C241.988,20.96 244.814,20.282 248.126,20.282C252.782,20.282 256.484,21.608 259.232,24.26C261.98,26.912 263.354,30.71 263.354,35.654C263.354,35.846 263.348,36.236 263.336,36.824C263.324,37.412 263.294,37.802 263.246,37.994L241.178,37.994ZM254.642,32.306C254.594,31.562 254.354,30.752 253.922,29.876C253.49,29 252.812,28.256 251.888,27.644C250.964,27.032 249.746,26.726 248.234,26.726C245.93,26.726 244.238,27.344 243.158,28.58C242.078,29.816 241.49,31.058 241.394,32.306L254.642,32.306Z" style="fill:rgb(48,48,48);fill-rule:nonzero;"/>
    <path d="M276.71,50.702L267.638,50.702L267.638,21.146L276.71,21.146L276.71,25.466C276.998,24.842 277.532,24.122 278.312,23.306C279.092,22.49 280.118,21.782 281.39,21.182C282.662,20.582 284.174,20.282 285.926,20.282C287.294,20.282 288.53,20.48 289.634,20.876C290.738,21.272 291.542,21.662 292.046,22.046L288.482,29.498C288.146,29.114 287.552,28.718 286.7,28.31C285.848,27.902 284.798,27.698 283.55,27.698C282.014,27.698 280.742,28.112 279.734,28.94C278.726,29.768 277.97,30.776 277.466,31.964C276.962,33.152 276.71,34.262 276.71,35.294L276.71,50.702Z" style="fill:rgb(48,48,48);fill-rule:nonzero;"/>
</svg>
