<?xml version="1.0" encoding="UTF-8" standalone="no"?>
<!DOCTYPE svg PUBLIC "-//W3C//DTD SVG 1.1//EN" "http://www.w3.org/Graphics/SVG/1.1/DTD/svg11.dtd">
<svg width="100%" height="100%" viewBox="0 0 394 78" version="1.1" xmlns="http://www.w3.org/2000/svg" xmlns:xlink="http://www.w3.org/1999/xlink" xml:space="preserve" xmlns:serif="http://www.serif.com/" style="fill-rule:evenodd;clip-rule:evenodd;stroke-linejoin:round;stroke-miterlimit:2;">
    <style>
        #Guard, #Name {
            fill: #20aeda;
        }

    </style>
    <g id="Icon" transform="matrix(0.331315,0,0,0.361883,-113.422,-73.9959)">
        <g id="Wheel" transform="matrix(2.28496,0,-0.0775267,1.80755,78.5462,0.844609)">
            <path d="M225.166,185.651C225.299,186.609 225.48,188.045 225.48,188.747C225.48,210.155 208.278,231.206 185.936,231.206C163.711,231.206 144.362,210.426 144.362,189.129C144.362,188.419 144.383,187.714 144.424,187.015C144.47,186.239 145.016,185.652 145.69,185.652C149.877,185.651 163.965,185.651 163.965,185.651C163.803,186.657 163.72,187.69 163.72,188.747C163.72,199.919 173.427,208.926 185.086,208.926C196.555,208.926 206.122,200.118 206.122,189.129C206.122,188.974 206.12,188.82 206.116,188.666C206.08,186.995 207.21,185.653 208.653,185.653C214.046,185.651 225.166,185.651 225.166,185.651Z"/>
        </g>
        <g id="Guard" transform="matrix(3.01827,0,0,2.76332,-108.804,-136.837)">
            <path d="M241.592,158.059L149.616,158.059C148.47,165.051 154.204,168.988 162.753,168.988L225.965,168.903C232.524,168.903 238.321,164.47 241.592,158.059ZM244.05,149.059L155.672,149.059C155.071,149.059 154.501,149.329 154.121,149.795C153.15,150.99 152.383,152.089 151.785,153.046L240.655,152.96C242.796,152.96 243.535,151.309 244.05,149.059ZM159.143,144.701C159.143,144.701 234.405,144.125 243.777,144.053C244.315,144.049 244.753,143.621 244.77,143.084C244.979,135.151 243.077,127.413 235.112,124.622C215.962,118.727 165.643,137.982 159.143,144.701Z"/>
        </g>
    </g>
    <g id="Name" transform="matrix(1,0,0,1,33.302,-286.604)">
        <g transform="matrix(92,0,0,92,74.9365,359.596)">
            <path d="M0.274,-0.672C0.313,-0.672 0.348,-0.668 0.377,-0.659C0.407,-0.65 0.43,-0.641 0.448,-0.63C0.465,-0.621 0.476,-0.614 0.48,-0.611L0.419,-0.51C0.413,-0.514 0.405,-0.52 0.392,-0.528C0.379,-0.536 0.363,-0.543 0.345,-0.549C0.327,-0.555 0.308,-0.559 0.286,-0.559C0.256,-0.559 0.232,-0.553 0.214,-0.542C0.196,-0.53 0.187,-0.513 0.187,-0.491C0.187,-0.469 0.197,-0.45 0.219,-0.435C0.24,-0.42 0.272,-0.404 0.313,-0.388C0.345,-0.376 0.375,-0.36 0.403,-0.342C0.431,-0.324 0.453,-0.302 0.47,-0.275C0.488,-0.248 0.497,-0.216 0.497,-0.178C0.497,-0.136 0.485,-0.101 0.463,-0.073C0.441,-0.045 0.411,-0.023 0.375,-0.009C0.338,0.005 0.299,0.012 0.256,0.012C0.212,0.012 0.173,0.007 0.139,-0.003C0.105,-0.013 0.077,-0.024 0.056,-0.036C0.034,-0.047 0.022,-0.055 0.018,-0.059L0.082,-0.164C0.087,-0.16 0.098,-0.153 0.116,-0.143C0.134,-0.133 0.155,-0.124 0.18,-0.116C0.205,-0.107 0.231,-0.103 0.257,-0.103C0.293,-0.103 0.321,-0.111 0.339,-0.126C0.357,-0.141 0.367,-0.16 0.367,-0.184C0.367,-0.211 0.354,-0.234 0.328,-0.252C0.302,-0.27 0.268,-0.287 0.224,-0.305C0.195,-0.317 0.167,-0.332 0.142,-0.348C0.117,-0.365 0.097,-0.385 0.082,-0.409C0.066,-0.433 0.059,-0.463 0.059,-0.499C0.059,-0.534 0.068,-0.564 0.088,-0.59C0.108,-0.616 0.134,-0.636 0.167,-0.651C0.2,-0.665 0.235,-0.672 0.274,-0.672Z" style="fill-rule:nonzero;"/>
        </g>
        <g transform="matrix(92,0,0,92,123.604,359.596)">
            <path d="M0.258,-0.089C0.279,-0.089 0.297,-0.092 0.311,-0.1C0.324,-0.107 0.333,-0.112 0.338,-0.116L0.397,-0.029C0.39,-0.023 0.374,-0.015 0.348,-0.004C0.324,0.007 0.293,0.012 0.256,0.012C0.212,0.012 0.173,0.003 0.139,-0.014C0.105,-0.032 0.078,-0.057 0.058,-0.089C0.038,-0.122 0.028,-0.161 0.028,-0.205C0.028,-0.251 0.038,-0.29 0.058,-0.322C0.078,-0.354 0.105,-0.379 0.139,-0.397C0.173,-0.414 0.212,-0.423 0.256,-0.423C0.292,-0.423 0.323,-0.417 0.347,-0.406C0.373,-0.395 0.389,-0.386 0.396,-0.38L0.336,-0.292C0.332,-0.295 0.324,-0.301 0.311,-0.31C0.298,-0.318 0.28,-0.322 0.258,-0.322C0.239,-0.322 0.221,-0.317 0.205,-0.308C0.188,-0.298 0.175,-0.284 0.165,-0.267C0.154,-0.249 0.149,-0.229 0.149,-0.205C0.149,-0.182 0.154,-0.161 0.165,-0.144C0.175,-0.126 0.188,-0.113 0.205,-0.103C0.221,-0.093 0.239,-0.089 0.258,-0.089Z" style="fill-rule:nonzero;"/>
        </g>
        <g transform="matrix(92,0,0,92,160.726,359.596)">
            <path d="M0.248,0.012C0.204,0.012 0.165,0.003 0.131,-0.016C0.097,-0.035 0.07,-0.06 0.051,-0.093C0.031,-0.125 0.021,-0.162 0.021,-0.204C0.021,-0.246 0.031,-0.283 0.051,-0.316C0.07,-0.349 0.097,-0.375 0.131,-0.394C0.165,-0.413 0.204,-0.423 0.248,-0.423C0.292,-0.423 0.33,-0.413 0.364,-0.394C0.397,-0.375 0.424,-0.349 0.443,-0.316C0.462,-0.283 0.471,-0.246 0.471,-0.204C0.471,-0.162 0.462,-0.125 0.443,-0.093C0.424,-0.06 0.397,-0.035 0.364,-0.016C0.33,0.003 0.292,0.012 0.248,0.012ZM0.248,-0.093C0.279,-0.093 0.304,-0.103 0.323,-0.125C0.342,-0.146 0.352,-0.172 0.352,-0.204C0.352,-0.237 0.342,-0.264 0.323,-0.285C0.304,-0.307 0.279,-0.318 0.248,-0.318C0.216,-0.318 0.19,-0.307 0.171,-0.285C0.152,-0.264 0.142,-0.237 0.142,-0.204C0.142,-0.172 0.152,-0.146 0.171,-0.125C0.19,-0.103 0.216,-0.093 0.248,-0.093Z" style="fill-rule:nonzero;"/>
        </g>
        <g transform="matrix(92,0,0,92,206.036,359.596)">
            <path d="M0.248,0.012C0.204,0.012 0.165,0.003 0.131,-0.016C0.097,-0.035 0.07,-0.06 0.051,-0.093C0.031,-0.125 0.021,-0.162 0.021,-0.204C0.021,-0.246 0.031,-0.283 0.051,-0.316C0.07,-0.349 0.097,-0.375 0.131,-0.394C0.165,-0.413 0.204,-0.423 0.248,-0.423C0.292,-0.423 0.33,-0.413 0.364,-0.394C0.397,-0.375 0.424,-0.349 0.443,-0.316C0.462,-0.283 0.471,-0.246 0.471,-0.204C0.471,-0.162 0.462,-0.125 0.443,-0.093C0.424,-0.06 0.397,-0.035 0.364,-0.016C0.33,0.003 0.292,0.012 0.248,0.012ZM0.248,-0.093C0.279,-0.093 0.304,-0.103 0.323,-0.125C0.342,-0.146 0.352,-0.172 0.352,-0.204C0.352,-0.237 0.342,-0.264 0.323,-0.285C0.304,-0.307 0.279,-0.318 0.248,-0.318C0.216,-0.318 0.19,-0.307 0.171,-0.285C0.152,-0.264 0.142,-0.237 0.142,-0.204C0.142,-0.172 0.152,-0.146 0.171,-0.125C0.19,-0.103 0.216,-0.093 0.248,-0.093Z" style="fill-rule:nonzero;"/>
        </g>
        <g transform="matrix(92,0,0,92,251.346,359.596)">
            <path d="M0.012,-0.41L0.086,-0.41L0.086,-0.579L0.211,-0.579L0.211,-0.41L0.308,-0.41L0.308,-0.306L0.211,-0.306L0.211,-0.156C0.211,-0.115 0.224,-0.094 0.25,-0.094C0.26,-0.094 0.269,-0.096 0.276,-0.1C0.283,-0.104 0.287,-0.107 0.288,-0.109L0.333,-0.019C0.329,-0.015 0.317,-0.009 0.295,-0.001C0.273,0.008 0.247,0.012 0.216,0.012C0.178,0.012 0.147,0.001 0.122,-0.021C0.098,-0.042 0.086,-0.076 0.086,-0.122L0.086,-0.306L0.012,-0.306L0.012,-0.41Z" style="fill-rule:nonzero;"/>
        </g>
        <g transform="matrix(92,0,0,92,281.936,359.596)">
            <path d="M0.143,-0.177C0.144,-0.149 0.154,-0.127 0.174,-0.109C0.194,-0.091 0.222,-0.082 0.258,-0.082C0.29,-0.082 0.316,-0.087 0.337,-0.099C0.358,-0.11 0.373,-0.12 0.382,-0.131L0.435,-0.052C0.421,-0.034 0.4,-0.019 0.372,-0.007C0.344,0.006 0.303,0.012 0.25,0.012C0.204,0.012 0.164,0.003 0.13,-0.015C0.096,-0.032 0.069,-0.058 0.05,-0.091C0.031,-0.124 0.021,-0.164 0.021,-0.21C0.021,-0.25 0.03,-0.286 0.047,-0.318C0.064,-0.35 0.089,-0.375 0.122,-0.394C0.154,-0.413 0.194,-0.423 0.239,-0.423C0.304,-0.423 0.356,-0.404 0.394,-0.367C0.432,-0.33 0.451,-0.278 0.451,-0.209C0.451,-0.206 0.451,-0.201 0.451,-0.193C0.451,-0.185 0.45,-0.179 0.45,-0.177L0.143,-0.177ZM0.33,-0.256C0.329,-0.266 0.326,-0.277 0.32,-0.289C0.314,-0.301 0.305,-0.312 0.292,-0.32C0.279,-0.329 0.262,-0.333 0.241,-0.333C0.209,-0.333 0.186,-0.324 0.171,-0.307C0.156,-0.29 0.147,-0.273 0.146,-0.256L0.33,-0.256Z" style="fill-rule:nonzero;"/>
        </g>
        <g transform="matrix(92,0,0,92,325.406,359.596)">
            <path d="M0.164,-0L0.038,-0L0.038,-0.41L0.164,-0.41L0.164,-0.35C0.168,-0.359 0.175,-0.369 0.186,-0.381C0.197,-0.392 0.211,-0.402 0.229,-0.41C0.247,-0.418 0.268,-0.423 0.292,-0.423C0.311,-0.423 0.328,-0.42 0.344,-0.414C0.359,-0.409 0.37,-0.403 0.377,-0.398L0.328,-0.295C0.323,-0.3 0.315,-0.305 0.303,-0.311C0.291,-0.317 0.276,-0.32 0.259,-0.32C0.238,-0.32 0.22,-0.314 0.206,-0.302C0.192,-0.291 0.182,-0.277 0.174,-0.26C0.168,-0.244 0.164,-0.228 0.164,-0.214L0.164,-0Z" style="fill-rule:nonzero;"/>
        </g>
    </g>
</svg>
