<?xml version="1.0" encoding="UTF-8" standalone="no"?>
<!DOCTYPE svg PUBLIC "-//W3C//DTD SVG 1.1//EN" "http://www.w3.org/Graphics/SVG/1.1/DTD/svg11.dtd">
<svg width="100%" height="100%" viewBox="0 0 394 112" version="1.1" xmlns="http://www.w3.org/2000/svg" xmlns:xlink="http://www.w3.org/1999/xlink" xml:space="preserve" xmlns:serif="http://www.serif.com/" style="fill-rule:evenodd;clip-rule:evenodd;stroke-linejoin:round;stroke-miterlimit:2;">
    <g transform="matrix(1.00032,0,0,1,-150.512,-95.732)">
        <g id="Icon" transform="matrix(0.331315,0,0,0.361883,37.0406,21.7361)">
            <g id="Wheel" transform="matrix(2.28496,0,-0.0775267,1.80755,78.5462,0.844609)">
                <path d="M223.959,185.249C224.65,185.248 225.246,185.865 225.325,186.663C225.408,187.476 225.48,188.321 225.48,188.747C225.48,210.155 208.278,231.206 185.936,231.206C163.711,231.206 144.362,210.426 144.362,189.129C144.362,188.381 144.38,187.475 144.421,186.619C144.465,185.841 145.011,185.25 145.687,185.25C149.034,185.249 158.642,185.249 162.409,185.249C162.787,185.249 163.152,185.436 163.414,185.763C163.676,186.089 163.808,186.524 163.778,186.958C163.738,187.582 163.72,188.213 163.72,188.747C163.72,199.919 173.427,208.926 185.086,208.926C196.555,208.926 206.122,200.118 206.122,189.129C206.122,188.869 206.116,188.593 206.104,188.307C206.076,187.497 206.328,186.72 206.803,186.147C207.278,185.575 207.938,185.253 208.638,185.253C212.954,185.249 220.944,185.249 223.959,185.249Z" style="fill:white;"/>
            </g>
            <g id="Guard" transform="matrix(3.01827,0,0,2.76332,-108.804,-136.837)">
                <path d="M241.592,158.059L149.616,158.059C148.47,165.051 154.204,168.988 162.753,168.988L225.965,169C232.524,169 238.321,164.47 241.592,158.059ZM244.05,149L155.674,149C155.071,149 154.499,149.272 154.119,149.742C153.149,150.951 152.383,152.09 151.785,153.046L240.655,152.96C242.796,152.96 243.535,151.25 244.05,149ZM159.143,144.701C159.143,144.701 234.407,144.125 243.778,144.053C244.315,144.049 244.753,143.621 244.77,143.084C244.979,135.151 243.077,127.414 235.112,124.622C215.962,118.727 165.643,137.982 159.143,144.701Z" style="fill:white;"/>
            </g>
        </g>
        <g transform="matrix(0.999676,0,0,1,183.789,-190.872)">
            <g id="Name" transform="matrix(92,0,0,92,74.9365,359.596)">
                <path d="M0.274,-0.672C0.313,-0.672 0.348,-0.668 0.377,-0.659C0.407,-0.65 0.43,-0.641 0.448,-0.63C0.465,-0.621 0.476,-0.614 0.48,-0.611L0.419,-0.51C0.413,-0.514 0.405,-0.52 0.392,-0.528C0.379,-0.536 0.363,-0.543 0.345,-0.549C0.327,-0.555 0.308,-0.559 0.286,-0.559C0.256,-0.559 0.232,-0.553 0.214,-0.542C0.196,-0.53 0.187,-0.513 0.187,-0.491C0.187,-0.469 0.197,-0.45 0.219,-0.435C0.24,-0.42 0.272,-0.404 0.313,-0.388C0.345,-0.376 0.375,-0.36 0.403,-0.342C0.431,-0.324 0.453,-0.302 0.47,-0.275C0.488,-0.248 0.497,-0.216 0.497,-0.178C0.497,-0.136 0.485,-0.101 0.463,-0.073C0.441,-0.045 0.411,-0.023 0.375,-0.009C0.338,0.005 0.299,0.012 0.256,0.012C0.212,0.012 0.173,0.007 0.139,-0.003C0.105,-0.013 0.077,-0.024 0.056,-0.036C0.034,-0.047 0.022,-0.055 0.018,-0.059L0.082,-0.164C0.087,-0.16 0.098,-0.153 0.116,-0.143C0.134,-0.133 0.155,-0.124 0.18,-0.116C0.205,-0.107 0.231,-0.103 0.257,-0.103C0.293,-0.103 0.321,-0.111 0.339,-0.126C0.357,-0.141 0.367,-0.16 0.367,-0.184C0.367,-0.211 0.354,-0.234 0.328,-0.252C0.302,-0.27 0.268,-0.287 0.224,-0.305C0.195,-0.317 0.167,-0.332 0.142,-0.348C0.117,-0.365 0.097,-0.385 0.082,-0.409C0.066,-0.433 0.059,-0.463 0.059,-0.499C0.059,-0.534 0.068,-0.564 0.088,-0.59C0.108,-0.616 0.134,-0.636 0.167,-0.651C0.2,-0.665 0.235,-0.672 0.274,-0.672Z" style="fill:white;fill-rule:nonzero;"/>
            </g>
            <g transform="matrix(92,0,0,92,123.604,359.596)">
                <path d="M0.258,-0.089C0.279,-0.089 0.297,-0.092 0.311,-0.1C0.324,-0.107 0.333,-0.112 0.338,-0.116L0.397,-0.029C0.39,-0.023 0.374,-0.015 0.348,-0.004C0.324,0.007 0.293,0.012 0.256,0.012C0.212,0.012 0.173,0.003 0.139,-0.014C0.105,-0.032 0.078,-0.057 0.058,-0.089C0.038,-0.122 0.028,-0.161 0.028,-0.205C0.028,-0.251 0.038,-0.29 0.058,-0.322C0.078,-0.354 0.105,-0.379 0.139,-0.397C0.173,-0.414 0.212,-0.423 0.256,-0.423C0.292,-0.423 0.323,-0.417 0.347,-0.406C0.373,-0.395 0.389,-0.386 0.396,-0.38L0.336,-0.292C0.332,-0.295 0.324,-0.301 0.311,-0.31C0.298,-0.318 0.28,-0.322 0.258,-0.322C0.239,-0.322 0.221,-0.317 0.205,-0.308C0.188,-0.298 0.175,-0.284 0.165,-0.267C0.154,-0.249 0.149,-0.229 0.149,-0.205C0.149,-0.182 0.154,-0.161 0.165,-0.144C0.175,-0.126 0.188,-0.113 0.205,-0.103C0.221,-0.093 0.239,-0.089 0.258,-0.089Z" style="fill:white;fill-rule:nonzero;"/>
            </g>
            <g transform="matrix(92,0,0,92,160.726,359.596)">
                <path d="M0.248,0.012C0.204,0.012 0.165,0.003 0.131,-0.016C0.097,-0.035 0.07,-0.06 0.051,-0.093C0.031,-0.125 0.021,-0.162 0.021,-0.204C0.021,-0.246 0.031,-0.283 0.051,-0.316C0.07,-0.349 0.097,-0.375 0.131,-0.394C0.165,-0.413 0.204,-0.423 0.248,-0.423C0.292,-0.423 0.33,-0.413 0.364,-0.394C0.397,-0.375 0.424,-0.349 0.443,-0.316C0.462,-0.283 0.471,-0.246 0.471,-0.204C0.471,-0.162 0.462,-0.125 0.443,-0.093C0.424,-0.06 0.397,-0.035 0.364,-0.016C0.33,0.003 0.292,0.012 0.248,0.012ZM0.248,-0.093C0.279,-0.093 0.304,-0.103 0.323,-0.125C0.342,-0.146 0.352,-0.172 0.352,-0.204C0.352,-0.237 0.342,-0.264 0.323,-0.285C0.304,-0.307 0.279,-0.318 0.248,-0.318C0.216,-0.318 0.19,-0.307 0.171,-0.285C0.152,-0.264 0.142,-0.237 0.142,-0.204C0.142,-0.172 0.152,-0.146 0.171,-0.125C0.19,-0.103 0.216,-0.093 0.248,-0.093Z" style="fill:white;fill-rule:nonzero;"/>
            </g>
            <g transform="matrix(92,0,0,92,206.036,359.596)">
                <path d="M0.248,0.012C0.204,0.012 0.165,0.003 0.131,-0.016C0.097,-0.035 0.07,-0.06 0.051,-0.093C0.031,-0.125 0.021,-0.162 0.021,-0.204C0.021,-0.246 0.031,-0.283 0.051,-0.316C0.07,-0.349 0.097,-0.375 0.131,-0.394C0.165,-0.413 0.204,-0.423 0.248,-0.423C0.292,-0.423 0.33,-0.413 0.364,-0.394C0.397,-0.375 0.424,-0.349 0.443,-0.316C0.462,-0.283 0.471,-0.246 0.471,-0.204C0.471,-0.162 0.462,-0.125 0.443,-0.093C0.424,-0.06 0.397,-0.035 0.364,-0.016C0.33,0.003 0.292,0.012 0.248,0.012ZM0.248,-0.093C0.279,-0.093 0.304,-0.103 0.323,-0.125C0.342,-0.146 0.352,-0.172 0.352,-0.204C0.352,-0.237 0.342,-0.264 0.323,-0.285C0.304,-0.307 0.279,-0.318 0.248,-0.318C0.216,-0.318 0.19,-0.307 0.171,-0.285C0.152,-0.264 0.142,-0.237 0.142,-0.204C0.142,-0.172 0.152,-0.146 0.171,-0.125C0.19,-0.103 0.216,-0.093 0.248,-0.093Z" style="fill:white;fill-rule:nonzero;"/>
            </g>
            <g transform="matrix(92,0,0,92,251.346,359.596)">
                <path d="M0.012,-0.41L0.086,-0.41L0.086,-0.579L0.211,-0.579L0.211,-0.41L0.308,-0.41L0.308,-0.306L0.211,-0.306L0.211,-0.156C0.211,-0.115 0.224,-0.094 0.25,-0.094C0.26,-0.094 0.269,-0.096 0.276,-0.1C0.283,-0.104 0.287,-0.107 0.288,-0.109L0.333,-0.019C0.329,-0.015 0.317,-0.009 0.295,-0.001C0.273,0.008 0.247,0.012 0.216,0.012C0.178,0.012 0.147,0.001 0.122,-0.021C0.098,-0.042 0.086,-0.076 0.086,-0.122L0.086,-0.306L0.012,-0.306L0.012,-0.41Z" style="fill:white;fill-rule:nonzero;"/>
            </g>
            <g transform="matrix(92,0,0,92,281.936,359.596)">
                <path d="M0.143,-0.177C0.144,-0.149 0.154,-0.127 0.174,-0.109C0.194,-0.091 0.222,-0.082 0.258,-0.082C0.29,-0.082 0.316,-0.087 0.337,-0.099C0.358,-0.11 0.373,-0.12 0.382,-0.131L0.435,-0.052C0.421,-0.034 0.4,-0.019 0.372,-0.007C0.344,0.006 0.303,0.012 0.25,0.012C0.204,0.012 0.164,0.003 0.13,-0.015C0.096,-0.032 0.069,-0.058 0.05,-0.091C0.031,-0.124 0.021,-0.164 0.021,-0.21C0.021,-0.25 0.03,-0.286 0.047,-0.318C0.064,-0.35 0.089,-0.375 0.122,-0.394C0.154,-0.413 0.194,-0.423 0.239,-0.423C0.304,-0.423 0.356,-0.404 0.394,-0.367C0.432,-0.33 0.451,-0.278 0.451,-0.209L0.451,-0.193C0.451,-0.185 0.45,-0.179 0.45,-0.177L0.143,-0.177ZM0.33,-0.256C0.329,-0.266 0.326,-0.277 0.32,-0.289C0.314,-0.301 0.305,-0.312 0.292,-0.32C0.279,-0.329 0.262,-0.333 0.241,-0.333C0.209,-0.333 0.186,-0.324 0.171,-0.307C0.156,-0.29 0.147,-0.273 0.146,-0.256L0.33,-0.256Z" style="fill:white;fill-rule:nonzero;"/>
            </g>
            <g transform="matrix(92,0,0,92,325.406,359.596)">
                <path d="M0.164,-0L0.038,-0L0.038,-0.41L0.164,-0.41L0.164,-0.35C0.168,-0.359 0.175,-0.369 0.186,-0.381C0.197,-0.392 0.211,-0.402 0.229,-0.41C0.247,-0.418 0.268,-0.423 0.292,-0.423C0.311,-0.423 0.328,-0.42 0.344,-0.414C0.359,-0.409 0.37,-0.403 0.377,-0.398L0.328,-0.295C0.323,-0.3 0.315,-0.305 0.303,-0.311C0.291,-0.317 0.276,-0.32 0.259,-0.32C0.238,-0.32 0.22,-0.314 0.206,-0.302C0.192,-0.291 0.182,-0.277 0.174,-0.26C0.168,-0.244 0.164,-0.228 0.164,-0.214L0.164,-0Z" style="fill:white;fill-rule:nonzero;"/>
            </g>
        </g>
    </g>
    <g transform="matrix(1,0,0,1,-14.3382,8.23525)">
        <g transform="matrix(24,0,0,24,40.4426,98.4288)">
            <path d="M0.255,-0.66L0.359,-0.66L0.607,-0L0.499,-0L0.444,-0.153L0.17,-0.153L0.115,-0L0.007,-0L0.255,-0.66ZM0.203,-0.243L0.411,-0.243L0.308,-0.537L0.306,-0.537L0.203,-0.243Z" style="fill:white;fill-rule:nonzero;"/>
        </g>
        <g transform="matrix(24,0,0,24,61.4186,98.4288)">
            <path d="M0.051,-0.66L0.217,-0.66C0.287,-0.66 0.345,-0.646 0.391,-0.618C0.436,-0.59 0.47,-0.551 0.492,-0.501C0.514,-0.451 0.526,-0.395 0.526,-0.331C0.526,-0.266 0.514,-0.209 0.492,-0.16C0.47,-0.11 0.436,-0.071 0.391,-0.043C0.345,-0.014 0.287,-0 0.217,-0L0.051,-0L0.051,-0.66ZM0.151,-0.569L0.151,-0.092L0.208,-0.092C0.256,-0.092 0.296,-0.102 0.327,-0.122C0.358,-0.143 0.381,-0.171 0.396,-0.207C0.411,-0.243 0.419,-0.283 0.419,-0.33C0.419,-0.376 0.412,-0.417 0.397,-0.453C0.382,-0.489 0.359,-0.517 0.328,-0.538C0.297,-0.558 0.257,-0.569 0.208,-0.569L0.151,-0.569Z" style="fill:white;fill-rule:nonzero;"/>
        </g>
        <g transform="matrix(24,0,0,24,75.2666,98.4288)">
            <path d="M0.266,-0.672C0.304,-0.672 0.338,-0.668 0.366,-0.659C0.394,-0.65 0.417,-0.641 0.433,-0.631C0.45,-0.621 0.46,-0.615 0.463,-0.612L0.412,-0.53C0.407,-0.534 0.398,-0.54 0.386,-0.548C0.373,-0.556 0.357,-0.563 0.339,-0.569C0.32,-0.576 0.299,-0.579 0.276,-0.579C0.241,-0.579 0.214,-0.572 0.193,-0.559C0.173,-0.545 0.163,-0.525 0.163,-0.5C0.163,-0.474 0.174,-0.453 0.199,-0.436C0.223,-0.419 0.255,-0.401 0.297,-0.384C0.328,-0.372 0.358,-0.356 0.386,-0.338C0.415,-0.32 0.438,-0.298 0.456,-0.271C0.474,-0.244 0.484,-0.212 0.484,-0.174C0.484,-0.134 0.473,-0.101 0.452,-0.073C0.431,-0.045 0.403,-0.024 0.368,-0.01C0.332,0.005 0.293,0.012 0.251,0.012C0.209,0.012 0.171,0.007 0.138,-0.003C0.105,-0.013 0.078,-0.024 0.058,-0.035C0.037,-0.046 0.025,-0.053 0.022,-0.057L0.076,-0.142C0.081,-0.138 0.092,-0.131 0.109,-0.122C0.126,-0.112 0.147,-0.103 0.172,-0.095C0.197,-0.086 0.224,-0.082 0.252,-0.082C0.293,-0.082 0.325,-0.091 0.346,-0.109C0.367,-0.127 0.378,-0.151 0.378,-0.179C0.378,-0.201 0.371,-0.219 0.357,-0.235C0.344,-0.251 0.325,-0.265 0.302,-0.278C0.279,-0.291 0.253,-0.304 0.224,-0.317C0.194,-0.33 0.166,-0.344 0.141,-0.361C0.116,-0.377 0.096,-0.397 0.081,-0.42C0.066,-0.443 0.058,-0.472 0.058,-0.505C0.058,-0.539 0.068,-0.568 0.086,-0.593C0.106,-0.618 0.131,-0.637 0.162,-0.651C0.194,-0.665 0.228,-0.672 0.266,-0.672Z" style="fill:white;fill-rule:nonzero;"/>
        </g>
        <g transform="matrix(24,0,0,24,88.1306,98.4288)">
            <path d="M0.053,-0.66L0.154,-0.66L0.154,-0.091L0.408,-0.091L0.408,-0L0.053,-0L0.053,-0.66Z" style="fill:white;fill-rule:nonzero;"/>
        </g>
        <g transform="matrix(24,0,0,24,105.399,98.4288)">
            <path d="M0.013,-0.41L0.094,-0.41L0.094,-0.525C0.094,-0.566 0.101,-0.6 0.116,-0.625C0.131,-0.651 0.15,-0.67 0.174,-0.682C0.197,-0.694 0.222,-0.7 0.247,-0.7C0.277,-0.7 0.301,-0.696 0.317,-0.688C0.333,-0.679 0.343,-0.673 0.346,-0.67L0.306,-0.593C0.304,-0.595 0.299,-0.599 0.291,-0.604C0.283,-0.609 0.272,-0.612 0.258,-0.612C0.248,-0.612 0.238,-0.609 0.229,-0.604C0.219,-0.599 0.211,-0.59 0.204,-0.576C0.198,-0.562 0.195,-0.542 0.195,-0.515L0.195,-0.41L0.309,-0.41L0.309,-0.324L0.195,-0.324L0.195,-0L0.094,-0L0.094,-0.324L0.013,-0.324L0.013,-0.41Z" style="fill:white;fill-rule:nonzero;"/>
        </g>
        <g transform="matrix(24,0,0,24,113.403,98.4288)">
            <path d="M0.245,0.012C0.202,0.012 0.163,0.003 0.13,-0.016C0.097,-0.035 0.071,-0.061 0.052,-0.094C0.033,-0.126 0.024,-0.163 0.024,-0.204C0.024,-0.245 0.033,-0.282 0.052,-0.315C0.071,-0.348 0.097,-0.374 0.13,-0.394C0.163,-0.413 0.202,-0.423 0.245,-0.423C0.287,-0.423 0.325,-0.413 0.358,-0.394C0.391,-0.374 0.417,-0.348 0.436,-0.315C0.454,-0.282 0.464,-0.245 0.464,-0.204C0.464,-0.163 0.454,-0.126 0.436,-0.094C0.417,-0.061 0.391,-0.035 0.358,-0.016C0.325,0.003 0.287,0.012 0.245,0.012ZM0.245,-0.075C0.281,-0.075 0.311,-0.087 0.333,-0.112C0.355,-0.136 0.366,-0.167 0.366,-0.204C0.366,-0.242 0.355,-0.273 0.333,-0.298C0.311,-0.323 0.281,-0.336 0.245,-0.336C0.208,-0.336 0.178,-0.323 0.156,-0.298C0.134,-0.273 0.123,-0.242 0.123,-0.204C0.123,-0.167 0.134,-0.136 0.156,-0.112C0.178,-0.087 0.208,-0.075 0.245,-0.075Z" style="fill:white;fill-rule:nonzero;"/>
        </g>
        <g transform="matrix(24,0,0,24,125.523,98.4288)">
            <path d="M0.148,-0L0.046,-0L0.046,-0.41L0.148,-0.41L0.148,-0.348C0.152,-0.358 0.16,-0.368 0.171,-0.379C0.182,-0.391 0.196,-0.401 0.214,-0.409C0.231,-0.418 0.252,-0.423 0.276,-0.423C0.295,-0.423 0.312,-0.42 0.327,-0.414C0.342,-0.409 0.352,-0.404 0.359,-0.399L0.317,-0.315C0.313,-0.319 0.305,-0.324 0.293,-0.33C0.281,-0.335 0.266,-0.338 0.249,-0.338C0.227,-0.338 0.209,-0.331 0.194,-0.318C0.179,-0.305 0.168,-0.29 0.16,-0.272C0.152,-0.254 0.148,-0.237 0.148,-0.221L0.148,-0Z" style="fill:white;fill-rule:nonzero;"/>
        </g>
        <g transform="matrix(24,0,0,24,140.271,98.4288)">
            <path d="M0.153,0.208L0.051,0.208L0.051,-0.41L0.155,-0.41L0.155,-0.338C0.158,-0.348 0.166,-0.36 0.18,-0.373C0.193,-0.386 0.211,-0.398 0.234,-0.407C0.256,-0.418 0.282,-0.423 0.311,-0.423C0.349,-0.423 0.383,-0.413 0.412,-0.395C0.442,-0.376 0.465,-0.351 0.481,-0.318C0.498,-0.285 0.506,-0.248 0.506,-0.205C0.506,-0.162 0.498,-0.125 0.481,-0.092C0.464,-0.059 0.44,-0.034 0.41,-0.016C0.38,0.003 0.346,0.012 0.308,0.012C0.277,0.012 0.25,0.006 0.228,-0.005C0.206,-0.016 0.188,-0.029 0.175,-0.043C0.162,-0.057 0.155,-0.068 0.153,-0.077L0.153,0.208ZM0.405,-0.205C0.405,-0.245 0.393,-0.278 0.369,-0.302C0.344,-0.327 0.316,-0.339 0.282,-0.339C0.247,-0.339 0.216,-0.327 0.192,-0.302C0.167,-0.277 0.155,-0.245 0.155,-0.205C0.155,-0.165 0.167,-0.133 0.192,-0.108C0.216,-0.084 0.247,-0.071 0.282,-0.071C0.316,-0.071 0.344,-0.084 0.369,-0.108C0.393,-0.132 0.405,-0.164 0.405,-0.205Z" style="fill:white;fill-rule:nonzero;"/>
        </g>
        <g transform="matrix(24,0,0,24,153.315,98.4288)">
            <path d="M0.245,0.012C0.202,0.012 0.163,0.003 0.13,-0.016C0.097,-0.035 0.071,-0.061 0.052,-0.094C0.033,-0.126 0.024,-0.163 0.024,-0.204C0.024,-0.245 0.033,-0.282 0.052,-0.315C0.071,-0.348 0.097,-0.374 0.13,-0.394C0.163,-0.413 0.202,-0.423 0.245,-0.423C0.287,-0.423 0.325,-0.413 0.358,-0.394C0.391,-0.374 0.417,-0.348 0.436,-0.315C0.454,-0.282 0.464,-0.245 0.464,-0.204C0.464,-0.163 0.454,-0.126 0.436,-0.094C0.417,-0.061 0.391,-0.035 0.358,-0.016C0.325,0.003 0.287,0.012 0.245,0.012ZM0.245,-0.075C0.281,-0.075 0.311,-0.087 0.333,-0.112C0.355,-0.136 0.366,-0.167 0.366,-0.204C0.366,-0.242 0.355,-0.273 0.333,-0.298C0.311,-0.323 0.281,-0.336 0.245,-0.336C0.208,-0.336 0.178,-0.323 0.156,-0.298C0.134,-0.273 0.123,-0.242 0.123,-0.204C0.123,-0.167 0.134,-0.136 0.156,-0.112C0.178,-0.087 0.208,-0.075 0.245,-0.075Z" style="fill:white;fill-rule:nonzero;"/>
        </g>
        <g transform="matrix(24,0,0,24,165.435,98.4288)">
            <rect x="0.052" y="-0.688" width="0.104" height="0.688" style="fill:white;fill-rule:nonzero;"/>
        </g>
        <g transform="matrix(24,0,0,24,170.811,98.4288)">
            <path d="M0.111,-0.538C0.093,-0.538 0.078,-0.544 0.066,-0.556C0.053,-0.569 0.047,-0.584 0.047,-0.601C0.047,-0.619 0.053,-0.634 0.066,-0.647C0.078,-0.659 0.093,-0.666 0.111,-0.666C0.128,-0.666 0.143,-0.659 0.157,-0.647C0.17,-0.634 0.176,-0.619 0.176,-0.601C0.176,-0.584 0.17,-0.569 0.157,-0.556C0.144,-0.544 0.129,-0.538 0.111,-0.538ZM0.059,-0L0.059,-0.41L0.161,-0.41L0.161,-0L0.059,-0Z" style="fill:white;fill-rule:nonzero;"/>
        </g>
        <g transform="matrix(24,0,0,24,176.511,98.4288)">
            <path d="M0.251,-0.071C0.275,-0.071 0.295,-0.075 0.31,-0.083C0.325,-0.091 0.334,-0.097 0.339,-0.101L0.388,-0.029C0.384,-0.025 0.375,-0.02 0.363,-0.014C0.35,-0.007 0.334,-0.001 0.315,0.004C0.295,0.009 0.273,0.012 0.248,0.012C0.208,0.012 0.172,0.003 0.139,-0.014C0.106,-0.031 0.079,-0.055 0.059,-0.088C0.039,-0.12 0.029,-0.16 0.029,-0.205C0.029,-0.252 0.039,-0.291 0.059,-0.323C0.079,-0.355 0.106,-0.38 0.139,-0.397C0.172,-0.414 0.208,-0.423 0.248,-0.423C0.272,-0.423 0.294,-0.42 0.313,-0.414C0.332,-0.408 0.348,-0.402 0.361,-0.395C0.374,-0.388 0.382,-0.383 0.387,-0.379L0.337,-0.307C0.333,-0.31 0.324,-0.317 0.31,-0.326C0.295,-0.335 0.276,-0.339 0.251,-0.339C0.23,-0.339 0.211,-0.334 0.192,-0.323C0.173,-0.312 0.158,-0.297 0.146,-0.277C0.134,-0.257 0.129,-0.233 0.129,-0.205C0.129,-0.178 0.134,-0.154 0.146,-0.134C0.158,-0.114 0.173,-0.099 0.192,-0.088C0.211,-0.077 0.23,-0.071 0.251,-0.071Z" style="fill:white;fill-rule:nonzero;"/>
        </g>
        <g transform="matrix(24,0,0,24,186.531,98.4288)">
            <path d="M0.23,-0.092L0.361,-0.41L0.464,-0.41L0.185,0.208L0.082,0.208L0.175,-0L0.005,-0.41L0.109,-0.41L0.23,-0.092Z" style="fill:white;fill-rule:nonzero;"/>
        </g>
        <g transform="matrix(24,0,0,24,197.919,98.4288)">
            <rect x="0.055" y="-0.272" width="0.258" height="0.089" style="fill:white;fill-rule:nonzero;"/>
        </g>
        <g transform="matrix(24,0,0,24,207.099,98.4288)">
            <path d="M0.377,-0L0.377,-0.077C0.374,-0.069 0.367,-0.057 0.354,-0.043C0.341,-0.029 0.324,-0.016 0.303,-0.005C0.281,0.006 0.255,0.012 0.226,0.012C0.188,0.012 0.153,0.003 0.123,-0.016C0.092,-0.034 0.068,-0.059 0.05,-0.092C0.032,-0.125 0.024,-0.162 0.024,-0.205C0.024,-0.248 0.032,-0.285 0.05,-0.318C0.068,-0.351 0.092,-0.376 0.123,-0.395C0.153,-0.413 0.188,-0.423 0.226,-0.423C0.255,-0.423 0.28,-0.417 0.301,-0.407C0.322,-0.397 0.339,-0.385 0.352,-0.372C0.365,-0.359 0.373,-0.347 0.376,-0.338L0.376,-0.41L0.478,-0.41L0.478,-0L0.377,-0ZM0.125,-0.205C0.125,-0.178 0.131,-0.155 0.142,-0.135C0.155,-0.115 0.17,-0.099 0.19,-0.088C0.209,-0.077 0.23,-0.071 0.252,-0.071C0.287,-0.071 0.317,-0.084 0.34,-0.108C0.363,-0.133 0.375,-0.165 0.375,-0.205C0.375,-0.245 0.363,-0.277 0.34,-0.302C0.317,-0.327 0.287,-0.339 0.252,-0.339C0.23,-0.339 0.209,-0.333 0.19,-0.322C0.17,-0.311 0.155,-0.296 0.142,-0.276C0.131,-0.256 0.125,-0.232 0.125,-0.205Z" style="fill:white;fill-rule:nonzero;"/>
        </g>
        <g transform="matrix(24,0,0,24,220.047,98.4288)">
            <path d="M0.332,-0.291L0.23,-0L0.128,-0L0.01,-0.41L0.119,-0.41L0.191,-0.111L0.292,-0.403L0.371,-0.403L0.471,-0.111L0.544,-0.41L0.653,-0.41L0.536,-0L0.434,-0L0.332,-0.291Z" style="fill:white;fill-rule:nonzero;"/>
        </g>
        <g transform="matrix(24,0,0,24,236.343,98.4288)">
            <path d="M0.377,-0L0.377,-0.077C0.374,-0.069 0.367,-0.057 0.354,-0.043C0.341,-0.029 0.324,-0.016 0.303,-0.005C0.281,0.006 0.255,0.012 0.226,0.012C0.188,0.012 0.153,0.003 0.123,-0.016C0.092,-0.034 0.068,-0.059 0.05,-0.092C0.032,-0.125 0.024,-0.162 0.024,-0.205C0.024,-0.248 0.032,-0.285 0.05,-0.318C0.068,-0.351 0.092,-0.376 0.123,-0.395C0.153,-0.413 0.188,-0.423 0.226,-0.423C0.255,-0.423 0.28,-0.417 0.301,-0.407C0.322,-0.397 0.339,-0.385 0.352,-0.372C0.365,-0.359 0.373,-0.347 0.376,-0.338L0.376,-0.41L0.478,-0.41L0.478,-0L0.377,-0ZM0.125,-0.205C0.125,-0.178 0.131,-0.155 0.142,-0.135C0.155,-0.115 0.17,-0.099 0.19,-0.088C0.209,-0.077 0.23,-0.071 0.252,-0.071C0.287,-0.071 0.317,-0.084 0.34,-0.108C0.363,-0.133 0.375,-0.165 0.375,-0.205C0.375,-0.245 0.363,-0.277 0.34,-0.302C0.317,-0.327 0.287,-0.339 0.252,-0.339C0.23,-0.339 0.209,-0.333 0.19,-0.322C0.17,-0.311 0.155,-0.296 0.142,-0.276C0.131,-0.256 0.125,-0.232 0.125,-0.205Z" style="fill:white;fill-rule:nonzero;"/>
        </g>
        <g transform="matrix(24,0,0,24,249.291,98.4288)">
            <path d="M0.148,-0L0.046,-0L0.046,-0.41L0.148,-0.41L0.148,-0.348C0.152,-0.358 0.16,-0.368 0.171,-0.379C0.182,-0.391 0.196,-0.401 0.214,-0.409C0.231,-0.418 0.252,-0.423 0.276,-0.423C0.295,-0.423 0.312,-0.42 0.327,-0.414C0.342,-0.409 0.352,-0.404 0.359,-0.399L0.317,-0.315C0.313,-0.319 0.305,-0.324 0.293,-0.33C0.281,-0.335 0.266,-0.338 0.249,-0.338C0.227,-0.338 0.209,-0.331 0.194,-0.318C0.179,-0.305 0.168,-0.29 0.16,-0.272C0.152,-0.254 0.148,-0.237 0.148,-0.221L0.148,-0Z" style="fill:white;fill-rule:nonzero;"/>
        </g>
        <g transform="matrix(24,0,0,24,257.739,98.4288)">
            <path d="M0.123,-0.18C0.124,-0.147 0.135,-0.12 0.156,-0.099C0.178,-0.077 0.209,-0.066 0.251,-0.066C0.286,-0.066 0.314,-0.073 0.335,-0.086C0.356,-0.1 0.371,-0.113 0.38,-0.125L0.427,-0.061C0.411,-0.039 0.39,-0.022 0.362,-0.008C0.334,0.005 0.295,0.012 0.244,0.012C0.199,0.012 0.161,0.003 0.128,-0.016C0.095,-0.034 0.069,-0.06 0.051,-0.093C0.033,-0.126 0.024,-0.165 0.024,-0.21C0.024,-0.25 0.032,-0.286 0.049,-0.318C0.065,-0.35 0.089,-0.376 0.121,-0.395C0.153,-0.413 0.191,-0.423 0.236,-0.423C0.299,-0.423 0.348,-0.404 0.386,-0.367C0.423,-0.33 0.441,-0.279 0.441,-0.213C0.441,-0.21 0.441,-0.205 0.441,-0.197C0.441,-0.188 0.44,-0.183 0.44,-0.18L0.123,-0.18ZM0.341,-0.258C0.341,-0.269 0.337,-0.281 0.33,-0.295C0.323,-0.308 0.313,-0.32 0.298,-0.33C0.282,-0.34 0.263,-0.345 0.237,-0.345C0.212,-0.345 0.191,-0.341 0.175,-0.331C0.159,-0.321 0.147,-0.309 0.14,-0.296C0.132,-0.282 0.127,-0.27 0.126,-0.258L0.341,-0.258Z" style="fill:white;fill-rule:nonzero;"/>
        </g>
        <g transform="matrix(24,0,0,24,275.391,98.4288)">
            <path d="M0.56,-0.423C0.606,-0.423 0.642,-0.408 0.668,-0.378C0.695,-0.348 0.708,-0.302 0.708,-0.239L0.708,-0L0.607,-0L0.607,-0.221C0.607,-0.261 0.601,-0.292 0.59,-0.313C0.578,-0.334 0.557,-0.345 0.526,-0.345C0.5,-0.345 0.478,-0.335 0.458,-0.314C0.438,-0.294 0.429,-0.263 0.429,-0.221L0.429,-0L0.334,-0L0.334,-0.221C0.334,-0.304 0.306,-0.345 0.252,-0.345C0.226,-0.345 0.203,-0.335 0.184,-0.315C0.165,-0.295 0.156,-0.264 0.156,-0.221L0.156,-0L0.054,-0L0.054,-0.41L0.156,-0.41L0.156,-0.348C0.159,-0.359 0.167,-0.37 0.18,-0.381C0.193,-0.393 0.209,-0.403 0.228,-0.41C0.247,-0.419 0.268,-0.423 0.292,-0.423C0.316,-0.423 0.337,-0.418 0.354,-0.408C0.37,-0.399 0.383,-0.388 0.393,-0.374C0.403,-0.36 0.41,-0.346 0.414,-0.333C0.419,-0.346 0.428,-0.36 0.442,-0.374C0.455,-0.388 0.472,-0.4 0.493,-0.409C0.513,-0.418 0.535,-0.423 0.56,-0.423Z" style="fill:white;fill-rule:nonzero;"/>
        </g>
        <g transform="matrix(24,0,0,24,293.883,98.4288)">
            <path d="M0.111,-0.538C0.093,-0.538 0.078,-0.544 0.066,-0.556C0.053,-0.569 0.047,-0.584 0.047,-0.601C0.047,-0.619 0.053,-0.634 0.066,-0.647C0.078,-0.659 0.093,-0.666 0.111,-0.666C0.128,-0.666 0.143,-0.659 0.157,-0.647C0.17,-0.634 0.176,-0.619 0.176,-0.601C0.176,-0.584 0.17,-0.569 0.157,-0.556C0.144,-0.544 0.129,-0.538 0.111,-0.538ZM0.059,-0L0.059,-0.41L0.161,-0.41L0.161,-0L0.059,-0Z" style="fill:white;fill-rule:nonzero;"/>
        </g>
        <g transform="matrix(24,0,0,24,299.583,98.4288)">
            <path d="M0.251,0.22C0.204,0.219 0.162,0.212 0.126,0.198C0.09,0.184 0.062,0.164 0.042,0.139L0.107,0.075C0.114,0.083 0.123,0.092 0.134,0.102C0.145,0.112 0.159,0.12 0.177,0.126C0.195,0.133 0.219,0.136 0.247,0.136C0.288,0.136 0.32,0.124 0.343,0.099C0.366,0.074 0.377,0.043 0.377,0.005L0.377,-0.077C0.374,-0.069 0.367,-0.057 0.354,-0.043C0.341,-0.029 0.324,-0.016 0.303,-0.005C0.281,0.006 0.255,0.012 0.226,0.012C0.188,0.012 0.153,0.003 0.123,-0.016C0.092,-0.034 0.068,-0.059 0.05,-0.092C0.032,-0.125 0.024,-0.162 0.024,-0.205C0.024,-0.248 0.032,-0.285 0.05,-0.318C0.068,-0.351 0.092,-0.376 0.123,-0.395C0.153,-0.413 0.188,-0.423 0.226,-0.423C0.255,-0.423 0.28,-0.417 0.301,-0.407C0.322,-0.397 0.339,-0.385 0.352,-0.372C0.365,-0.359 0.373,-0.347 0.376,-0.338L0.376,-0.41L0.478,-0.41L0.478,0.012C0.478,0.057 0.468,0.095 0.448,0.126C0.427,0.157 0.4,0.18 0.366,0.196C0.331,0.212 0.293,0.219 0.251,0.22ZM0.125,-0.205C0.125,-0.178 0.131,-0.155 0.142,-0.135C0.155,-0.115 0.17,-0.099 0.19,-0.088C0.209,-0.077 0.23,-0.071 0.252,-0.071C0.287,-0.071 0.317,-0.084 0.34,-0.108C0.363,-0.133 0.375,-0.165 0.375,-0.205C0.375,-0.245 0.363,-0.277 0.34,-0.302C0.317,-0.327 0.287,-0.339 0.252,-0.339C0.23,-0.339 0.209,-0.333 0.19,-0.322C0.17,-0.311 0.155,-0.296 0.142,-0.276C0.131,-0.256 0.125,-0.232 0.125,-0.205Z" style="fill:white;fill-rule:nonzero;"/>
        </g>
        <g transform="matrix(24,0,0,24,312.603,98.4288)">
            <path d="M0.148,-0L0.046,-0L0.046,-0.41L0.148,-0.41L0.148,-0.348C0.152,-0.358 0.16,-0.368 0.171,-0.379C0.182,-0.391 0.196,-0.401 0.214,-0.409C0.231,-0.418 0.252,-0.423 0.276,-0.423C0.295,-0.423 0.312,-0.42 0.327,-0.414C0.342,-0.409 0.352,-0.404 0.359,-0.399L0.317,-0.315C0.313,-0.319 0.305,-0.324 0.293,-0.33C0.281,-0.335 0.266,-0.338 0.249,-0.338C0.227,-0.338 0.209,-0.331 0.194,-0.318C0.179,-0.305 0.168,-0.29 0.16,-0.272C0.152,-0.254 0.148,-0.237 0.148,-0.221L0.148,-0Z" style="fill:white;fill-rule:nonzero;"/>
        </g>
        <g transform="matrix(24,0,0,24,321.051,98.4288)">
            <path d="M0.377,-0L0.377,-0.077C0.374,-0.069 0.367,-0.057 0.354,-0.043C0.341,-0.029 0.324,-0.016 0.303,-0.005C0.281,0.006 0.255,0.012 0.226,0.012C0.188,0.012 0.153,0.003 0.123,-0.016C0.092,-0.034 0.068,-0.059 0.05,-0.092C0.032,-0.125 0.024,-0.162 0.024,-0.205C0.024,-0.248 0.032,-0.285 0.05,-0.318C0.068,-0.351 0.092,-0.376 0.123,-0.395C0.153,-0.413 0.188,-0.423 0.226,-0.423C0.255,-0.423 0.28,-0.417 0.301,-0.407C0.322,-0.397 0.339,-0.385 0.352,-0.372C0.365,-0.359 0.373,-0.347 0.376,-0.338L0.376,-0.41L0.478,-0.41L0.478,-0L0.377,-0ZM0.125,-0.205C0.125,-0.178 0.131,-0.155 0.142,-0.135C0.155,-0.115 0.17,-0.099 0.19,-0.088C0.209,-0.077 0.23,-0.071 0.252,-0.071C0.287,-0.071 0.317,-0.084 0.34,-0.108C0.363,-0.133 0.375,-0.165 0.375,-0.205C0.375,-0.245 0.363,-0.277 0.34,-0.302C0.317,-0.327 0.287,-0.339 0.252,-0.339C0.23,-0.339 0.209,-0.333 0.19,-0.322C0.17,-0.311 0.155,-0.296 0.142,-0.276C0.131,-0.256 0.125,-0.232 0.125,-0.205Z" style="fill:white;fill-rule:nonzero;"/>
        </g>
        <g transform="matrix(24,0,0,24,333.999,98.4288)">
            <path d="M0.015,-0.41L0.093,-0.41L0.093,-0.579L0.195,-0.579L0.195,-0.41L0.297,-0.41L0.297,-0.324L0.195,-0.324L0.195,-0.142C0.195,-0.098 0.209,-0.076 0.239,-0.076C0.251,-0.076 0.26,-0.078 0.267,-0.082C0.274,-0.086 0.278,-0.089 0.279,-0.091L0.318,-0.017C0.315,-0.014 0.304,-0.008 0.284,-0C0.266,0.008 0.242,0.012 0.213,0.012C0.178,0.012 0.15,0.002 0.127,-0.019C0.104,-0.039 0.093,-0.071 0.093,-0.115L0.093,-0.324L0.015,-0.324L0.015,-0.41Z" style="fill:white;fill-rule:nonzero;"/>
        </g>
        <g transform="matrix(24,0,0,24,342.135,98.4288)">
            <path d="M0.111,-0.538C0.093,-0.538 0.078,-0.544 0.066,-0.556C0.053,-0.569 0.047,-0.584 0.047,-0.601C0.047,-0.619 0.053,-0.634 0.066,-0.647C0.078,-0.659 0.093,-0.666 0.111,-0.666C0.128,-0.666 0.143,-0.659 0.157,-0.647C0.17,-0.634 0.176,-0.619 0.176,-0.601C0.176,-0.584 0.17,-0.569 0.157,-0.556C0.144,-0.544 0.129,-0.538 0.111,-0.538ZM0.059,-0L0.059,-0.41L0.161,-0.41L0.161,-0L0.059,-0Z" style="fill:white;fill-rule:nonzero;"/>
        </g>
        <g transform="matrix(24,0,0,24,347.835,98.4288)">
            <path d="M0.245,0.012C0.202,0.012 0.163,0.003 0.13,-0.016C0.097,-0.035 0.071,-0.061 0.052,-0.094C0.033,-0.126 0.024,-0.163 0.024,-0.204C0.024,-0.245 0.033,-0.282 0.052,-0.315C0.071,-0.348 0.097,-0.374 0.13,-0.394C0.163,-0.413 0.202,-0.423 0.245,-0.423C0.287,-0.423 0.325,-0.413 0.358,-0.394C0.391,-0.374 0.417,-0.348 0.436,-0.315C0.454,-0.282 0.464,-0.245 0.464,-0.204C0.464,-0.163 0.454,-0.126 0.436,-0.094C0.417,-0.061 0.391,-0.035 0.358,-0.016C0.325,0.003 0.287,0.012 0.245,0.012ZM0.245,-0.075C0.281,-0.075 0.311,-0.087 0.333,-0.112C0.355,-0.136 0.366,-0.167 0.366,-0.204C0.366,-0.242 0.355,-0.273 0.333,-0.298C0.311,-0.323 0.281,-0.336 0.245,-0.336C0.208,-0.336 0.178,-0.323 0.156,-0.298C0.134,-0.273 0.123,-0.242 0.123,-0.204C0.123,-0.167 0.134,-0.136 0.156,-0.112C0.178,-0.087 0.208,-0.075 0.245,-0.075Z" style="fill:white;fill-rule:nonzero;"/>
        </g>
        <g transform="matrix(24,0,0,24,359.955,98.4288)">
            <path d="M0.293,-0.423C0.32,-0.423 0.346,-0.417 0.372,-0.405C0.398,-0.394 0.419,-0.376 0.436,-0.351C0.453,-0.326 0.462,-0.294 0.462,-0.255L0.462,-0L0.358,-0L0.358,-0.235C0.358,-0.274 0.349,-0.301 0.331,-0.319C0.313,-0.337 0.291,-0.345 0.263,-0.345C0.244,-0.345 0.226,-0.34 0.209,-0.33C0.192,-0.319 0.178,-0.305 0.168,-0.287C0.157,-0.269 0.152,-0.248 0.152,-0.225L0.152,-0L0.049,-0L0.049,-0.41L0.152,-0.41L0.152,-0.341C0.154,-0.352 0.162,-0.364 0.175,-0.377C0.189,-0.389 0.206,-0.4 0.226,-0.409C0.246,-0.418 0.269,-0.423 0.293,-0.423Z" style="fill:white;fill-rule:nonzero;"/>
        </g>
        <g transform="matrix(24,0,0,24,372.423,98.4288)">
            <path d="M0.211,-0.423C0.245,-0.423 0.275,-0.418 0.302,-0.409C0.328,-0.4 0.345,-0.392 0.354,-0.385L0.316,-0.322C0.309,-0.327 0.296,-0.334 0.279,-0.341C0.262,-0.349 0.243,-0.353 0.222,-0.353C0.2,-0.353 0.182,-0.348 0.167,-0.34C0.152,-0.332 0.144,-0.32 0.144,-0.305C0.144,-0.289 0.152,-0.277 0.168,-0.268C0.183,-0.259 0.205,-0.251 0.232,-0.245C0.254,-0.239 0.275,-0.232 0.295,-0.223C0.315,-0.214 0.331,-0.202 0.344,-0.186C0.357,-0.17 0.363,-0.149 0.363,-0.122C0.363,-0.088 0.354,-0.062 0.336,-0.042C0.317,-0.023 0.294,-0.009 0.266,-0.001C0.238,0.008 0.209,0.012 0.18,0.012C0.14,0.012 0.106,0.006 0.08,-0.005C0.053,-0.016 0.035,-0.025 0.025,-0.033L0.064,-0.105C0.073,-0.096 0.087,-0.087 0.107,-0.078C0.126,-0.069 0.148,-0.064 0.173,-0.064C0.199,-0.064 0.22,-0.069 0.236,-0.08C0.252,-0.09 0.261,-0.104 0.261,-0.121C0.261,-0.14 0.252,-0.154 0.235,-0.163C0.218,-0.171 0.198,-0.178 0.174,-0.184C0.154,-0.189 0.134,-0.196 0.114,-0.205C0.094,-0.214 0.077,-0.227 0.064,-0.244C0.051,-0.26 0.045,-0.281 0.045,-0.307C0.045,-0.332 0.052,-0.353 0.068,-0.37C0.083,-0.387 0.104,-0.4 0.129,-0.409C0.154,-0.418 0.182,-0.423 0.211,-0.423Z" style="fill:white;fill-rule:nonzero;"/>
        </g>
    </g>
    <g transform="matrix(1.00032,0,0,1,-150.512,-95.732)">
        <g id="Icon1" serif:id="Icon" transform="matrix(0.331315,0,0,0.361883,37.0406,21.7361)">
            <g id="Wheel1" serif:id="Wheel" transform="matrix(2.28496,0,-0.0775267,1.80755,78.5462,0.844609)">
                <path d="M223.959,185.249C224.65,185.248 225.246,185.865 225.325,186.663C225.408,187.476 225.48,188.321 225.48,188.747C225.48,210.155 208.278,231.206 185.936,231.206C163.711,231.206 144.362,210.426 144.362,189.129C144.362,188.381 144.38,187.475 144.421,186.619C144.465,185.841 145.011,185.25 145.687,185.25C149.034,185.249 158.642,185.249 162.409,185.249C162.787,185.249 163.152,185.436 163.414,185.763C163.676,186.089 163.808,186.524 163.778,186.958C163.738,187.582 163.72,188.213 163.72,188.747C163.72,199.919 173.427,208.926 185.086,208.926C196.555,208.926 206.122,200.118 206.122,189.129C206.122,188.869 206.116,188.593 206.104,188.307C206.076,187.497 206.328,186.72 206.803,186.147C207.278,185.575 207.938,185.253 208.638,185.253C212.954,185.249 220.944,185.249 223.959,185.249Z" style="fill:white;"/>
            </g>
            <g id="Guard1" serif:id="Guard" transform="matrix(3.01827,0,0,2.76332,-108.804,-136.837)">
                <path d="M241.592,158.059L149.616,158.059C148.47,165.051 154.204,168.988 162.753,168.988L225.965,169C232.524,169 238.321,164.47 241.592,158.059ZM244.05,149L155.674,149C155.071,149 154.499,149.272 154.119,149.742C153.149,150.951 152.383,152.09 151.785,153.046L240.655,152.96C242.796,152.96 243.535,151.25 244.05,149ZM159.143,144.701C159.143,144.701 234.407,144.125 243.778,144.053C244.315,144.049 244.753,143.621 244.77,143.084C244.979,135.151 243.077,127.414 235.112,124.622C215.962,118.727 165.643,137.982 159.143,144.701Z" style="fill:white;"/>
            </g>
        </g>
        <g transform="matrix(0.999676,0,0,1,183.789,-190.872)">
            <g id="Name1" serif:id="Name" transform="matrix(92,0,0,92,74.9365,359.596)">
                <path d="M0.274,-0.672C0.313,-0.672 0.348,-0.668 0.377,-0.659C0.407,-0.65 0.43,-0.641 0.448,-0.63C0.465,-0.621 0.476,-0.614 0.48,-0.611L0.419,-0.51C0.413,-0.514 0.405,-0.52 0.392,-0.528C0.379,-0.536 0.363,-0.543 0.345,-0.549C0.327,-0.555 0.308,-0.559 0.286,-0.559C0.256,-0.559 0.232,-0.553 0.214,-0.542C0.196,-0.53 0.187,-0.513 0.187,-0.491C0.187,-0.469 0.197,-0.45 0.219,-0.435C0.24,-0.42 0.272,-0.404 0.313,-0.388C0.345,-0.376 0.375,-0.36 0.403,-0.342C0.431,-0.324 0.453,-0.302 0.47,-0.275C0.488,-0.248 0.497,-0.216 0.497,-0.178C0.497,-0.136 0.485,-0.101 0.463,-0.073C0.441,-0.045 0.411,-0.023 0.375,-0.009C0.338,0.005 0.299,0.012 0.256,0.012C0.212,0.012 0.173,0.007 0.139,-0.003C0.105,-0.013 0.077,-0.024 0.056,-0.036C0.034,-0.047 0.022,-0.055 0.018,-0.059L0.082,-0.164C0.087,-0.16 0.098,-0.153 0.116,-0.143C0.134,-0.133 0.155,-0.124 0.18,-0.116C0.205,-0.107 0.231,-0.103 0.257,-0.103C0.293,-0.103 0.321,-0.111 0.339,-0.126C0.357,-0.141 0.367,-0.16 0.367,-0.184C0.367,-0.211 0.354,-0.234 0.328,-0.252C0.302,-0.27 0.268,-0.287 0.224,-0.305C0.195,-0.317 0.167,-0.332 0.142,-0.348C0.117,-0.365 0.097,-0.385 0.082,-0.409C0.066,-0.433 0.059,-0.463 0.059,-0.499C0.059,-0.534 0.068,-0.564 0.088,-0.59C0.108,-0.616 0.134,-0.636 0.167,-0.651C0.2,-0.665 0.235,-0.672 0.274,-0.672Z" style="fill:white;fill-rule:nonzero;"/>
            </g>
            <g transform="matrix(92,0,0,92,123.604,359.596)">
                <path d="M0.258,-0.089C0.279,-0.089 0.297,-0.092 0.311,-0.1C0.324,-0.107 0.333,-0.112 0.338,-0.116L0.397,-0.029C0.39,-0.023 0.374,-0.015 0.348,-0.004C0.324,0.007 0.293,0.012 0.256,0.012C0.212,0.012 0.173,0.003 0.139,-0.014C0.105,-0.032 0.078,-0.057 0.058,-0.089C0.038,-0.122 0.028,-0.161 0.028,-0.205C0.028,-0.251 0.038,-0.29 0.058,-0.322C0.078,-0.354 0.105,-0.379 0.139,-0.397C0.173,-0.414 0.212,-0.423 0.256,-0.423C0.292,-0.423 0.323,-0.417 0.347,-0.406C0.373,-0.395 0.389,-0.386 0.396,-0.38L0.336,-0.292C0.332,-0.295 0.324,-0.301 0.311,-0.31C0.298,-0.318 0.28,-0.322 0.258,-0.322C0.239,-0.322 0.221,-0.317 0.205,-0.308C0.188,-0.298 0.175,-0.284 0.165,-0.267C0.154,-0.249 0.149,-0.229 0.149,-0.205C0.149,-0.182 0.154,-0.161 0.165,-0.144C0.175,-0.126 0.188,-0.113 0.205,-0.103C0.221,-0.093 0.239,-0.089 0.258,-0.089Z" style="fill:white;fill-rule:nonzero;"/>
            </g>
            <g transform="matrix(92,0,0,92,160.726,359.596)">
                <path d="M0.248,0.012C0.204,0.012 0.165,0.003 0.131,-0.016C0.097,-0.035 0.07,-0.06 0.051,-0.093C0.031,-0.125 0.021,-0.162 0.021,-0.204C0.021,-0.246 0.031,-0.283 0.051,-0.316C0.07,-0.349 0.097,-0.375 0.131,-0.394C0.165,-0.413 0.204,-0.423 0.248,-0.423C0.292,-0.423 0.33,-0.413 0.364,-0.394C0.397,-0.375 0.424,-0.349 0.443,-0.316C0.462,-0.283 0.471,-0.246 0.471,-0.204C0.471,-0.162 0.462,-0.125 0.443,-0.093C0.424,-0.06 0.397,-0.035 0.364,-0.016C0.33,0.003 0.292,0.012 0.248,0.012ZM0.248,-0.093C0.279,-0.093 0.304,-0.103 0.323,-0.125C0.342,-0.146 0.352,-0.172 0.352,-0.204C0.352,-0.237 0.342,-0.264 0.323,-0.285C0.304,-0.307 0.279,-0.318 0.248,-0.318C0.216,-0.318 0.19,-0.307 0.171,-0.285C0.152,-0.264 0.142,-0.237 0.142,-0.204C0.142,-0.172 0.152,-0.146 0.171,-0.125C0.19,-0.103 0.216,-0.093 0.248,-0.093Z" style="fill:white;fill-rule:nonzero;"/>
            </g>
            <g transform="matrix(92,0,0,92,206.036,359.596)">
                <path d="M0.248,0.012C0.204,0.012 0.165,0.003 0.131,-0.016C0.097,-0.035 0.07,-0.06 0.051,-0.093C0.031,-0.125 0.021,-0.162 0.021,-0.204C0.021,-0.246 0.031,-0.283 0.051,-0.316C0.07,-0.349 0.097,-0.375 0.131,-0.394C0.165,-0.413 0.204,-0.423 0.248,-0.423C0.292,-0.423 0.33,-0.413 0.364,-0.394C0.397,-0.375 0.424,-0.349 0.443,-0.316C0.462,-0.283 0.471,-0.246 0.471,-0.204C0.471,-0.162 0.462,-0.125 0.443,-0.093C0.424,-0.06 0.397,-0.035 0.364,-0.016C0.33,0.003 0.292,0.012 0.248,0.012ZM0.248,-0.093C0.279,-0.093 0.304,-0.103 0.323,-0.125C0.342,-0.146 0.352,-0.172 0.352,-0.204C0.352,-0.237 0.342,-0.264 0.323,-0.285C0.304,-0.307 0.279,-0.318 0.248,-0.318C0.216,-0.318 0.19,-0.307 0.171,-0.285C0.152,-0.264 0.142,-0.237 0.142,-0.204C0.142,-0.172 0.152,-0.146 0.171,-0.125C0.19,-0.103 0.216,-0.093 0.248,-0.093Z" style="fill:white;fill-rule:nonzero;"/>
            </g>
            <g transform="matrix(92,0,0,92,251.346,359.596)">
                <path d="M0.012,-0.41L0.086,-0.41L0.086,-0.579L0.211,-0.579L0.211,-0.41L0.308,-0.41L0.308,-0.306L0.211,-0.306L0.211,-0.156C0.211,-0.115 0.224,-0.094 0.25,-0.094C0.26,-0.094 0.269,-0.096 0.276,-0.1C0.283,-0.104 0.287,-0.107 0.288,-0.109L0.333,-0.019C0.329,-0.015 0.317,-0.009 0.295,-0.001C0.273,0.008 0.247,0.012 0.216,0.012C0.178,0.012 0.147,0.001 0.122,-0.021C0.098,-0.042 0.086,-0.076 0.086,-0.122L0.086,-0.306L0.012,-0.306L0.012,-0.41Z" style="fill:white;fill-rule:nonzero;"/>
            </g>
            <g transform="matrix(92,0,0,92,281.936,359.596)">
                <path d="M0.143,-0.177C0.144,-0.149 0.154,-0.127 0.174,-0.109C0.194,-0.091 0.222,-0.082 0.258,-0.082C0.29,-0.082 0.316,-0.087 0.337,-0.099C0.358,-0.11 0.373,-0.12 0.382,-0.131L0.435,-0.052C0.421,-0.034 0.4,-0.019 0.372,-0.007C0.344,0.006 0.303,0.012 0.25,0.012C0.204,0.012 0.164,0.003 0.13,-0.015C0.096,-0.032 0.069,-0.058 0.05,-0.091C0.031,-0.124 0.021,-0.164 0.021,-0.21C0.021,-0.25 0.03,-0.286 0.047,-0.318C0.064,-0.35 0.089,-0.375 0.122,-0.394C0.154,-0.413 0.194,-0.423 0.239,-0.423C0.304,-0.423 0.356,-0.404 0.394,-0.367C0.432,-0.33 0.451,-0.278 0.451,-0.209L0.451,-0.193C0.451,-0.185 0.45,-0.179 0.45,-0.177L0.143,-0.177ZM0.33,-0.256C0.329,-0.266 0.326,-0.277 0.32,-0.289C0.314,-0.301 0.305,-0.312 0.292,-0.32C0.279,-0.329 0.262,-0.333 0.241,-0.333C0.209,-0.333 0.186,-0.324 0.171,-0.307C0.156,-0.29 0.147,-0.273 0.146,-0.256L0.33,-0.256Z" style="fill:white;fill-rule:nonzero;"/>
            </g>
            <g transform="matrix(92,0,0,92,325.406,359.596)">
                <path d="M0.164,-0L0.038,-0L0.038,-0.41L0.164,-0.41L0.164,-0.35C0.168,-0.359 0.175,-0.369 0.186,-0.381C0.197,-0.392 0.211,-0.402 0.229,-0.41C0.247,-0.418 0.268,-0.423 0.292,-0.423C0.311,-0.423 0.328,-0.42 0.344,-0.414C0.359,-0.409 0.37,-0.403 0.377,-0.398L0.328,-0.295C0.323,-0.3 0.315,-0.305 0.303,-0.311C0.291,-0.317 0.276,-0.32 0.259,-0.32C0.238,-0.32 0.22,-0.314 0.206,-0.302C0.192,-0.291 0.182,-0.277 0.174,-0.26C0.168,-0.244 0.164,-0.228 0.164,-0.214L0.164,-0Z" style="fill:white;fill-rule:nonzero;"/>
            </g>
        </g>
    </g>
</svg>
