<?xml version="1.0" encoding="UTF-8" standalone="no"?>
<!DOCTYPE svg PUBLIC "-//W3C//DTD SVG 1.1//EN" "http://www.w3.org/Graphics/SVG/1.1/DTD/svg11.dtd">
<svg viewBox="0 0 394 112" version="1.1" xmlns="http://www.w3.org/2000/svg" xmlns:xlink="http://www.w3.org/1999/xlink" xml:space="preserve" xmlns:serif="http://www.serif.com/" style="fill-rule:evenodd;clip-rule:evenodd;stroke-linejoin:round;stroke-miterlimit:2;">
    <g transform="matrix(1.00032,0,0,1,-150.512,-95.732)">
        <g id="Icon" transform="matrix(0.331315,0,0,0.361883,37.0406,21.7361)">
            <g id="Wheel" transform="matrix(2.28496,0,-0.0775267,1.80755,78.5462,0.844609)">
                <path d="M223.959,185.249C224.65,185.248 225.246,185.865 225.325,186.663C225.408,187.476 225.48,188.321 225.48,188.747C225.48,210.155 208.278,231.206 185.936,231.206C163.711,231.206 144.362,210.426 144.362,189.129C144.362,188.381 144.38,187.475 144.421,186.619C144.465,185.841 145.011,185.25 145.687,185.25C149.034,185.249 158.642,185.249 162.409,185.249C162.787,185.249 163.152,185.436 163.414,185.763C163.676,186.089 163.808,186.524 163.778,186.958C163.738,187.582 163.72,188.213 163.72,188.747C163.72,199.919 173.427,208.926 185.086,208.926C196.555,208.926 206.122,200.118 206.122,189.129C206.122,188.869 206.116,188.593 206.104,188.307C206.076,187.497 206.328,186.72 206.803,186.147C207.278,185.575 207.938,185.253 208.638,185.253C212.954,185.249 220.944,185.249 223.959,185.249Z" style="fill:white;"/>
            </g>
            <g id="Guard" transform="matrix(3.01827,0,0,2.76332,-108.804,-136.837)">
                <path d="M241.592,158.059L149.616,158.059C148.47,165.051 154.204,168.988 162.753,168.988L225.965,169C232.524,169 238.321,164.47 241.592,158.059ZM244.05,149L155.674,149C155.071,149 154.499,149.272 154.119,149.742C153.149,150.951 152.383,152.09 151.785,153.046L240.655,152.96C242.796,152.96 243.535,151.25 244.05,149ZM159.143,144.701C159.143,144.701 234.407,144.125 243.778,144.053C244.315,144.049 244.753,143.621 244.77,143.084C244.979,135.151 243.077,127.414 235.112,124.622C215.962,118.727 165.643,137.982 159.143,144.701Z" style="fill:white;"/>
            </g>
        </g>
        <g transform="matrix(0.999676,0,0,1,183.789,-190.872)">
            <g id="Name" transform="matrix(92,0,0,92,74.9365,359.596)">
                <path d="M0.274,-0.672C0.313,-0.672 0.348,-0.668 0.377,-0.659C0.407,-0.65 0.43,-0.641 0.448,-0.63C0.465,-0.621 0.476,-0.614 0.48,-0.611L0.419,-0.51C0.413,-0.514 0.405,-0.52 0.392,-0.528C0.379,-0.536 0.363,-0.543 0.345,-0.549C0.327,-0.555 0.308,-0.559 0.286,-0.559C0.256,-0.559 0.232,-0.553 0.214,-0.542C0.196,-0.53 0.187,-0.513 0.187,-0.491C0.187,-0.469 0.197,-0.45 0.219,-0.435C0.24,-0.42 0.272,-0.404 0.313,-0.388C0.345,-0.376 0.375,-0.36 0.403,-0.342C0.431,-0.324 0.453,-0.302 0.47,-0.275C0.488,-0.248 0.497,-0.216 0.497,-0.178C0.497,-0.136 0.485,-0.101 0.463,-0.073C0.441,-0.045 0.411,-0.023 0.375,-0.009C0.338,0.005 0.299,0.012 0.256,0.012C0.212,0.012 0.173,0.007 0.139,-0.003C0.105,-0.013 0.077,-0.024 0.056,-0.036C0.034,-0.047 0.022,-0.055 0.018,-0.059L0.082,-0.164C0.087,-0.16 0.098,-0.153 0.116,-0.143C0.134,-0.133 0.155,-0.124 0.18,-0.116C0.205,-0.107 0.231,-0.103 0.257,-0.103C0.293,-0.103 0.321,-0.111 0.339,-0.126C0.357,-0.141 0.367,-0.16 0.367,-0.184C0.367,-0.211 0.354,-0.234 0.328,-0.252C0.302,-0.27 0.268,-0.287 0.224,-0.305C0.195,-0.317 0.167,-0.332 0.142,-0.348C0.117,-0.365 0.097,-0.385 0.082,-0.409C0.066,-0.433 0.059,-0.463 0.059,-0.499C0.059,-0.534 0.068,-0.564 0.088,-0.59C0.108,-0.616 0.134,-0.636 0.167,-0.651C0.2,-0.665 0.235,-0.672 0.274,-0.672Z" style="fill:white;fill-rule:nonzero;"/>
            </g>
            <g transform="matrix(92,0,0,92,123.604,359.596)">
                <path d="M0.258,-0.089C0.279,-0.089 0.297,-0.092 0.311,-0.1C0.324,-0.107 0.333,-0.112 0.338,-0.116L0.397,-0.029C0.39,-0.023 0.374,-0.015 0.348,-0.004C0.324,0.007 0.293,0.012 0.256,0.012C0.212,0.012 0.173,0.003 0.139,-0.014C0.105,-0.032 0.078,-0.057 0.058,-0.089C0.038,-0.122 0.028,-0.161 0.028,-0.205C0.028,-0.251 0.038,-0.29 0.058,-0.322C0.078,-0.354 0.105,-0.379 0.139,-0.397C0.173,-0.414 0.212,-0.423 0.256,-0.423C0.292,-0.423 0.323,-0.417 0.347,-0.406C0.373,-0.395 0.389,-0.386 0.396,-0.38L0.336,-0.292C0.332,-0.295 0.324,-0.301 0.311,-0.31C0.298,-0.318 0.28,-0.322 0.258,-0.322C0.239,-0.322 0.221,-0.317 0.205,-0.308C0.188,-0.298 0.175,-0.284 0.165,-0.267C0.154,-0.249 0.149,-0.229 0.149,-0.205C0.149,-0.182 0.154,-0.161 0.165,-0.144C0.175,-0.126 0.188,-0.113 0.205,-0.103C0.221,-0.093 0.239,-0.089 0.258,-0.089Z" style="fill:white;fill-rule:nonzero;"/>
            </g>
            <g transform="matrix(92,0,0,92,160.726,359.596)">
                <path d="M0.248,0.012C0.204,0.012 0.165,0.003 0.131,-0.016C0.097,-0.035 0.07,-0.06 0.051,-0.093C0.031,-0.125 0.021,-0.162 0.021,-0.204C0.021,-0.246 0.031,-0.283 0.051,-0.316C0.07,-0.349 0.097,-0.375 0.131,-0.394C0.165,-0.413 0.204,-0.423 0.248,-0.423C0.292,-0.423 0.33,-0.413 0.364,-0.394C0.397,-0.375 0.424,-0.349 0.443,-0.316C0.462,-0.283 0.471,-0.246 0.471,-0.204C0.471,-0.162 0.462,-0.125 0.443,-0.093C0.424,-0.06 0.397,-0.035 0.364,-0.016C0.33,0.003 0.292,0.012 0.248,0.012ZM0.248,-0.093C0.279,-0.093 0.304,-0.103 0.323,-0.125C0.342,-0.146 0.352,-0.172 0.352,-0.204C0.352,-0.237 0.342,-0.264 0.323,-0.285C0.304,-0.307 0.279,-0.318 0.248,-0.318C0.216,-0.318 0.19,-0.307 0.171,-0.285C0.152,-0.264 0.142,-0.237 0.142,-0.204C0.142,-0.172 0.152,-0.146 0.171,-0.125C0.19,-0.103 0.216,-0.093 0.248,-0.093Z" style="fill:white;fill-rule:nonzero;"/>
            </g>
            <g transform="matrix(92,0,0,92,206.036,359.596)">
                <path d="M0.248,0.012C0.204,0.012 0.165,0.003 0.131,-0.016C0.097,-0.035 0.07,-0.06 0.051,-0.093C0.031,-0.125 0.021,-0.162 0.021,-0.204C0.021,-0.246 0.031,-0.283 0.051,-0.316C0.07,-0.349 0.097,-0.375 0.131,-0.394C0.165,-0.413 0.204,-0.423 0.248,-0.423C0.292,-0.423 0.33,-0.413 0.364,-0.394C0.397,-0.375 0.424,-0.349 0.443,-0.316C0.462,-0.283 0.471,-0.246 0.471,-0.204C0.471,-0.162 0.462,-0.125 0.443,-0.093C0.424,-0.06 0.397,-0.035 0.364,-0.016C0.33,0.003 0.292,0.012 0.248,0.012ZM0.248,-0.093C0.279,-0.093 0.304,-0.103 0.323,-0.125C0.342,-0.146 0.352,-0.172 0.352,-0.204C0.352,-0.237 0.342,-0.264 0.323,-0.285C0.304,-0.307 0.279,-0.318 0.248,-0.318C0.216,-0.318 0.19,-0.307 0.171,-0.285C0.152,-0.264 0.142,-0.237 0.142,-0.204C0.142,-0.172 0.152,-0.146 0.171,-0.125C0.19,-0.103 0.216,-0.093 0.248,-0.093Z" style="fill:white;fill-rule:nonzero;"/>
            </g>
            <g transform="matrix(92,0,0,92,251.346,359.596)">
                <path d="M0.012,-0.41L0.086,-0.41L0.086,-0.579L0.211,-0.579L0.211,-0.41L0.308,-0.41L0.308,-0.306L0.211,-0.306L0.211,-0.156C0.211,-0.115 0.224,-0.094 0.25,-0.094C0.26,-0.094 0.269,-0.096 0.276,-0.1C0.283,-0.104 0.287,-0.107 0.288,-0.109L0.333,-0.019C0.329,-0.015 0.317,-0.009 0.295,-0.001C0.273,0.008 0.247,0.012 0.216,0.012C0.178,0.012 0.147,0.001 0.122,-0.021C0.098,-0.042 0.086,-0.076 0.086,-0.122L0.086,-0.306L0.012,-0.306L0.012,-0.41Z" style="fill:white;fill-rule:nonzero;"/>
            </g>
            <g transform="matrix(92,0,0,92,281.936,359.596)">
                <path d="M0.143,-0.177C0.144,-0.149 0.154,-0.127 0.174,-0.109C0.194,-0.091 0.222,-0.082 0.258,-0.082C0.29,-0.082 0.316,-0.087 0.337,-0.099C0.358,-0.11 0.373,-0.12 0.382,-0.131L0.435,-0.052C0.421,-0.034 0.4,-0.019 0.372,-0.007C0.344,0.006 0.303,0.012 0.25,0.012C0.204,0.012 0.164,0.003 0.13,-0.015C0.096,-0.032 0.069,-0.058 0.05,-0.091C0.031,-0.124 0.021,-0.164 0.021,-0.21C0.021,-0.25 0.03,-0.286 0.047,-0.318C0.064,-0.35 0.089,-0.375 0.122,-0.394C0.154,-0.413 0.194,-0.423 0.239,-0.423C0.304,-0.423 0.356,-0.404 0.394,-0.367C0.432,-0.33 0.451,-0.278 0.451,-0.209C0.451,-0.206 0.451,-0.201 0.451,-0.193C0.451,-0.185 0.45,-0.179 0.45,-0.177L0.143,-0.177ZM0.33,-0.256C0.329,-0.266 0.326,-0.277 0.32,-0.289C0.314,-0.301 0.305,-0.312 0.292,-0.32C0.279,-0.329 0.262,-0.333 0.241,-0.333C0.209,-0.333 0.186,-0.324 0.171,-0.307C0.156,-0.29 0.147,-0.273 0.146,-0.256L0.33,-0.256Z" style="fill:white;fill-rule:nonzero;"/>
            </g>
            <g transform="matrix(92,0,0,92,325.406,359.596)">
                <path d="M0.164,-0L0.038,-0L0.038,-0.41L0.164,-0.41L0.164,-0.35C0.168,-0.359 0.175,-0.369 0.186,-0.381C0.197,-0.392 0.211,-0.402 0.229,-0.41C0.247,-0.418 0.268,-0.423 0.292,-0.423C0.311,-0.423 0.328,-0.42 0.344,-0.414C0.359,-0.409 0.37,-0.403 0.377,-0.398L0.328,-0.295C0.323,-0.3 0.315,-0.305 0.303,-0.311C0.291,-0.317 0.276,-0.32 0.259,-0.32C0.238,-0.32 0.22,-0.314 0.206,-0.302C0.192,-0.291 0.182,-0.277 0.174,-0.26C0.168,-0.244 0.164,-0.228 0.164,-0.214L0.164,-0Z" style="fill:white;fill-rule:nonzero;"/>
            </g>
        </g>
    </g>
    <g transform="matrix(1,0,0,1,-304.124,-125.466)">
        <g transform="matrix(24,0,0,24,324.682,231.472)">
            <path d="M0.255,-0.66L0.337,-0.66L0.579,-0L0.496,-0L0.438,-0.162L0.154,-0.162L0.096,-0L0.012,-0L0.255,-0.66ZM0.179,-0.233L0.413,-0.233L0.297,-0.564L0.295,-0.564L0.179,-0.233Z" style="fill:white;fill-rule:nonzero;"/>
        </g>
        <g transform="matrix(24,0,0,24,338.962,231.472)">
            <path d="M0.277,-0.423C0.304,-0.423 0.33,-0.417 0.355,-0.406C0.38,-0.394 0.401,-0.376 0.417,-0.352C0.434,-0.328 0.442,-0.296 0.442,-0.257L0.442,-0L0.362,-0L0.362,-0.241C0.362,-0.282 0.352,-0.313 0.333,-0.332C0.313,-0.351 0.288,-0.361 0.257,-0.361C0.236,-0.361 0.217,-0.355 0.198,-0.343C0.179,-0.331 0.164,-0.316 0.152,-0.296C0.14,-0.276 0.134,-0.253 0.134,-0.228L0.134,-0L0.055,-0L0.055,-0.41L0.134,-0.41L0.134,-0.336C0.137,-0.347 0.145,-0.36 0.158,-0.373C0.171,-0.387 0.188,-0.398 0.209,-0.408C0.23,-0.418 0.253,-0.423 0.277,-0.423Z" style="fill:white;fill-rule:nonzero;"/>
        </g>
        <g transform="matrix(24,0,0,24,357.034,231.472)">
            <path d="M0.023,-0.331C0.023,-0.379 0.031,-0.423 0.047,-0.465C0.064,-0.506 0.087,-0.543 0.116,-0.574C0.146,-0.605 0.18,-0.629 0.22,-0.646C0.26,-0.663 0.303,-0.672 0.349,-0.672C0.396,-0.672 0.439,-0.663 0.479,-0.646C0.519,-0.629 0.553,-0.605 0.583,-0.574C0.612,-0.543 0.635,-0.506 0.651,-0.465C0.667,-0.423 0.676,-0.379 0.676,-0.331C0.676,-0.282 0.667,-0.237 0.651,-0.196C0.635,-0.154 0.612,-0.118 0.583,-0.087C0.554,-0.056 0.52,-0.031 0.48,-0.014C0.44,0.003 0.397,0.012 0.349,0.012C0.302,0.012 0.259,0.003 0.219,-0.014C0.179,-0.031 0.144,-0.056 0.115,-0.087C0.086,-0.118 0.063,-0.154 0.047,-0.196C0.031,-0.237 0.023,-0.282 0.023,-0.331ZM0.103,-0.331C0.103,-0.28 0.114,-0.235 0.135,-0.194C0.156,-0.154 0.185,-0.122 0.222,-0.098C0.259,-0.074 0.302,-0.063 0.349,-0.063C0.398,-0.063 0.44,-0.074 0.477,-0.098C0.514,-0.122 0.543,-0.154 0.564,-0.194C0.585,-0.235 0.595,-0.28 0.595,-0.331C0.595,-0.381 0.585,-0.426 0.564,-0.467C0.543,-0.507 0.514,-0.539 0.477,-0.562C0.44,-0.586 0.398,-0.598 0.349,-0.598C0.302,-0.598 0.259,-0.586 0.222,-0.562C0.185,-0.539 0.156,-0.507 0.135,-0.467C0.114,-0.426 0.103,-0.381 0.103,-0.331Z" style="fill:white;fill-rule:nonzero;"/>
        </g>
        <g transform="matrix(24,0,0,24,374.314,231.472)">
            <path d="M0.057,-0.66L0.283,-0.66C0.318,-0.66 0.351,-0.653 0.38,-0.638C0.409,-0.623 0.432,-0.602 0.45,-0.574C0.467,-0.545 0.475,-0.511 0.475,-0.47C0.475,-0.429 0.467,-0.396 0.451,-0.369C0.435,-0.342 0.415,-0.322 0.392,-0.308C0.369,-0.295 0.348,-0.288 0.329,-0.286L0.493,-0L0.404,-0L0.25,-0.281L0.135,-0.281L0.135,-0L0.057,-0L0.057,-0.66ZM0.135,-0.34L0.256,-0.34C0.297,-0.34 0.33,-0.35 0.357,-0.37C0.383,-0.391 0.396,-0.423 0.396,-0.468C0.396,-0.513 0.383,-0.545 0.357,-0.565C0.331,-0.584 0.297,-0.594 0.257,-0.594L0.135,-0.594L0.135,-0.34Z" style="fill:white;fill-rule:nonzero;"/>
        </g>
        <g transform="matrix(24,0,0,24,387.514,231.472)">
            <path d="M0.642,-0.66L0.642,-0L0.564,-0L0.564,-0.487L0.568,-0.556L0.552,-0.481L0.387,-0.035L0.31,-0.035L0.145,-0.481L0.128,-0.556L0.132,-0.487L0.132,-0L0.054,-0L0.054,-0.66L0.156,-0.66L0.342,-0.133L0.348,-0.101L0.354,-0.133L0.541,-0.66L0.642,-0.66Z" style="fill:white;fill-rule:nonzero;"/>
        </g>
        <g transform="matrix(24,0,0,24,410.914,231.472)">
            <path d="M0.015,-0.41L0.101,-0.41L0.101,-0.528C0.101,-0.57 0.108,-0.603 0.122,-0.628C0.136,-0.653 0.154,-0.672 0.176,-0.683C0.198,-0.694 0.22,-0.7 0.243,-0.7C0.271,-0.7 0.293,-0.696 0.308,-0.688C0.323,-0.68 0.332,-0.675 0.335,-0.673L0.303,-0.612C0.301,-0.614 0.295,-0.618 0.286,-0.623C0.278,-0.628 0.266,-0.631 0.25,-0.631C0.238,-0.631 0.227,-0.628 0.216,-0.623C0.205,-0.617 0.196,-0.606 0.189,-0.59C0.182,-0.574 0.179,-0.55 0.179,-0.519L0.179,-0.41L0.298,-0.41L0.298,-0.343L0.179,-0.343L0.179,-0L0.101,-0L0.101,-0.343L0.015,-0.343L0.015,-0.41Z" style="fill:white;fill-rule:nonzero;"/>
        </g>
        <g transform="matrix(24,0,0,24,418.69,231.472)">
            <path d="M0.242,0.012C0.2,0.012 0.162,0.002 0.13,-0.017C0.097,-0.035 0.072,-0.061 0.053,-0.094C0.035,-0.127 0.025,-0.163 0.025,-0.204C0.025,-0.245 0.035,-0.281 0.053,-0.315C0.072,-0.347 0.097,-0.374 0.13,-0.393C0.162,-0.413 0.2,-0.423 0.242,-0.423C0.283,-0.423 0.32,-0.413 0.353,-0.393C0.385,-0.374 0.41,-0.347 0.428,-0.315C0.446,-0.281 0.456,-0.245 0.456,-0.204C0.456,-0.163 0.446,-0.127 0.428,-0.094C0.41,-0.061 0.385,-0.035 0.353,-0.017C0.32,0.002 0.283,0.012 0.242,0.012ZM0.242,-0.057C0.283,-0.057 0.317,-0.071 0.342,-0.099C0.367,-0.127 0.38,-0.162 0.38,-0.204C0.38,-0.247 0.367,-0.282 0.342,-0.311C0.317,-0.34 0.283,-0.354 0.242,-0.354C0.214,-0.354 0.189,-0.347 0.168,-0.334C0.147,-0.321 0.131,-0.303 0.119,-0.28C0.108,-0.258 0.102,-0.233 0.102,-0.204C0.102,-0.162 0.115,-0.127 0.14,-0.099C0.166,-0.071 0.2,-0.057 0.242,-0.057Z" style="fill:white;fill-rule:nonzero;"/>
        </g>
        <g transform="matrix(24,0,0,24,430.678,231.472)">
            <path d="M0.133,-0L0.054,-0L0.054,-0.41L0.133,-0.41L0.133,-0.347C0.137,-0.356 0.144,-0.366 0.155,-0.378C0.166,-0.39 0.18,-0.4 0.198,-0.409C0.216,-0.418 0.236,-0.423 0.26,-0.423C0.279,-0.423 0.295,-0.42 0.31,-0.415C0.324,-0.41 0.334,-0.405 0.34,-0.4L0.307,-0.334C0.302,-0.338 0.294,-0.343 0.282,-0.348C0.271,-0.353 0.257,-0.355 0.239,-0.355C0.217,-0.355 0.198,-0.348 0.182,-0.334C0.166,-0.32 0.154,-0.303 0.145,-0.283C0.137,-0.263 0.133,-0.245 0.133,-0.229L0.133,-0Z" style="fill:white;fill-rule:nonzero;"/>
        </g>
        <g transform="matrix(24,0,0,24,444.886,231.472)">
            <path d="M0.135,0.208L0.056,0.208L0.056,-0.41L0.136,-0.41L0.136,-0.332C0.138,-0.342 0.147,-0.354 0.161,-0.369C0.174,-0.383 0.193,-0.395 0.217,-0.406C0.24,-0.417 0.267,-0.423 0.297,-0.423C0.335,-0.423 0.369,-0.414 0.399,-0.396C0.428,-0.378 0.452,-0.353 0.469,-0.32C0.486,-0.287 0.494,-0.249 0.494,-0.205C0.494,-0.161 0.485,-0.123 0.468,-0.09C0.45,-0.058 0.427,-0.033 0.397,-0.015C0.367,0.003 0.333,0.012 0.295,0.012C0.263,0.012 0.236,0.006 0.213,-0.006C0.189,-0.018 0.171,-0.031 0.157,-0.046C0.144,-0.061 0.136,-0.073 0.135,-0.082L0.135,0.208ZM0.416,-0.205C0.416,-0.236 0.409,-0.263 0.397,-0.285C0.384,-0.308 0.367,-0.325 0.346,-0.338C0.326,-0.35 0.304,-0.356 0.28,-0.356C0.253,-0.356 0.229,-0.35 0.207,-0.337C0.185,-0.325 0.168,-0.307 0.155,-0.284C0.142,-0.262 0.136,-0.235 0.136,-0.205C0.136,-0.175 0.142,-0.148 0.155,-0.126C0.168,-0.103 0.185,-0.085 0.207,-0.073C0.229,-0.061 0.253,-0.055 0.28,-0.055C0.304,-0.055 0.326,-0.061 0.346,-0.073C0.367,-0.085 0.384,-0.102 0.397,-0.125C0.409,-0.147 0.416,-0.174 0.416,-0.205Z" style="fill:white;fill-rule:nonzero;"/>
        </g>
        <g transform="matrix(24,0,0,24,457.666,231.472)">
            <path d="M0.242,0.012C0.2,0.012 0.162,0.002 0.13,-0.017C0.097,-0.035 0.072,-0.061 0.053,-0.094C0.035,-0.127 0.025,-0.163 0.025,-0.204C0.025,-0.245 0.035,-0.281 0.053,-0.315C0.072,-0.347 0.097,-0.374 0.13,-0.393C0.162,-0.413 0.2,-0.423 0.242,-0.423C0.283,-0.423 0.32,-0.413 0.353,-0.393C0.385,-0.374 0.41,-0.347 0.428,-0.315C0.446,-0.281 0.456,-0.245 0.456,-0.204C0.456,-0.163 0.446,-0.127 0.428,-0.094C0.41,-0.061 0.385,-0.035 0.353,-0.017C0.32,0.002 0.283,0.012 0.242,0.012ZM0.242,-0.057C0.283,-0.057 0.317,-0.071 0.342,-0.099C0.367,-0.127 0.38,-0.162 0.38,-0.204C0.38,-0.247 0.367,-0.282 0.342,-0.311C0.317,-0.34 0.283,-0.354 0.242,-0.354C0.214,-0.354 0.189,-0.347 0.168,-0.334C0.147,-0.321 0.131,-0.303 0.119,-0.28C0.108,-0.258 0.102,-0.233 0.102,-0.204C0.102,-0.162 0.115,-0.127 0.14,-0.099C0.166,-0.071 0.2,-0.057 0.242,-0.057Z" style="fill:white;fill-rule:nonzero;"/>
        </g>
        <g transform="matrix(24,0,0,24,469.654,231.472)">
            <rect x="0.057" y="-0.688" width="0.08" height="0.688" style="fill:white;fill-rule:nonzero;"/>
        </g>
        <g transform="matrix(24,0,0,24,474.73,231.472)">
            <path d="M0.105,-0.558C0.09,-0.558 0.077,-0.563 0.067,-0.574C0.056,-0.584 0.051,-0.596 0.051,-0.611C0.051,-0.626 0.056,-0.639 0.067,-0.649C0.077,-0.66 0.09,-0.665 0.105,-0.665C0.119,-0.665 0.132,-0.66 0.142,-0.649C0.154,-0.639 0.159,-0.626 0.159,-0.611C0.159,-0.596 0.154,-0.584 0.143,-0.574C0.132,-0.563 0.119,-0.558 0.105,-0.558ZM0.064,-0L0.064,-0.41L0.143,-0.41L0.143,-0L0.064,-0Z" style="fill:white;fill-rule:nonzero;"/>
        </g>
        <g transform="matrix(24,0,0,24,480.154,231.472)">
            <path d="M0.244,-0.055C0.271,-0.055 0.292,-0.059 0.309,-0.067C0.325,-0.076 0.336,-0.082 0.34,-0.086L0.379,-0.028C0.375,-0.025 0.367,-0.02 0.355,-0.014C0.343,-0.008 0.327,-0.002 0.307,0.004C0.288,0.009 0.266,0.012 0.241,0.012C0.205,0.012 0.171,0.004 0.139,-0.013C0.107,-0.03 0.081,-0.054 0.061,-0.086C0.041,-0.119 0.031,-0.159 0.031,-0.205C0.031,-0.253 0.041,-0.292 0.061,-0.325C0.081,-0.357 0.107,-0.381 0.139,-0.398C0.171,-0.414 0.205,-0.423 0.241,-0.423C0.265,-0.423 0.287,-0.42 0.306,-0.414C0.325,-0.408 0.341,-0.401 0.353,-0.394C0.365,-0.387 0.373,-0.382 0.377,-0.379L0.338,-0.321C0.333,-0.325 0.323,-0.331 0.308,-0.341C0.292,-0.351 0.271,-0.356 0.244,-0.356C0.222,-0.356 0.2,-0.35 0.179,-0.338C0.158,-0.326 0.141,-0.309 0.128,-0.287C0.115,-0.264 0.108,-0.237 0.108,-0.205C0.108,-0.174 0.115,-0.147 0.128,-0.124C0.141,-0.101 0.158,-0.084 0.179,-0.072C0.2,-0.06 0.222,-0.055 0.244,-0.055Z" style="fill:white;fill-rule:nonzero;"/>
        </g>
        <g transform="matrix(24,0,0,24,490.078,231.472)">
            <path d="M0.22,-0.073L0.362,-0.41L0.442,-0.41L0.165,0.208L0.085,0.208L0.178,-0L0.009,-0.41L0.09,-0.41L0.22,-0.073Z" style="fill:white;fill-rule:nonzero;"/>
        </g>
        <g transform="matrix(24,0,0,24,501.01,231.472)">
            <rect x="0.055" y="-0.263" width="0.258" height="0.069" style="fill:white;fill-rule:nonzero;"/>
        </g>
        <g transform="matrix(24,0,0,24,510.25,231.472)">
            <path d="M0.385,-0L0.385,-0.082C0.383,-0.073 0.375,-0.061 0.362,-0.046C0.349,-0.031 0.331,-0.018 0.309,-0.006C0.287,0.006 0.26,0.012 0.23,0.012C0.192,0.012 0.157,0.003 0.126,-0.015C0.095,-0.033 0.071,-0.058 0.053,-0.09C0.035,-0.123 0.025,-0.161 0.025,-0.205C0.025,-0.249 0.035,-0.287 0.053,-0.32C0.071,-0.353 0.095,-0.378 0.126,-0.396C0.157,-0.414 0.192,-0.423 0.23,-0.423C0.26,-0.423 0.286,-0.417 0.308,-0.406C0.33,-0.395 0.348,-0.382 0.361,-0.368C0.374,-0.354 0.382,-0.342 0.385,-0.332L0.385,-0.41L0.463,-0.41L0.463,-0L0.385,-0ZM0.103,-0.205C0.103,-0.174 0.11,-0.147 0.124,-0.125C0.137,-0.102 0.155,-0.085 0.177,-0.073C0.198,-0.061 0.221,-0.055 0.246,-0.055C0.285,-0.055 0.318,-0.068 0.344,-0.096C0.37,-0.123 0.383,-0.159 0.383,-0.205C0.383,-0.25 0.37,-0.287 0.344,-0.315C0.318,-0.342 0.285,-0.356 0.246,-0.356C0.221,-0.356 0.198,-0.35 0.177,-0.338C0.155,-0.325 0.137,-0.308 0.124,-0.285C0.11,-0.263 0.103,-0.236 0.103,-0.205Z" style="fill:white;fill-rule:nonzero;"/>
        </g>
        <g transform="matrix(24,0,0,24,522.91,231.472)">
            <path d="M0.319,-0.316L0.214,-0L0.13,-0L0.021,-0.41L0.105,-0.41L0.18,-0.086L0.284,-0.403L0.353,-0.403L0.457,-0.086L0.533,-0.41L0.617,-0.41L0.508,-0L0.425,-0L0.319,-0.316Z" style="fill:white;fill-rule:nonzero;"/>
        </g>
        <g transform="matrix(24,0,0,24,538.618,231.472)">
            <path d="M0.385,-0L0.385,-0.082C0.383,-0.073 0.375,-0.061 0.362,-0.046C0.349,-0.031 0.331,-0.018 0.309,-0.006C0.287,0.006 0.26,0.012 0.23,0.012C0.192,0.012 0.157,0.003 0.126,-0.015C0.095,-0.033 0.071,-0.058 0.053,-0.09C0.035,-0.123 0.025,-0.161 0.025,-0.205C0.025,-0.249 0.035,-0.287 0.053,-0.32C0.071,-0.353 0.095,-0.378 0.126,-0.396C0.157,-0.414 0.192,-0.423 0.23,-0.423C0.26,-0.423 0.286,-0.417 0.308,-0.406C0.33,-0.395 0.348,-0.382 0.361,-0.368C0.374,-0.354 0.382,-0.342 0.385,-0.332L0.385,-0.41L0.463,-0.41L0.463,-0L0.385,-0ZM0.103,-0.205C0.103,-0.174 0.11,-0.147 0.124,-0.125C0.137,-0.102 0.155,-0.085 0.177,-0.073C0.198,-0.061 0.221,-0.055 0.246,-0.055C0.285,-0.055 0.318,-0.068 0.344,-0.096C0.37,-0.123 0.383,-0.159 0.383,-0.205C0.383,-0.25 0.37,-0.287 0.344,-0.315C0.318,-0.342 0.285,-0.356 0.246,-0.356C0.221,-0.356 0.198,-0.35 0.177,-0.338C0.155,-0.325 0.137,-0.308 0.124,-0.285C0.11,-0.263 0.103,-0.236 0.103,-0.205Z" style="fill:white;fill-rule:nonzero;"/>
        </g>
        <g transform="matrix(24,0,0,24,551.278,231.472)">
            <path d="M0.133,-0L0.054,-0L0.054,-0.41L0.133,-0.41L0.133,-0.347C0.137,-0.356 0.144,-0.366 0.155,-0.378C0.166,-0.39 0.18,-0.4 0.198,-0.409C0.216,-0.418 0.236,-0.423 0.26,-0.423C0.279,-0.423 0.295,-0.42 0.31,-0.415C0.324,-0.41 0.334,-0.405 0.34,-0.4L0.307,-0.334C0.302,-0.338 0.294,-0.343 0.282,-0.348C0.271,-0.353 0.257,-0.355 0.239,-0.355C0.217,-0.355 0.198,-0.348 0.182,-0.334C0.166,-0.32 0.154,-0.303 0.145,-0.283C0.137,-0.263 0.133,-0.245 0.133,-0.229L0.133,-0Z" style="fill:white;fill-rule:nonzero;"/>
        </g>
        <g transform="matrix(24,0,0,24,559.33,231.472)">
            <path d="M0.103,-0.19C0.104,-0.152 0.116,-0.119 0.139,-0.092C0.162,-0.064 0.197,-0.051 0.244,-0.051C0.269,-0.051 0.291,-0.054 0.309,-0.062C0.327,-0.07 0.342,-0.079 0.353,-0.09C0.364,-0.101 0.373,-0.11 0.378,-0.119L0.419,-0.07C0.402,-0.044 0.379,-0.024 0.352,-0.01C0.324,0.005 0.286,0.012 0.238,0.012C0.195,0.012 0.157,0.002 0.125,-0.017C0.093,-0.035 0.068,-0.062 0.051,-0.095C0.034,-0.128 0.025,-0.167 0.025,-0.21C0.025,-0.25 0.034,-0.286 0.05,-0.318C0.066,-0.35 0.09,-0.376 0.121,-0.395C0.152,-0.413 0.189,-0.423 0.233,-0.423C0.293,-0.423 0.341,-0.404 0.377,-0.367C0.413,-0.33 0.431,-0.28 0.431,-0.217C0.431,-0.214 0.431,-0.21 0.431,-0.203C0.43,-0.196 0.43,-0.192 0.43,-0.19L0.103,-0.19ZM0.353,-0.252C0.352,-0.266 0.348,-0.282 0.34,-0.299C0.333,-0.316 0.32,-0.33 0.303,-0.342C0.286,-0.354 0.263,-0.361 0.234,-0.361C0.204,-0.361 0.179,-0.355 0.161,-0.343C0.143,-0.331 0.129,-0.317 0.121,-0.3C0.112,-0.283 0.107,-0.267 0.106,-0.252L0.353,-0.252Z" style="fill:white;fill-rule:nonzero;"/>
        </g>
        <g transform="matrix(24,0,0,24,576.67,231.472)">
            <path d="M0.538,-0.423C0.583,-0.423 0.619,-0.407 0.644,-0.378C0.669,-0.347 0.681,-0.301 0.681,-0.238L0.681,-0L0.603,-0L0.603,-0.222C0.603,-0.268 0.597,-0.303 0.584,-0.326C0.571,-0.349 0.548,-0.36 0.514,-0.36C0.496,-0.36 0.479,-0.355 0.463,-0.345C0.447,-0.336 0.433,-0.321 0.423,-0.301C0.412,-0.28 0.407,-0.254 0.407,-0.222L0.407,-0L0.333,-0L0.333,-0.222C0.333,-0.268 0.325,-0.303 0.309,-0.326C0.293,-0.349 0.271,-0.36 0.243,-0.36C0.216,-0.36 0.192,-0.349 0.17,-0.328C0.148,-0.306 0.138,-0.271 0.138,-0.222L0.138,-0L0.059,-0L0.059,-0.41L0.138,-0.41L0.138,-0.347C0.141,-0.357 0.149,-0.368 0.161,-0.38C0.173,-0.392 0.189,-0.402 0.207,-0.41C0.227,-0.418 0.248,-0.423 0.272,-0.423C0.297,-0.423 0.317,-0.417 0.334,-0.407C0.351,-0.396 0.364,-0.384 0.373,-0.369C0.383,-0.354 0.389,-0.34 0.393,-0.327C0.397,-0.342 0.406,-0.356 0.42,-0.371C0.433,-0.386 0.45,-0.398 0.47,-0.408C0.49,-0.418 0.513,-0.423 0.538,-0.423Z" style="fill:white;fill-rule:nonzero;"/>
        </g>
        <g transform="matrix(24,0,0,24,594.694,231.472)">
            <path d="M0.105,-0.558C0.09,-0.558 0.077,-0.563 0.067,-0.574C0.056,-0.584 0.051,-0.596 0.051,-0.611C0.051,-0.626 0.056,-0.639 0.067,-0.649C0.077,-0.66 0.09,-0.665 0.105,-0.665C0.119,-0.665 0.132,-0.66 0.142,-0.649C0.154,-0.639 0.159,-0.626 0.159,-0.611C0.159,-0.596 0.154,-0.584 0.143,-0.574C0.132,-0.563 0.119,-0.558 0.105,-0.558ZM0.064,-0L0.064,-0.41L0.143,-0.41L0.143,-0L0.064,-0Z" style="fill:white;fill-rule:nonzero;"/>
        </g>
        <g transform="matrix(24,0,0,24,600.118,231.472)">
            <path d="M0.248,0.22C0.199,0.219 0.157,0.212 0.123,0.197C0.089,0.182 0.064,0.163 0.047,0.139L0.101,0.089C0.107,0.098 0.115,0.107 0.126,0.117C0.137,0.127 0.152,0.135 0.171,0.142C0.19,0.149 0.214,0.153 0.245,0.153C0.29,0.153 0.325,0.139 0.349,0.11C0.373,0.082 0.385,0.047 0.385,0.007L0.385,-0.082C0.383,-0.073 0.375,-0.061 0.362,-0.046C0.349,-0.031 0.331,-0.018 0.309,-0.006C0.287,0.006 0.26,0.012 0.23,0.012C0.192,0.012 0.157,0.003 0.126,-0.015C0.095,-0.033 0.071,-0.058 0.053,-0.09C0.035,-0.123 0.025,-0.161 0.025,-0.205C0.025,-0.249 0.035,-0.287 0.053,-0.32C0.071,-0.353 0.095,-0.378 0.126,-0.396C0.157,-0.414 0.192,-0.423 0.23,-0.423C0.26,-0.423 0.286,-0.417 0.308,-0.406C0.33,-0.395 0.348,-0.382 0.361,-0.368C0.374,-0.354 0.382,-0.342 0.385,-0.332L0.385,-0.41L0.463,-0.41L0.463,0.012C0.463,0.057 0.453,0.095 0.434,0.126C0.415,0.157 0.389,0.18 0.356,0.196C0.324,0.212 0.288,0.219 0.248,0.22ZM0.103,-0.205C0.103,-0.174 0.11,-0.147 0.124,-0.125C0.137,-0.102 0.155,-0.085 0.177,-0.073C0.198,-0.061 0.221,-0.055 0.246,-0.055C0.285,-0.055 0.318,-0.068 0.344,-0.096C0.37,-0.123 0.383,-0.159 0.383,-0.205C0.383,-0.25 0.37,-0.287 0.344,-0.315C0.318,-0.342 0.285,-0.356 0.246,-0.356C0.221,-0.356 0.198,-0.35 0.177,-0.338C0.155,-0.325 0.137,-0.308 0.124,-0.285C0.11,-0.263 0.103,-0.236 0.103,-0.205Z" style="fill:white;fill-rule:nonzero;"/>
        </g>
        <g transform="matrix(24,0,0,24,612.874,231.472)">
            <path d="M0.133,-0L0.054,-0L0.054,-0.41L0.133,-0.41L0.133,-0.347C0.137,-0.356 0.144,-0.366 0.155,-0.378C0.166,-0.39 0.18,-0.4 0.198,-0.409C0.216,-0.418 0.236,-0.423 0.26,-0.423C0.279,-0.423 0.295,-0.42 0.31,-0.415C0.324,-0.41 0.334,-0.405 0.34,-0.4L0.307,-0.334C0.302,-0.338 0.294,-0.343 0.282,-0.348C0.271,-0.353 0.257,-0.355 0.239,-0.355C0.217,-0.355 0.198,-0.348 0.182,-0.334C0.166,-0.32 0.154,-0.303 0.145,-0.283C0.137,-0.263 0.133,-0.245 0.133,-0.229L0.133,-0Z" style="fill:white;fill-rule:nonzero;"/>
        </g>
        <g transform="matrix(24,0,0,24,620.926,231.472)">
            <path d="M0.385,-0L0.385,-0.082C0.383,-0.073 0.375,-0.061 0.362,-0.046C0.349,-0.031 0.331,-0.018 0.309,-0.006C0.287,0.006 0.26,0.012 0.23,0.012C0.192,0.012 0.157,0.003 0.126,-0.015C0.095,-0.033 0.071,-0.058 0.053,-0.09C0.035,-0.123 0.025,-0.161 0.025,-0.205C0.025,-0.249 0.035,-0.287 0.053,-0.32C0.071,-0.353 0.095,-0.378 0.126,-0.396C0.157,-0.414 0.192,-0.423 0.23,-0.423C0.26,-0.423 0.286,-0.417 0.308,-0.406C0.33,-0.395 0.348,-0.382 0.361,-0.368C0.374,-0.354 0.382,-0.342 0.385,-0.332L0.385,-0.41L0.463,-0.41L0.463,-0L0.385,-0ZM0.103,-0.205C0.103,-0.174 0.11,-0.147 0.124,-0.125C0.137,-0.102 0.155,-0.085 0.177,-0.073C0.198,-0.061 0.221,-0.055 0.246,-0.055C0.285,-0.055 0.318,-0.068 0.344,-0.096C0.37,-0.123 0.383,-0.159 0.383,-0.205C0.383,-0.25 0.37,-0.287 0.344,-0.315C0.318,-0.342 0.285,-0.356 0.246,-0.356C0.221,-0.356 0.198,-0.35 0.177,-0.338C0.155,-0.325 0.137,-0.308 0.124,-0.285C0.11,-0.263 0.103,-0.236 0.103,-0.205Z" style="fill:white;fill-rule:nonzero;"/>
        </g>
        <g transform="matrix(24,0,0,24,633.586,231.472)">
            <path d="M0.019,-0.41L0.101,-0.41L0.101,-0.579L0.179,-0.579L0.179,-0.41L0.286,-0.41L0.286,-0.342L0.179,-0.342L0.179,-0.129C0.179,-0.103 0.184,-0.085 0.193,-0.074C0.202,-0.063 0.213,-0.057 0.228,-0.057C0.241,-0.057 0.251,-0.059 0.258,-0.064C0.265,-0.069 0.27,-0.072 0.271,-0.074L0.303,-0.015C0.3,-0.012 0.29,-0.007 0.274,0.001C0.257,0.008 0.236,0.012 0.21,0.012C0.179,0.012 0.153,0.002 0.132,-0.017C0.111,-0.036 0.101,-0.066 0.101,-0.108L0.101,-0.342L0.019,-0.342L0.019,-0.41Z" style="fill:white;fill-rule:nonzero;"/>
        </g>
        <g transform="matrix(24,0,0,24,641.446,231.472)">
            <path d="M0.105,-0.558C0.09,-0.558 0.077,-0.563 0.067,-0.574C0.056,-0.584 0.051,-0.596 0.051,-0.611C0.051,-0.626 0.056,-0.639 0.067,-0.649C0.077,-0.66 0.09,-0.665 0.105,-0.665C0.119,-0.665 0.132,-0.66 0.142,-0.649C0.154,-0.639 0.159,-0.626 0.159,-0.611C0.159,-0.596 0.154,-0.584 0.143,-0.574C0.132,-0.563 0.119,-0.558 0.105,-0.558ZM0.064,-0L0.064,-0.41L0.143,-0.41L0.143,-0L0.064,-0Z" style="fill:white;fill-rule:nonzero;"/>
        </g>
        <g transform="matrix(24,0,0,24,646.87,231.472)">
            <path d="M0.242,0.012C0.2,0.012 0.162,0.002 0.13,-0.017C0.097,-0.035 0.072,-0.061 0.053,-0.094C0.035,-0.127 0.025,-0.163 0.025,-0.204C0.025,-0.245 0.035,-0.281 0.053,-0.315C0.072,-0.347 0.097,-0.374 0.13,-0.393C0.162,-0.413 0.2,-0.423 0.242,-0.423C0.283,-0.423 0.32,-0.413 0.353,-0.393C0.385,-0.374 0.41,-0.347 0.428,-0.315C0.446,-0.281 0.456,-0.245 0.456,-0.204C0.456,-0.163 0.446,-0.127 0.428,-0.094C0.41,-0.061 0.385,-0.035 0.353,-0.017C0.32,0.002 0.283,0.012 0.242,0.012ZM0.242,-0.057C0.283,-0.057 0.317,-0.071 0.342,-0.099C0.367,-0.127 0.38,-0.162 0.38,-0.204C0.38,-0.247 0.367,-0.282 0.342,-0.311C0.317,-0.34 0.283,-0.354 0.242,-0.354C0.214,-0.354 0.189,-0.347 0.168,-0.334C0.147,-0.321 0.131,-0.303 0.119,-0.28C0.108,-0.258 0.102,-0.233 0.102,-0.204C0.102,-0.162 0.115,-0.127 0.14,-0.099C0.166,-0.071 0.2,-0.057 0.242,-0.057Z" style="fill:white;fill-rule:nonzero;"/>
        </g>
        <g transform="matrix(24,0,0,24,658.858,231.472)">
            <path d="M0.277,-0.423C0.304,-0.423 0.33,-0.417 0.355,-0.406C0.38,-0.394 0.401,-0.376 0.417,-0.352C0.434,-0.328 0.442,-0.296 0.442,-0.257L0.442,-0L0.362,-0L0.362,-0.241C0.362,-0.282 0.352,-0.313 0.333,-0.332C0.313,-0.351 0.288,-0.361 0.257,-0.361C0.236,-0.361 0.217,-0.355 0.198,-0.343C0.179,-0.331 0.164,-0.316 0.152,-0.296C0.14,-0.276 0.134,-0.253 0.134,-0.228L0.134,-0L0.055,-0L0.055,-0.41L0.134,-0.41L0.134,-0.336C0.137,-0.347 0.145,-0.36 0.158,-0.373C0.171,-0.387 0.188,-0.398 0.209,-0.408C0.23,-0.418 0.253,-0.423 0.277,-0.423Z" style="fill:white;fill-rule:nonzero;"/>
        </g>
        <g transform="matrix(24,0,0,24,670.99,231.472)">
            <path d="M0.204,-0.423C0.235,-0.423 0.263,-0.418 0.288,-0.409C0.312,-0.4 0.329,-0.392 0.338,-0.385L0.306,-0.334C0.299,-0.34 0.286,-0.346 0.269,-0.354C0.252,-0.361 0.232,-0.365 0.211,-0.365C0.187,-0.365 0.166,-0.36 0.149,-0.35C0.132,-0.341 0.124,-0.327 0.124,-0.309C0.124,-0.291 0.132,-0.277 0.15,-0.266C0.167,-0.255 0.191,-0.247 0.22,-0.239C0.243,-0.234 0.264,-0.227 0.283,-0.218C0.303,-0.209 0.319,-0.196 0.331,-0.181C0.343,-0.165 0.349,-0.144 0.349,-0.117C0.349,-0.086 0.341,-0.061 0.324,-0.042C0.307,-0.023 0.286,-0.009 0.259,-0.001C0.233,0.008 0.205,0.012 0.176,0.012C0.139,0.012 0.107,0.007 0.082,-0.004C0.056,-0.015 0.038,-0.025 0.028,-0.033L0.062,-0.091C0.07,-0.082 0.084,-0.073 0.104,-0.064C0.124,-0.054 0.147,-0.05 0.172,-0.05C0.201,-0.05 0.224,-0.056 0.242,-0.068C0.26,-0.08 0.27,-0.097 0.27,-0.117C0.27,-0.14 0.26,-0.156 0.241,-0.166C0.222,-0.176 0.2,-0.184 0.175,-0.19C0.153,-0.195 0.133,-0.202 0.113,-0.212C0.093,-0.221 0.077,-0.234 0.065,-0.25C0.052,-0.266 0.046,-0.286 0.046,-0.311C0.046,-0.334 0.053,-0.354 0.068,-0.371C0.083,-0.387 0.102,-0.4 0.126,-0.409C0.15,-0.418 0.176,-0.423 0.204,-0.423Z" style="fill:white;fill-rule:nonzero;"/>
        </g>
    </g>
    <g transform="matrix(1.00032,0,0,1,-150.512,-95.732)">
        <g id="Icon1" serif:id="Icon" transform="matrix(0.331315,0,0,0.361883,37.0406,21.7361)">
            <g id="Wheel1" serif:id="Wheel" transform="matrix(2.28496,0,-0.0775267,1.80755,78.5462,0.844609)">
                <path d="M223.959,185.249C224.65,185.248 225.246,185.865 225.325,186.663C225.408,187.476 225.48,188.321 225.48,188.747C225.48,210.155 208.278,231.206 185.936,231.206C163.711,231.206 144.362,210.426 144.362,189.129C144.362,188.381 144.38,187.475 144.421,186.619C144.465,185.841 145.011,185.25 145.687,185.25C149.034,185.249 158.642,185.249 162.409,185.249C162.787,185.249 163.152,185.436 163.414,185.763C163.676,186.089 163.808,186.524 163.778,186.958C163.738,187.582 163.72,188.213 163.72,188.747C163.72,199.919 173.427,208.926 185.086,208.926C196.555,208.926 206.122,200.118 206.122,189.129C206.122,188.869 206.116,188.593 206.104,188.307C206.076,187.497 206.328,186.72 206.803,186.147C207.278,185.575 207.938,185.253 208.638,185.253C212.954,185.249 220.944,185.249 223.959,185.249Z" style="fill:white;"/>
            </g>
            <g id="Guard1" serif:id="Guard" transform="matrix(3.01827,0,0,2.76332,-108.804,-136.837)">
                <path d="M241.592,158.059L149.616,158.059C148.47,165.051 154.204,168.988 162.753,168.988L225.965,169C232.524,169 238.321,164.47 241.592,158.059ZM244.05,149L155.674,149C155.071,149 154.499,149.272 154.119,149.742C153.149,150.951 152.383,152.09 151.785,153.046L240.655,152.96C242.796,152.96 243.535,151.25 244.05,149ZM159.143,144.701C159.143,144.701 234.407,144.125 243.778,144.053C244.315,144.049 244.753,143.621 244.77,143.084C244.979,135.151 243.077,127.414 235.112,124.622C215.962,118.727 165.643,137.982 159.143,144.701Z" style="fill:white;"/>
            </g>
        </g>
        <g transform="matrix(0.999676,0,0,1,183.789,-190.872)">
            <g id="Name1" serif:id="Name" transform="matrix(92,0,0,92,74.9365,359.596)">
                <path d="M0.274,-0.672C0.313,-0.672 0.348,-0.668 0.377,-0.659C0.407,-0.65 0.43,-0.641 0.448,-0.63C0.465,-0.621 0.476,-0.614 0.48,-0.611L0.419,-0.51C0.413,-0.514 0.405,-0.52 0.392,-0.528C0.379,-0.536 0.363,-0.543 0.345,-0.549C0.327,-0.555 0.308,-0.559 0.286,-0.559C0.256,-0.559 0.232,-0.553 0.214,-0.542C0.196,-0.53 0.187,-0.513 0.187,-0.491C0.187,-0.469 0.197,-0.45 0.219,-0.435C0.24,-0.42 0.272,-0.404 0.313,-0.388C0.345,-0.376 0.375,-0.36 0.403,-0.342C0.431,-0.324 0.453,-0.302 0.47,-0.275C0.488,-0.248 0.497,-0.216 0.497,-0.178C0.497,-0.136 0.485,-0.101 0.463,-0.073C0.441,-0.045 0.411,-0.023 0.375,-0.009C0.338,0.005 0.299,0.012 0.256,0.012C0.212,0.012 0.173,0.007 0.139,-0.003C0.105,-0.013 0.077,-0.024 0.056,-0.036C0.034,-0.047 0.022,-0.055 0.018,-0.059L0.082,-0.164C0.087,-0.16 0.098,-0.153 0.116,-0.143C0.134,-0.133 0.155,-0.124 0.18,-0.116C0.205,-0.107 0.231,-0.103 0.257,-0.103C0.293,-0.103 0.321,-0.111 0.339,-0.126C0.357,-0.141 0.367,-0.16 0.367,-0.184C0.367,-0.211 0.354,-0.234 0.328,-0.252C0.302,-0.27 0.268,-0.287 0.224,-0.305C0.195,-0.317 0.167,-0.332 0.142,-0.348C0.117,-0.365 0.097,-0.385 0.082,-0.409C0.066,-0.433 0.059,-0.463 0.059,-0.499C0.059,-0.534 0.068,-0.564 0.088,-0.59C0.108,-0.616 0.134,-0.636 0.167,-0.651C0.2,-0.665 0.235,-0.672 0.274,-0.672Z" style="fill:white;fill-rule:nonzero;"/>
            </g>
            <g transform="matrix(92,0,0,92,123.604,359.596)">
                <path d="M0.258,-0.089C0.279,-0.089 0.297,-0.092 0.311,-0.1C0.324,-0.107 0.333,-0.112 0.338,-0.116L0.397,-0.029C0.39,-0.023 0.374,-0.015 0.348,-0.004C0.324,0.007 0.293,0.012 0.256,0.012C0.212,0.012 0.173,0.003 0.139,-0.014C0.105,-0.032 0.078,-0.057 0.058,-0.089C0.038,-0.122 0.028,-0.161 0.028,-0.205C0.028,-0.251 0.038,-0.29 0.058,-0.322C0.078,-0.354 0.105,-0.379 0.139,-0.397C0.173,-0.414 0.212,-0.423 0.256,-0.423C0.292,-0.423 0.323,-0.417 0.347,-0.406C0.373,-0.395 0.389,-0.386 0.396,-0.38L0.336,-0.292C0.332,-0.295 0.324,-0.301 0.311,-0.31C0.298,-0.318 0.28,-0.322 0.258,-0.322C0.239,-0.322 0.221,-0.317 0.205,-0.308C0.188,-0.298 0.175,-0.284 0.165,-0.267C0.154,-0.249 0.149,-0.229 0.149,-0.205C0.149,-0.182 0.154,-0.161 0.165,-0.144C0.175,-0.126 0.188,-0.113 0.205,-0.103C0.221,-0.093 0.239,-0.089 0.258,-0.089Z" style="fill:white;fill-rule:nonzero;"/>
            </g>
            <g transform="matrix(92,0,0,92,160.726,359.596)">
                <path d="M0.248,0.012C0.204,0.012 0.165,0.003 0.131,-0.016C0.097,-0.035 0.07,-0.06 0.051,-0.093C0.031,-0.125 0.021,-0.162 0.021,-0.204C0.021,-0.246 0.031,-0.283 0.051,-0.316C0.07,-0.349 0.097,-0.375 0.131,-0.394C0.165,-0.413 0.204,-0.423 0.248,-0.423C0.292,-0.423 0.33,-0.413 0.364,-0.394C0.397,-0.375 0.424,-0.349 0.443,-0.316C0.462,-0.283 0.471,-0.246 0.471,-0.204C0.471,-0.162 0.462,-0.125 0.443,-0.093C0.424,-0.06 0.397,-0.035 0.364,-0.016C0.33,0.003 0.292,0.012 0.248,0.012ZM0.248,-0.093C0.279,-0.093 0.304,-0.103 0.323,-0.125C0.342,-0.146 0.352,-0.172 0.352,-0.204C0.352,-0.237 0.342,-0.264 0.323,-0.285C0.304,-0.307 0.279,-0.318 0.248,-0.318C0.216,-0.318 0.19,-0.307 0.171,-0.285C0.152,-0.264 0.142,-0.237 0.142,-0.204C0.142,-0.172 0.152,-0.146 0.171,-0.125C0.19,-0.103 0.216,-0.093 0.248,-0.093Z" style="fill:white;fill-rule:nonzero;"/>
            </g>
            <g transform="matrix(92,0,0,92,206.036,359.596)">
                <path d="M0.248,0.012C0.204,0.012 0.165,0.003 0.131,-0.016C0.097,-0.035 0.07,-0.06 0.051,-0.093C0.031,-0.125 0.021,-0.162 0.021,-0.204C0.021,-0.246 0.031,-0.283 0.051,-0.316C0.07,-0.349 0.097,-0.375 0.131,-0.394C0.165,-0.413 0.204,-0.423 0.248,-0.423C0.292,-0.423 0.33,-0.413 0.364,-0.394C0.397,-0.375 0.424,-0.349 0.443,-0.316C0.462,-0.283 0.471,-0.246 0.471,-0.204C0.471,-0.162 0.462,-0.125 0.443,-0.093C0.424,-0.06 0.397,-0.035 0.364,-0.016C0.33,0.003 0.292,0.012 0.248,0.012ZM0.248,-0.093C0.279,-0.093 0.304,-0.103 0.323,-0.125C0.342,-0.146 0.352,-0.172 0.352,-0.204C0.352,-0.237 0.342,-0.264 0.323,-0.285C0.304,-0.307 0.279,-0.318 0.248,-0.318C0.216,-0.318 0.19,-0.307 0.171,-0.285C0.152,-0.264 0.142,-0.237 0.142,-0.204C0.142,-0.172 0.152,-0.146 0.171,-0.125C0.19,-0.103 0.216,-0.093 0.248,-0.093Z" style="fill:white;fill-rule:nonzero;"/>
            </g>
            <g transform="matrix(92,0,0,92,251.346,359.596)">
                <path d="M0.012,-0.41L0.086,-0.41L0.086,-0.579L0.211,-0.579L0.211,-0.41L0.308,-0.41L0.308,-0.306L0.211,-0.306L0.211,-0.156C0.211,-0.115 0.224,-0.094 0.25,-0.094C0.26,-0.094 0.269,-0.096 0.276,-0.1C0.283,-0.104 0.287,-0.107 0.288,-0.109L0.333,-0.019C0.329,-0.015 0.317,-0.009 0.295,-0.001C0.273,0.008 0.247,0.012 0.216,0.012C0.178,0.012 0.147,0.001 0.122,-0.021C0.098,-0.042 0.086,-0.076 0.086,-0.122L0.086,-0.306L0.012,-0.306L0.012,-0.41Z" style="fill:white;fill-rule:nonzero;"/>
            </g>
            <g transform="matrix(92,0,0,92,281.936,359.596)">
                <path d="M0.143,-0.177C0.144,-0.149 0.154,-0.127 0.174,-0.109C0.194,-0.091 0.222,-0.082 0.258,-0.082C0.29,-0.082 0.316,-0.087 0.337,-0.099C0.358,-0.11 0.373,-0.12 0.382,-0.131L0.435,-0.052C0.421,-0.034 0.4,-0.019 0.372,-0.007C0.344,0.006 0.303,0.012 0.25,0.012C0.204,0.012 0.164,0.003 0.13,-0.015C0.096,-0.032 0.069,-0.058 0.05,-0.091C0.031,-0.124 0.021,-0.164 0.021,-0.21C0.021,-0.25 0.03,-0.286 0.047,-0.318C0.064,-0.35 0.089,-0.375 0.122,-0.394C0.154,-0.413 0.194,-0.423 0.239,-0.423C0.304,-0.423 0.356,-0.404 0.394,-0.367C0.432,-0.33 0.451,-0.278 0.451,-0.209C0.451,-0.206 0.451,-0.201 0.451,-0.193C0.451,-0.185 0.45,-0.179 0.45,-0.177L0.143,-0.177ZM0.33,-0.256C0.329,-0.266 0.326,-0.277 0.32,-0.289C0.314,-0.301 0.305,-0.312 0.292,-0.32C0.279,-0.329 0.262,-0.333 0.241,-0.333C0.209,-0.333 0.186,-0.324 0.171,-0.307C0.156,-0.29 0.147,-0.273 0.146,-0.256L0.33,-0.256Z" style="fill:white;fill-rule:nonzero;"/>
            </g>
            <g transform="matrix(92,0,0,92,325.406,359.596)">
                <path d="M0.164,-0L0.038,-0L0.038,-0.41L0.164,-0.41L0.164,-0.35C0.168,-0.359 0.175,-0.369 0.186,-0.381C0.197,-0.392 0.211,-0.402 0.229,-0.41C0.247,-0.418 0.268,-0.423 0.292,-0.423C0.311,-0.423 0.328,-0.42 0.344,-0.414C0.359,-0.409 0.37,-0.403 0.377,-0.398L0.328,-0.295C0.323,-0.3 0.315,-0.305 0.303,-0.311C0.291,-0.317 0.276,-0.32 0.259,-0.32C0.238,-0.32 0.22,-0.314 0.206,-0.302C0.192,-0.291 0.182,-0.277 0.174,-0.26C0.168,-0.244 0.164,-0.228 0.164,-0.214L0.164,-0Z" style="fill:white;fill-rule:nonzero;"/>
            </g>
        </g>
    </g>
    <g transform="matrix(1,0,0,1,-304.124,-125.466)">
        <g transform="matrix(24,0,0,24,324.682,231.472)">
            <path d="M0.255,-0.66L0.337,-0.66L0.579,-0L0.496,-0L0.438,-0.162L0.154,-0.162L0.096,-0L0.012,-0L0.255,-0.66ZM0.179,-0.233L0.413,-0.233L0.297,-0.564L0.295,-0.564L0.179,-0.233Z" style="fill:white;fill-rule:nonzero;"/>
        </g>
        <g transform="matrix(24,0,0,24,338.962,231.472)">
            <path d="M0.277,-0.423C0.304,-0.423 0.33,-0.417 0.355,-0.406C0.38,-0.394 0.401,-0.376 0.417,-0.352C0.434,-0.328 0.442,-0.296 0.442,-0.257L0.442,-0L0.362,-0L0.362,-0.241C0.362,-0.282 0.352,-0.313 0.333,-0.332C0.313,-0.351 0.288,-0.361 0.257,-0.361C0.236,-0.361 0.217,-0.355 0.198,-0.343C0.179,-0.331 0.164,-0.316 0.152,-0.296C0.14,-0.276 0.134,-0.253 0.134,-0.228L0.134,-0L0.055,-0L0.055,-0.41L0.134,-0.41L0.134,-0.336C0.137,-0.347 0.145,-0.36 0.158,-0.373C0.171,-0.387 0.188,-0.398 0.209,-0.408C0.23,-0.418 0.253,-0.423 0.277,-0.423Z" style="fill:white;fill-rule:nonzero;"/>
        </g>
        <g transform="matrix(24,0,0,24,357.034,231.472)">
            <path d="M0.023,-0.331C0.023,-0.379 0.031,-0.423 0.047,-0.465C0.064,-0.506 0.087,-0.543 0.116,-0.574C0.146,-0.605 0.18,-0.629 0.22,-0.646C0.26,-0.663 0.303,-0.672 0.349,-0.672C0.396,-0.672 0.439,-0.663 0.479,-0.646C0.519,-0.629 0.553,-0.605 0.583,-0.574C0.612,-0.543 0.635,-0.506 0.651,-0.465C0.667,-0.423 0.676,-0.379 0.676,-0.331C0.676,-0.282 0.667,-0.237 0.651,-0.196C0.635,-0.154 0.612,-0.118 0.583,-0.087C0.554,-0.056 0.52,-0.031 0.48,-0.014C0.44,0.003 0.397,0.012 0.349,0.012C0.302,0.012 0.259,0.003 0.219,-0.014C0.179,-0.031 0.144,-0.056 0.115,-0.087C0.086,-0.118 0.063,-0.154 0.047,-0.196C0.031,-0.237 0.023,-0.282 0.023,-0.331ZM0.103,-0.331C0.103,-0.28 0.114,-0.235 0.135,-0.194C0.156,-0.154 0.185,-0.122 0.222,-0.098C0.259,-0.074 0.302,-0.063 0.349,-0.063C0.398,-0.063 0.44,-0.074 0.477,-0.098C0.514,-0.122 0.543,-0.154 0.564,-0.194C0.585,-0.235 0.595,-0.28 0.595,-0.331C0.595,-0.381 0.585,-0.426 0.564,-0.467C0.543,-0.507 0.514,-0.539 0.477,-0.562C0.44,-0.586 0.398,-0.598 0.349,-0.598C0.302,-0.598 0.259,-0.586 0.222,-0.562C0.185,-0.539 0.156,-0.507 0.135,-0.467C0.114,-0.426 0.103,-0.381 0.103,-0.331Z" style="fill:white;fill-rule:nonzero;"/>
        </g>
        <g transform="matrix(24,0,0,24,374.314,231.472)">
            <path d="M0.057,-0.66L0.283,-0.66C0.318,-0.66 0.351,-0.653 0.38,-0.638C0.409,-0.623 0.432,-0.602 0.45,-0.574C0.467,-0.545 0.475,-0.511 0.475,-0.47C0.475,-0.429 0.467,-0.396 0.451,-0.369C0.435,-0.342 0.415,-0.322 0.392,-0.308C0.369,-0.295 0.348,-0.288 0.329,-0.286L0.493,-0L0.404,-0L0.25,-0.281L0.135,-0.281L0.135,-0L0.057,-0L0.057,-0.66ZM0.135,-0.34L0.256,-0.34C0.297,-0.34 0.33,-0.35 0.357,-0.37C0.383,-0.391 0.396,-0.423 0.396,-0.468C0.396,-0.513 0.383,-0.545 0.357,-0.565C0.331,-0.584 0.297,-0.594 0.257,-0.594L0.135,-0.594L0.135,-0.34Z" style="fill:white;fill-rule:nonzero;"/>
        </g>
        <g transform="matrix(24,0,0,24,387.514,231.472)">
            <path d="M0.642,-0.66L0.642,-0L0.564,-0L0.564,-0.487L0.568,-0.556L0.552,-0.481L0.387,-0.035L0.31,-0.035L0.145,-0.481L0.128,-0.556L0.132,-0.487L0.132,-0L0.054,-0L0.054,-0.66L0.156,-0.66L0.342,-0.133L0.348,-0.101L0.354,-0.133L0.541,-0.66L0.642,-0.66Z" style="fill:white;fill-rule:nonzero;"/>
        </g>
        <g transform="matrix(24,0,0,24,410.914,231.472)">
            <path d="M0.015,-0.41L0.101,-0.41L0.101,-0.528C0.101,-0.57 0.108,-0.603 0.122,-0.628C0.136,-0.653 0.154,-0.672 0.176,-0.683C0.198,-0.694 0.22,-0.7 0.243,-0.7C0.271,-0.7 0.293,-0.696 0.308,-0.688C0.323,-0.68 0.332,-0.675 0.335,-0.673L0.303,-0.612C0.301,-0.614 0.295,-0.618 0.286,-0.623C0.278,-0.628 0.266,-0.631 0.25,-0.631C0.238,-0.631 0.227,-0.628 0.216,-0.623C0.205,-0.617 0.196,-0.606 0.189,-0.59C0.182,-0.574 0.179,-0.55 0.179,-0.519L0.179,-0.41L0.298,-0.41L0.298,-0.343L0.179,-0.343L0.179,-0L0.101,-0L0.101,-0.343L0.015,-0.343L0.015,-0.41Z" style="fill:white;fill-rule:nonzero;"/>
        </g>
        <g transform="matrix(24,0,0,24,418.69,231.472)">
            <path d="M0.242,0.012C0.2,0.012 0.162,0.002 0.13,-0.017C0.097,-0.035 0.072,-0.061 0.053,-0.094C0.035,-0.127 0.025,-0.163 0.025,-0.204C0.025,-0.245 0.035,-0.281 0.053,-0.315C0.072,-0.347 0.097,-0.374 0.13,-0.393C0.162,-0.413 0.2,-0.423 0.242,-0.423C0.283,-0.423 0.32,-0.413 0.353,-0.393C0.385,-0.374 0.41,-0.347 0.428,-0.315C0.446,-0.281 0.456,-0.245 0.456,-0.204C0.456,-0.163 0.446,-0.127 0.428,-0.094C0.41,-0.061 0.385,-0.035 0.353,-0.017C0.32,0.002 0.283,0.012 0.242,0.012ZM0.242,-0.057C0.283,-0.057 0.317,-0.071 0.342,-0.099C0.367,-0.127 0.38,-0.162 0.38,-0.204C0.38,-0.247 0.367,-0.282 0.342,-0.311C0.317,-0.34 0.283,-0.354 0.242,-0.354C0.214,-0.354 0.189,-0.347 0.168,-0.334C0.147,-0.321 0.131,-0.303 0.119,-0.28C0.108,-0.258 0.102,-0.233 0.102,-0.204C0.102,-0.162 0.115,-0.127 0.14,-0.099C0.166,-0.071 0.2,-0.057 0.242,-0.057Z" style="fill:white;fill-rule:nonzero;"/>
        </g>
        <g transform="matrix(24,0,0,24,430.678,231.472)">
            <path d="M0.133,-0L0.054,-0L0.054,-0.41L0.133,-0.41L0.133,-0.347C0.137,-0.356 0.144,-0.366 0.155,-0.378C0.166,-0.39 0.18,-0.4 0.198,-0.409C0.216,-0.418 0.236,-0.423 0.26,-0.423C0.279,-0.423 0.295,-0.42 0.31,-0.415C0.324,-0.41 0.334,-0.405 0.34,-0.4L0.307,-0.334C0.302,-0.338 0.294,-0.343 0.282,-0.348C0.271,-0.353 0.257,-0.355 0.239,-0.355C0.217,-0.355 0.198,-0.348 0.182,-0.334C0.166,-0.32 0.154,-0.303 0.145,-0.283C0.137,-0.263 0.133,-0.245 0.133,-0.229L0.133,-0Z" style="fill:white;fill-rule:nonzero;"/>
        </g>
        <g transform="matrix(24,0,0,24,444.886,231.472)">
            <path d="M0.135,0.208L0.056,0.208L0.056,-0.41L0.136,-0.41L0.136,-0.332C0.138,-0.342 0.147,-0.354 0.161,-0.369C0.174,-0.383 0.193,-0.395 0.217,-0.406C0.24,-0.417 0.267,-0.423 0.297,-0.423C0.335,-0.423 0.369,-0.414 0.399,-0.396C0.428,-0.378 0.452,-0.353 0.469,-0.32C0.486,-0.287 0.494,-0.249 0.494,-0.205C0.494,-0.161 0.485,-0.123 0.468,-0.09C0.45,-0.058 0.427,-0.033 0.397,-0.015C0.367,0.003 0.333,0.012 0.295,0.012C0.263,0.012 0.236,0.006 0.213,-0.006C0.189,-0.018 0.171,-0.031 0.157,-0.046C0.144,-0.061 0.136,-0.073 0.135,-0.082L0.135,0.208ZM0.416,-0.205C0.416,-0.236 0.409,-0.263 0.397,-0.285C0.384,-0.308 0.367,-0.325 0.346,-0.338C0.326,-0.35 0.304,-0.356 0.28,-0.356C0.253,-0.356 0.229,-0.35 0.207,-0.337C0.185,-0.325 0.168,-0.307 0.155,-0.284C0.142,-0.262 0.136,-0.235 0.136,-0.205C0.136,-0.175 0.142,-0.148 0.155,-0.126C0.168,-0.103 0.185,-0.085 0.207,-0.073C0.229,-0.061 0.253,-0.055 0.28,-0.055C0.304,-0.055 0.326,-0.061 0.346,-0.073C0.367,-0.085 0.384,-0.102 0.397,-0.125C0.409,-0.147 0.416,-0.174 0.416,-0.205Z" style="fill:white;fill-rule:nonzero;"/>
        </g>
        <g transform="matrix(24,0,0,24,457.666,231.472)">
            <path d="M0.242,0.012C0.2,0.012 0.162,0.002 0.13,-0.017C0.097,-0.035 0.072,-0.061 0.053,-0.094C0.035,-0.127 0.025,-0.163 0.025,-0.204C0.025,-0.245 0.035,-0.281 0.053,-0.315C0.072,-0.347 0.097,-0.374 0.13,-0.393C0.162,-0.413 0.2,-0.423 0.242,-0.423C0.283,-0.423 0.32,-0.413 0.353,-0.393C0.385,-0.374 0.41,-0.347 0.428,-0.315C0.446,-0.281 0.456,-0.245 0.456,-0.204C0.456,-0.163 0.446,-0.127 0.428,-0.094C0.41,-0.061 0.385,-0.035 0.353,-0.017C0.32,0.002 0.283,0.012 0.242,0.012ZM0.242,-0.057C0.283,-0.057 0.317,-0.071 0.342,-0.099C0.367,-0.127 0.38,-0.162 0.38,-0.204C0.38,-0.247 0.367,-0.282 0.342,-0.311C0.317,-0.34 0.283,-0.354 0.242,-0.354C0.214,-0.354 0.189,-0.347 0.168,-0.334C0.147,-0.321 0.131,-0.303 0.119,-0.28C0.108,-0.258 0.102,-0.233 0.102,-0.204C0.102,-0.162 0.115,-0.127 0.14,-0.099C0.166,-0.071 0.2,-0.057 0.242,-0.057Z" style="fill:white;fill-rule:nonzero;"/>
        </g>
        <g transform="matrix(24,0,0,24,469.654,231.472)">
            <rect x="0.057" y="-0.688" width="0.08" height="0.688" style="fill:white;fill-rule:nonzero;"/>
        </g>
        <g transform="matrix(24,0,0,24,474.73,231.472)">
            <path d="M0.105,-0.558C0.09,-0.558 0.077,-0.563 0.067,-0.574C0.056,-0.584 0.051,-0.596 0.051,-0.611C0.051,-0.626 0.056,-0.639 0.067,-0.649C0.077,-0.66 0.09,-0.665 0.105,-0.665C0.119,-0.665 0.132,-0.66 0.142,-0.649C0.154,-0.639 0.159,-0.626 0.159,-0.611C0.159,-0.596 0.154,-0.584 0.143,-0.574C0.132,-0.563 0.119,-0.558 0.105,-0.558ZM0.064,-0L0.064,-0.41L0.143,-0.41L0.143,-0L0.064,-0Z" style="fill:white;fill-rule:nonzero;"/>
        </g>
        <g transform="matrix(24,0,0,24,480.154,231.472)">
            <path d="M0.244,-0.055C0.271,-0.055 0.292,-0.059 0.309,-0.067C0.325,-0.076 0.336,-0.082 0.34,-0.086L0.379,-0.028C0.375,-0.025 0.367,-0.02 0.355,-0.014C0.343,-0.008 0.327,-0.002 0.307,0.004C0.288,0.009 0.266,0.012 0.241,0.012C0.205,0.012 0.171,0.004 0.139,-0.013C0.107,-0.03 0.081,-0.054 0.061,-0.086C0.041,-0.119 0.031,-0.159 0.031,-0.205C0.031,-0.253 0.041,-0.292 0.061,-0.325C0.081,-0.357 0.107,-0.381 0.139,-0.398C0.171,-0.414 0.205,-0.423 0.241,-0.423C0.265,-0.423 0.287,-0.42 0.306,-0.414C0.325,-0.408 0.341,-0.401 0.353,-0.394C0.365,-0.387 0.373,-0.382 0.377,-0.379L0.338,-0.321C0.333,-0.325 0.323,-0.331 0.308,-0.341C0.292,-0.351 0.271,-0.356 0.244,-0.356C0.222,-0.356 0.2,-0.35 0.179,-0.338C0.158,-0.326 0.141,-0.309 0.128,-0.287C0.115,-0.264 0.108,-0.237 0.108,-0.205C0.108,-0.174 0.115,-0.147 0.128,-0.124C0.141,-0.101 0.158,-0.084 0.179,-0.072C0.2,-0.06 0.222,-0.055 0.244,-0.055Z" style="fill:white;fill-rule:nonzero;"/>
        </g>
        <g transform="matrix(24,0,0,24,490.078,231.472)">
            <path d="M0.22,-0.073L0.362,-0.41L0.442,-0.41L0.165,0.208L0.085,0.208L0.178,-0L0.009,-0.41L0.09,-0.41L0.22,-0.073Z" style="fill:white;fill-rule:nonzero;"/>
        </g>
        <g transform="matrix(24,0,0,24,501.01,231.472)">
            <rect x="0.055" y="-0.263" width="0.258" height="0.069" style="fill:white;fill-rule:nonzero;"/>
        </g>
        <g transform="matrix(24,0,0,24,510.25,231.472)">
            <path d="M0.385,-0L0.385,-0.082C0.383,-0.073 0.375,-0.061 0.362,-0.046C0.349,-0.031 0.331,-0.018 0.309,-0.006C0.287,0.006 0.26,0.012 0.23,0.012C0.192,0.012 0.157,0.003 0.126,-0.015C0.095,-0.033 0.071,-0.058 0.053,-0.09C0.035,-0.123 0.025,-0.161 0.025,-0.205C0.025,-0.249 0.035,-0.287 0.053,-0.32C0.071,-0.353 0.095,-0.378 0.126,-0.396C0.157,-0.414 0.192,-0.423 0.23,-0.423C0.26,-0.423 0.286,-0.417 0.308,-0.406C0.33,-0.395 0.348,-0.382 0.361,-0.368C0.374,-0.354 0.382,-0.342 0.385,-0.332L0.385,-0.41L0.463,-0.41L0.463,-0L0.385,-0ZM0.103,-0.205C0.103,-0.174 0.11,-0.147 0.124,-0.125C0.137,-0.102 0.155,-0.085 0.177,-0.073C0.198,-0.061 0.221,-0.055 0.246,-0.055C0.285,-0.055 0.318,-0.068 0.344,-0.096C0.37,-0.123 0.383,-0.159 0.383,-0.205C0.383,-0.25 0.37,-0.287 0.344,-0.315C0.318,-0.342 0.285,-0.356 0.246,-0.356C0.221,-0.356 0.198,-0.35 0.177,-0.338C0.155,-0.325 0.137,-0.308 0.124,-0.285C0.11,-0.263 0.103,-0.236 0.103,-0.205Z" style="fill:white;fill-rule:nonzero;"/>
        </g>
        <g transform="matrix(24,0,0,24,522.91,231.472)">
            <path d="M0.319,-0.316L0.214,-0L0.13,-0L0.021,-0.41L0.105,-0.41L0.18,-0.086L0.284,-0.403L0.353,-0.403L0.457,-0.086L0.533,-0.41L0.617,-0.41L0.508,-0L0.425,-0L0.319,-0.316Z" style="fill:white;fill-rule:nonzero;"/>
        </g>
        <g transform="matrix(24,0,0,24,538.618,231.472)">
            <path d="M0.385,-0L0.385,-0.082C0.383,-0.073 0.375,-0.061 0.362,-0.046C0.349,-0.031 0.331,-0.018 0.309,-0.006C0.287,0.006 0.26,0.012 0.23,0.012C0.192,0.012 0.157,0.003 0.126,-0.015C0.095,-0.033 0.071,-0.058 0.053,-0.09C0.035,-0.123 0.025,-0.161 0.025,-0.205C0.025,-0.249 0.035,-0.287 0.053,-0.32C0.071,-0.353 0.095,-0.378 0.126,-0.396C0.157,-0.414 0.192,-0.423 0.23,-0.423C0.26,-0.423 0.286,-0.417 0.308,-0.406C0.33,-0.395 0.348,-0.382 0.361,-0.368C0.374,-0.354 0.382,-0.342 0.385,-0.332L0.385,-0.41L0.463,-0.41L0.463,-0L0.385,-0ZM0.103,-0.205C0.103,-0.174 0.11,-0.147 0.124,-0.125C0.137,-0.102 0.155,-0.085 0.177,-0.073C0.198,-0.061 0.221,-0.055 0.246,-0.055C0.285,-0.055 0.318,-0.068 0.344,-0.096C0.37,-0.123 0.383,-0.159 0.383,-0.205C0.383,-0.25 0.37,-0.287 0.344,-0.315C0.318,-0.342 0.285,-0.356 0.246,-0.356C0.221,-0.356 0.198,-0.35 0.177,-0.338C0.155,-0.325 0.137,-0.308 0.124,-0.285C0.11,-0.263 0.103,-0.236 0.103,-0.205Z" style="fill:white;fill-rule:nonzero;"/>
        </g>
        <g transform="matrix(24,0,0,24,551.278,231.472)">
            <path d="M0.133,-0L0.054,-0L0.054,-0.41L0.133,-0.41L0.133,-0.347C0.137,-0.356 0.144,-0.366 0.155,-0.378C0.166,-0.39 0.18,-0.4 0.198,-0.409C0.216,-0.418 0.236,-0.423 0.26,-0.423C0.279,-0.423 0.295,-0.42 0.31,-0.415C0.324,-0.41 0.334,-0.405 0.34,-0.4L0.307,-0.334C0.302,-0.338 0.294,-0.343 0.282,-0.348C0.271,-0.353 0.257,-0.355 0.239,-0.355C0.217,-0.355 0.198,-0.348 0.182,-0.334C0.166,-0.32 0.154,-0.303 0.145,-0.283C0.137,-0.263 0.133,-0.245 0.133,-0.229L0.133,-0Z" style="fill:white;fill-rule:nonzero;"/>
        </g>
        <g transform="matrix(24,0,0,24,559.33,231.472)">
            <path d="M0.103,-0.19C0.104,-0.152 0.116,-0.119 0.139,-0.092C0.162,-0.064 0.197,-0.051 0.244,-0.051C0.269,-0.051 0.291,-0.054 0.309,-0.062C0.327,-0.07 0.342,-0.079 0.353,-0.09C0.364,-0.101 0.373,-0.11 0.378,-0.119L0.419,-0.07C0.402,-0.044 0.379,-0.024 0.352,-0.01C0.324,0.005 0.286,0.012 0.238,0.012C0.195,0.012 0.157,0.002 0.125,-0.017C0.093,-0.035 0.068,-0.062 0.051,-0.095C0.034,-0.128 0.025,-0.167 0.025,-0.21C0.025,-0.25 0.034,-0.286 0.05,-0.318C0.066,-0.35 0.09,-0.376 0.121,-0.395C0.152,-0.413 0.189,-0.423 0.233,-0.423C0.293,-0.423 0.341,-0.404 0.377,-0.367C0.413,-0.33 0.431,-0.28 0.431,-0.217C0.431,-0.214 0.431,-0.21 0.431,-0.203C0.43,-0.196 0.43,-0.192 0.43,-0.19L0.103,-0.19ZM0.353,-0.252C0.352,-0.266 0.348,-0.282 0.34,-0.299C0.333,-0.316 0.32,-0.33 0.303,-0.342C0.286,-0.354 0.263,-0.361 0.234,-0.361C0.204,-0.361 0.179,-0.355 0.161,-0.343C0.143,-0.331 0.129,-0.317 0.121,-0.3C0.112,-0.283 0.107,-0.267 0.106,-0.252L0.353,-0.252Z" style="fill:white;fill-rule:nonzero;"/>
        </g>
        <g transform="matrix(24,0,0,24,576.67,231.472)">
            <path d="M0.538,-0.423C0.583,-0.423 0.619,-0.407 0.644,-0.378C0.669,-0.347 0.681,-0.301 0.681,-0.238L0.681,-0L0.603,-0L0.603,-0.222C0.603,-0.268 0.597,-0.303 0.584,-0.326C0.571,-0.349 0.548,-0.36 0.514,-0.36C0.496,-0.36 0.479,-0.355 0.463,-0.345C0.447,-0.336 0.433,-0.321 0.423,-0.301C0.412,-0.28 0.407,-0.254 0.407,-0.222L0.407,-0L0.333,-0L0.333,-0.222C0.333,-0.268 0.325,-0.303 0.309,-0.326C0.293,-0.349 0.271,-0.36 0.243,-0.36C0.216,-0.36 0.192,-0.349 0.17,-0.328C0.148,-0.306 0.138,-0.271 0.138,-0.222L0.138,-0L0.059,-0L0.059,-0.41L0.138,-0.41L0.138,-0.347C0.141,-0.357 0.149,-0.368 0.161,-0.38C0.173,-0.392 0.189,-0.402 0.207,-0.41C0.227,-0.418 0.248,-0.423 0.272,-0.423C0.297,-0.423 0.317,-0.417 0.334,-0.407C0.351,-0.396 0.364,-0.384 0.373,-0.369C0.383,-0.354 0.389,-0.34 0.393,-0.327C0.397,-0.342 0.406,-0.356 0.42,-0.371C0.433,-0.386 0.45,-0.398 0.47,-0.408C0.49,-0.418 0.513,-0.423 0.538,-0.423Z" style="fill:white;fill-rule:nonzero;"/>
        </g>
        <g transform="matrix(24,0,0,24,594.694,231.472)">
            <path d="M0.105,-0.558C0.09,-0.558 0.077,-0.563 0.067,-0.574C0.056,-0.584 0.051,-0.596 0.051,-0.611C0.051,-0.626 0.056,-0.639 0.067,-0.649C0.077,-0.66 0.09,-0.665 0.105,-0.665C0.119,-0.665 0.132,-0.66 0.142,-0.649C0.154,-0.639 0.159,-0.626 0.159,-0.611C0.159,-0.596 0.154,-0.584 0.143,-0.574C0.132,-0.563 0.119,-0.558 0.105,-0.558ZM0.064,-0L0.064,-0.41L0.143,-0.41L0.143,-0L0.064,-0Z" style="fill:white;fill-rule:nonzero;"/>
        </g>
        <g transform="matrix(24,0,0,24,600.118,231.472)">
            <path d="M0.248,0.22C0.199,0.219 0.157,0.212 0.123,0.197C0.089,0.182 0.064,0.163 0.047,0.139L0.101,0.089C0.107,0.098 0.115,0.107 0.126,0.117C0.137,0.127 0.152,0.135 0.171,0.142C0.19,0.149 0.214,0.153 0.245,0.153C0.29,0.153 0.325,0.139 0.349,0.11C0.373,0.082 0.385,0.047 0.385,0.007L0.385,-0.082C0.383,-0.073 0.375,-0.061 0.362,-0.046C0.349,-0.031 0.331,-0.018 0.309,-0.006C0.287,0.006 0.26,0.012 0.23,0.012C0.192,0.012 0.157,0.003 0.126,-0.015C0.095,-0.033 0.071,-0.058 0.053,-0.09C0.035,-0.123 0.025,-0.161 0.025,-0.205C0.025,-0.249 0.035,-0.287 0.053,-0.32C0.071,-0.353 0.095,-0.378 0.126,-0.396C0.157,-0.414 0.192,-0.423 0.23,-0.423C0.26,-0.423 0.286,-0.417 0.308,-0.406C0.33,-0.395 0.348,-0.382 0.361,-0.368C0.374,-0.354 0.382,-0.342 0.385,-0.332L0.385,-0.41L0.463,-0.41L0.463,0.012C0.463,0.057 0.453,0.095 0.434,0.126C0.415,0.157 0.389,0.18 0.356,0.196C0.324,0.212 0.288,0.219 0.248,0.22ZM0.103,-0.205C0.103,-0.174 0.11,-0.147 0.124,-0.125C0.137,-0.102 0.155,-0.085 0.177,-0.073C0.198,-0.061 0.221,-0.055 0.246,-0.055C0.285,-0.055 0.318,-0.068 0.344,-0.096C0.37,-0.123 0.383,-0.159 0.383,-0.205C0.383,-0.25 0.37,-0.287 0.344,-0.315C0.318,-0.342 0.285,-0.356 0.246,-0.356C0.221,-0.356 0.198,-0.35 0.177,-0.338C0.155,-0.325 0.137,-0.308 0.124,-0.285C0.11,-0.263 0.103,-0.236 0.103,-0.205Z" style="fill:white;fill-rule:nonzero;"/>
        </g>
        <g transform="matrix(24,0,0,24,612.874,231.472)">
            <path d="M0.133,-0L0.054,-0L0.054,-0.41L0.133,-0.41L0.133,-0.347C0.137,-0.356 0.144,-0.366 0.155,-0.378C0.166,-0.39 0.18,-0.4 0.198,-0.409C0.216,-0.418 0.236,-0.423 0.26,-0.423C0.279,-0.423 0.295,-0.42 0.31,-0.415C0.324,-0.41 0.334,-0.405 0.34,-0.4L0.307,-0.334C0.302,-0.338 0.294,-0.343 0.282,-0.348C0.271,-0.353 0.257,-0.355 0.239,-0.355C0.217,-0.355 0.198,-0.348 0.182,-0.334C0.166,-0.32 0.154,-0.303 0.145,-0.283C0.137,-0.263 0.133,-0.245 0.133,-0.229L0.133,-0Z" style="fill:white;fill-rule:nonzero;"/>
        </g>
        <g transform="matrix(24,0,0,24,620.926,231.472)">
            <path d="M0.385,-0L0.385,-0.082C0.383,-0.073 0.375,-0.061 0.362,-0.046C0.349,-0.031 0.331,-0.018 0.309,-0.006C0.287,0.006 0.26,0.012 0.23,0.012C0.192,0.012 0.157,0.003 0.126,-0.015C0.095,-0.033 0.071,-0.058 0.053,-0.09C0.035,-0.123 0.025,-0.161 0.025,-0.205C0.025,-0.249 0.035,-0.287 0.053,-0.32C0.071,-0.353 0.095,-0.378 0.126,-0.396C0.157,-0.414 0.192,-0.423 0.23,-0.423C0.26,-0.423 0.286,-0.417 0.308,-0.406C0.33,-0.395 0.348,-0.382 0.361,-0.368C0.374,-0.354 0.382,-0.342 0.385,-0.332L0.385,-0.41L0.463,-0.41L0.463,-0L0.385,-0ZM0.103,-0.205C0.103,-0.174 0.11,-0.147 0.124,-0.125C0.137,-0.102 0.155,-0.085 0.177,-0.073C0.198,-0.061 0.221,-0.055 0.246,-0.055C0.285,-0.055 0.318,-0.068 0.344,-0.096C0.37,-0.123 0.383,-0.159 0.383,-0.205C0.383,-0.25 0.37,-0.287 0.344,-0.315C0.318,-0.342 0.285,-0.356 0.246,-0.356C0.221,-0.356 0.198,-0.35 0.177,-0.338C0.155,-0.325 0.137,-0.308 0.124,-0.285C0.11,-0.263 0.103,-0.236 0.103,-0.205Z" style="fill:white;fill-rule:nonzero;"/>
        </g>
        <g transform="matrix(24,0,0,24,633.586,231.472)">
            <path d="M0.019,-0.41L0.101,-0.41L0.101,-0.579L0.179,-0.579L0.179,-0.41L0.286,-0.41L0.286,-0.342L0.179,-0.342L0.179,-0.129C0.179,-0.103 0.184,-0.085 0.193,-0.074C0.202,-0.063 0.213,-0.057 0.228,-0.057C0.241,-0.057 0.251,-0.059 0.258,-0.064C0.265,-0.069 0.27,-0.072 0.271,-0.074L0.303,-0.015C0.3,-0.012 0.29,-0.007 0.274,0.001C0.257,0.008 0.236,0.012 0.21,0.012C0.179,0.012 0.153,0.002 0.132,-0.017C0.111,-0.036 0.101,-0.066 0.101,-0.108L0.101,-0.342L0.019,-0.342L0.019,-0.41Z" style="fill:white;fill-rule:nonzero;"/>
        </g>
        <g transform="matrix(24,0,0,24,641.446,231.472)">
            <path d="M0.105,-0.558C0.09,-0.558 0.077,-0.563 0.067,-0.574C0.056,-0.584 0.051,-0.596 0.051,-0.611C0.051,-0.626 0.056,-0.639 0.067,-0.649C0.077,-0.66 0.09,-0.665 0.105,-0.665C0.119,-0.665 0.132,-0.66 0.142,-0.649C0.154,-0.639 0.159,-0.626 0.159,-0.611C0.159,-0.596 0.154,-0.584 0.143,-0.574C0.132,-0.563 0.119,-0.558 0.105,-0.558ZM0.064,-0L0.064,-0.41L0.143,-0.41L0.143,-0L0.064,-0Z" style="fill:white;fill-rule:nonzero;"/>
        </g>
        <g transform="matrix(24,0,0,24,646.87,231.472)">
            <path d="M0.242,0.012C0.2,0.012 0.162,0.002 0.13,-0.017C0.097,-0.035 0.072,-0.061 0.053,-0.094C0.035,-0.127 0.025,-0.163 0.025,-0.204C0.025,-0.245 0.035,-0.281 0.053,-0.315C0.072,-0.347 0.097,-0.374 0.13,-0.393C0.162,-0.413 0.2,-0.423 0.242,-0.423C0.283,-0.423 0.32,-0.413 0.353,-0.393C0.385,-0.374 0.41,-0.347 0.428,-0.315C0.446,-0.281 0.456,-0.245 0.456,-0.204C0.456,-0.163 0.446,-0.127 0.428,-0.094C0.41,-0.061 0.385,-0.035 0.353,-0.017C0.32,0.002 0.283,0.012 0.242,0.012ZM0.242,-0.057C0.283,-0.057 0.317,-0.071 0.342,-0.099C0.367,-0.127 0.38,-0.162 0.38,-0.204C0.38,-0.247 0.367,-0.282 0.342,-0.311C0.317,-0.34 0.283,-0.354 0.242,-0.354C0.214,-0.354 0.189,-0.347 0.168,-0.334C0.147,-0.321 0.131,-0.303 0.119,-0.28C0.108,-0.258 0.102,-0.233 0.102,-0.204C0.102,-0.162 0.115,-0.127 0.14,-0.099C0.166,-0.071 0.2,-0.057 0.242,-0.057Z" style="fill:white;fill-rule:nonzero;"/>
        </g>
        <g transform="matrix(24,0,0,24,658.858,231.472)">
            <path d="M0.277,-0.423C0.304,-0.423 0.33,-0.417 0.355,-0.406C0.38,-0.394 0.401,-0.376 0.417,-0.352C0.434,-0.328 0.442,-0.296 0.442,-0.257L0.442,-0L0.362,-0L0.362,-0.241C0.362,-0.282 0.352,-0.313 0.333,-0.332C0.313,-0.351 0.288,-0.361 0.257,-0.361C0.236,-0.361 0.217,-0.355 0.198,-0.343C0.179,-0.331 0.164,-0.316 0.152,-0.296C0.14,-0.276 0.134,-0.253 0.134,-0.228L0.134,-0L0.055,-0L0.055,-0.41L0.134,-0.41L0.134,-0.336C0.137,-0.347 0.145,-0.36 0.158,-0.373C0.171,-0.387 0.188,-0.398 0.209,-0.408C0.23,-0.418 0.253,-0.423 0.277,-0.423Z" style="fill:white;fill-rule:nonzero;"/>
        </g>
        <g transform="matrix(24,0,0,24,670.99,231.472)">
            <path d="M0.204,-0.423C0.235,-0.423 0.263,-0.418 0.288,-0.409C0.312,-0.4 0.329,-0.392 0.338,-0.385L0.306,-0.334C0.299,-0.34 0.286,-0.346 0.269,-0.354C0.252,-0.361 0.232,-0.365 0.211,-0.365C0.187,-0.365 0.166,-0.36 0.149,-0.35C0.132,-0.341 0.124,-0.327 0.124,-0.309C0.124,-0.291 0.132,-0.277 0.15,-0.266C0.167,-0.255 0.191,-0.247 0.22,-0.239C0.243,-0.234 0.264,-0.227 0.283,-0.218C0.303,-0.209 0.319,-0.196 0.331,-0.181C0.343,-0.165 0.349,-0.144 0.349,-0.117C0.349,-0.086 0.341,-0.061 0.324,-0.042C0.307,-0.023 0.286,-0.009 0.259,-0.001C0.233,0.008 0.205,0.012 0.176,0.012C0.139,0.012 0.107,0.007 0.082,-0.004C0.056,-0.015 0.038,-0.025 0.028,-0.033L0.062,-0.091C0.07,-0.082 0.084,-0.073 0.104,-0.064C0.124,-0.054 0.147,-0.05 0.172,-0.05C0.201,-0.05 0.224,-0.056 0.242,-0.068C0.26,-0.08 0.27,-0.097 0.27,-0.117C0.27,-0.14 0.26,-0.156 0.241,-0.166C0.222,-0.176 0.2,-0.184 0.175,-0.19C0.153,-0.195 0.133,-0.202 0.113,-0.212C0.093,-0.221 0.077,-0.234 0.065,-0.25C0.052,-0.266 0.046,-0.286 0.046,-0.311C0.046,-0.334 0.053,-0.354 0.068,-0.371C0.083,-0.387 0.102,-0.4 0.126,-0.409C0.15,-0.418 0.176,-0.423 0.204,-0.423Z" style="fill:white;fill-rule:nonzero;"/>
        </g>
    </g>
</svg>
